<?xml version="1.0" encoding="UTF-8" standalone="no"?>
<!-- Created with Inkscape (http://www.inkscape.org/) -->

<svg
   xmlns:dc="http://purl.org/dc/elements/1.1/"
   xmlns:cc="http://creativecommons.org/ns#"
   xmlns:rdf="http://www.w3.org/1999/02/22-rdf-syntax-ns#"
   xmlns:svg="http://www.w3.org/2000/svg"
   xmlns="http://www.w3.org/2000/svg"
   xmlns:xlink="http://www.w3.org/1999/xlink"
   xmlns:sodipodi="http://sodipodi.sourceforge.net/DTD/sodipodi-0.dtd"
   xmlns:inkscape="http://www.inkscape.org/namespaces/inkscape"
   width="64"
   height="64"
   viewBox="0 0 16.933333 16.933334"
   version="1.1"
   id="svg8"
   sodipodi:docname="audacious.svg"
   inkscape:version="0.92.4 (5da689c313, 2019-01-14)">
  <defs
     id="defs2">
    <linearGradient
       inkscape:collect="always"
       id="linearGradient826">
      <stop
         style="stop-color:#0069ec;stop-opacity:1"
         offset="0"
         id="stop822" />
      <stop
         style="stop-color:#a0fffb;stop-opacity:1"
         offset="1"
         id="stop824" />
    </linearGradient>
    <linearGradient
       inkscape:collect="always"
       id="linearGradient818">
      <stop
         style="stop-color:#0086d2;stop-opacity:1"
         offset="0"
         id="stop814" />
      <stop
         style="stop-color:#00d2c8;stop-opacity:1"
         offset="1"
         id="stop816" />
    </linearGradient>
    <linearGradient
       inkscape:collect="always"
       xlink:href="#linearGradient818"
       id="linearGradient820"
       x1="8.385582"
       y1="296.68262"
       x2="8.385582"
       y2="280.71326"
       gradientUnits="userSpaceOnUse" />
    <linearGradient
       inkscape:collect="always"
       xlink:href="#linearGradient826"
       id="linearGradient828"
       x1="8.5188627"
       y1="297.07675"
       x2="8.5188627"
       y2="280.2793"
       gradientUnits="userSpaceOnUse" />
  </defs>
  <sodipodi:namedview
     id="base"
     pagecolor="#ffffff"
     bordercolor="#666666"
     borderopacity="1.0"
     inkscape:pageopacity="0.0"
     inkscape:pageshadow="2"
     inkscape:zoom="4"
     inkscape:cx="9.1157511"
     inkscape:cy="13.149262"
     inkscape:document-units="mm"
     inkscape:current-layer="layer1"
     showgrid="false"
     units="px"
     inkscape:window-width="1920"
     inkscape:window-height="1022"
     inkscape:window-x="0"
     inkscape:window-y="30"
     inkscape:window-maximized="1" />
  <metadata
     id="metadata5">
    <rdf:RDF>
      <cc:Work
         rdf:about="">
        <dc:format>image/svg+xml</dc:format>
        <dc:type
           rdf:resource="http://purl.org/dc/dcmitype/StillImage" />
        <dc:title></dc:title>
      </cc:Work>
    </rdf:RDF>
  </metadata>
  <g
     inkscape:label="Capa 1"
     inkscape:groupmode="layer"
     id="layer1"
     transform="translate(0,-280.06665)">
    <circle
       style="opacity:1;fill:url(#linearGradient820);fill-opacity:1;stroke:none;stroke-width:0.185;stroke-linecap:round;stroke-linejoin:round;stroke-miterlimit:4;stroke-dasharray:none;stroke-opacity:1"
       id="path815"
       cx="8.4691038"
       cy="288.53088"
       r="8.2018337" />
    <path
       style="color:#000000;font-style:normal;font-variant:normal;font-weight:normal;font-stretch:normal;font-size:medium;line-height:normal;font-family:sans-serif;font-variant-ligatures:normal;font-variant-position:normal;font-variant-caps:normal;font-variant-numeric:normal;font-variant-alternates:normal;font-feature-settings:normal;text-indent:0;text-align:start;text-decoration:none;text-decoration-line:none;text-decoration-style:solid;text-decoration-color:#000000;letter-spacing:normal;word-spacing:normal;text-transform:none;writing-mode:lr-tb;direction:ltr;text-orientation:mixed;dominant-baseline:auto;baseline-shift:baseline;text-anchor:start;white-space:normal;shape-padding:0;clip-rule:nonzero;display:inline;overflow:visible;visibility:visible;opacity:1;isolation:auto;mix-blend-mode:normal;color-interpolation:sRGB;color-interpolation-filters:linearRGB;solid-color:#000000;solid-opacity:1;vector-effect:none;fill:url(#linearGradient828);fill-opacity:1;fill-rule:nonzero;stroke:none;stroke-width:0.185;stroke-linecap:round;stroke-linejoin:round;stroke-miterlimit:4;stroke-dasharray:none;stroke-dashoffset:0;stroke-opacity:1;color-rendering:auto;image-rendering:auto;shape-rendering:auto;text-rendering:auto;enable-background:accumulate"
       d="m 8.46875,280.23633 c -4.5797384,0 -8.29492188,3.71518 -8.29492188,8.29492 10e-9,4.57974 3.71518348,8.29492 8.29492188,8.29492 4.579738,0 8.294922,-3.71518 8.294922,-8.29492 0,-4.09915 -2.976364,-7.50567 -6.8850044,-8.17548 -0.4582559,-0.0785 -0.9293264,-0.11944 -1.4099176,-0.11944 z m 0,0.18555 c 4.479757,0 8.109375,3.62961 8.109375,8.10937 0,4.47976 -3.629618,8.10937 -8.109375,8.10937 -4.479757,0 -8.109375,-3.62961 -8.109375,-8.10937 0,-4.47976 3.629618,-8.10937 8.109375,-8.10937 z"
       id="circle821"
       inkscape:connector-curvature="0"
       sodipodi:nodetypes="sssssssssss" />
    <path
       style="font-style:normal;font-variant:normal;font-weight:normal;font-stretch:normal;font-size:3.24820685px;line-height:1.25;font-family:Arizonia;-inkscape-font-specification:Arizonia;letter-spacing:0px;word-spacing:0px;fill:#ffffff;fill-opacity:0.39112905;stroke:none;stroke-width:0.30691716"
       d="M 36.324219 1.3300781 L 37.712891 6.5117188 L 38.109375 6.40625 L 37.511719 4.1757812 C 37.467007 4.0087261 37.459217 3.8051457 37.488281 3.5625 C 37.520029 3.3187205 37.577309 3.0825928 37.660156 2.8535156 C 37.745158 2.6206967 37.861533 2.4105121 38.009766 2.2265625 C 38.160909 2.0417436 38.323498 1.9269696 38.496094 1.8808594 C 38.677473 1.8321035 38.844801 1.8353805 39 1.8886719 C 39.157342 1.9374278 39.290782 2.0252883 39.396484 2.1503906 C 39.502198 2.275493 39.589 2.4074738 39.658203 2.5488281 C 39.730354 2.6894266 39.786954 2.8411342 39.830078 3.0019531 L 40.566406 5.7480469 L 40.953125 5.6445312 L 40.216797 2.8984375 C 40.128998 2.5707525 40.003195 2.28801 39.839844 2.0527344 C 39.834445 2.0447879 39.827771 2.0390511 39.822266 2.03125 A 30.999057 30.999057 0 0 0 38.169922 1.609375 C 38.169427 1.6096734 38.168464 1.6090755 38.167969 1.609375 C 37.990085 1.7169863 37.82104 1.868164 37.667969 2.109375 C 37.449663 2.453312 37.312318 2.8230212 37.255859 3.2207031 L 36.767578 1.3984375 A 30.999057 30.999057 0 0 0 36.324219 1.3300781 z M 41.701172 2.5703125 L 42.417969 5.2519531 L 42.8125 5.1464844 L 42.167969 2.7421875 A 30.999057 30.999057 0 0 0 41.701172 2.5703125 z M 43.910156 3.3769531 L 44.867188 6.9511719 L 45.261719 6.8457031 L 44.388672 3.5878906 A 30.999057 30.999057 0 0 0 43.910156 3.3769531 z M 44.492188 3.6386719 C 44.681426 3.8618272 44.920984 4.0504388 45.244141 4.1796875 C 45.466145 4.2659605 45.677826 4.3021887 45.882812 4.3105469 A 30.999057 30.999057 0 0 0 44.492188 3.6386719 z M 29.619141 5.1152344 C 29.392147 5.108006 29.160947 5.1362896 28.925781 5.1992188 L 26.107422 5.9550781 L 26.173828 6.2050781 C 26.648688 6.0633458 26.925579 6.0427352 27.003906 6.140625 C 27.03452 6.1787982 27.062807 6.2415738 27.085938 6.328125 L 28.228516 10.589844 C 28.252327 10.679041 28.257937 10.745283 28.25 10.791016 C 28.228835 10.906669 28.056326 11.009215 27.726562 11.097656 C 27.775205 11.086318 27.697934 11.105541 27.5 11.154297 L 27.566406 11.400391 C 27.756479 11.331225 27.9215 11.278471 28.056641 11.242188 L 29.376953 10.888672 C 29.541816 10.844451 29.724643 10.804681 29.923828 10.769531 L 29.857422 10.521484 C 29.372301 10.657169 29.090563 10.678158 29.013672 10.585938 C 28.983058 10.547764 28.954771 10.486942 28.931641 10.400391 L 28.429688 8.5273438 L 29.789062 8.1621094 C 30.229665 8.0441881 30.598593 7.8012406 30.896484 7.4316406 C 31.219558 7.0263997 31.324158 6.6094576 31.208984 6.1796875 C 31.088758 5.730982 30.782113 5.4171796 30.289062 5.2421875 C 30.069861 5.1647072 29.846134 5.1224627 29.619141 5.1152344 z M 29.371094 5.4277344 C 29.544494 5.4331674 29.694811 5.4721026 29.822266 5.5429688 C 30.079122 5.6797876 30.266203 5.9671689 30.382812 6.4023438 C 30.605162 7.2321768 30.291352 7.7595943 29.445312 7.9863281 L 28.34375 8.2832031 L 27.765625 6.1230469 C 27.727263 5.9798028 27.728334 5.8838108 27.769531 5.8320312 C 27.798634 5.7893226 27.884062 5.7510639 28.027344 5.7128906 L 28.027344 5.7109375 L 28.78125 5.5078125 C 29.000194 5.4492298 29.197693 5.4223013 29.371094 5.4277344 z M 22.748047 6.5585938 C 22.661533 6.5812709 22.616304 6.6535631 22.607422 6.7714844 L 22.228516 11.988281 C 22.202059 12.375494 21.953414 12.634702 21.484375 12.765625 L 21.550781 13.013672 C 21.916526 12.897262 22.183971 12.814508 22.351562 12.769531 C 22.456974 12.743075 22.765806 12.669017 23.28125 12.548828 L 23.216797 12.300781 C 23.068148 12.340466 22.927046 12.344248 22.796875 12.3125 C 22.636736 12.278484 22.536888 12.19264 22.5 12.054688 C 22.476189 11.965491 22.479844 11.760764 22.507812 11.443359 C 22.53049 11.225659 22.553381 11.008679 22.576172 10.791016 L 24.550781 10.261719 C 24.696142 10.468837 24.839736 10.674283 24.984375 10.878906 C 25.205591 11.196387 25.326642 11.396222 25.347656 11.474609 C 25.391045 11.636373 25.194398 11.773623 24.755859 11.888672 L 24.822266 12.136719 C 25.017743 12.066042 25.266816 11.987888 25.572266 11.90625 C 26.188563 11.741085 26.671675 11.622088 27.019531 11.546875 L 26.953125 11.298828 C 26.698309 11.374797 26.535042 11.412929 26.462891 11.414062 C 26.282418 11.421622 26.141937 11.350841 26.041016 11.201172 L 22.978516 6.671875 C 22.911694 6.5739852 22.836513 6.5355386 22.75 6.5585938 L 22.748047 6.5585938 z M 22.796875 7.6757812 L 24.394531 10.035156 L 22.601562 10.515625 L 22.796875 7.6757812 z M 17.212891 8.4277344 C 16.97244 8.4308525 16.729752 8.4656752 16.482422 8.53125 L 13.976562 9.2050781 L 14.042969 9.4550781 C 14.529288 9.3129679 14.808421 9.2962024 14.880859 9.4042969 C 14.91034 9.4485173 14.935538 9.5090864 14.955078 9.5820312 L 16.101562 13.861328 C 16.123862 13.945234 16.131362 14.007002 16.123047 14.052734 C 16.102637 14.159695 15.92382 14.259279 15.585938 14.349609 L 15.476562 14.380859 C 15.421948 14.392198 15.38543 14.398564 15.369141 14.402344 L 15.435547 14.650391 C 15.631024 14.579713 15.821308 14.51864 16.007812 14.46875 L 17.179688 14.154297 C 17.366207 14.104407 17.562977 14.062052 17.767578 14.025391 L 17.701172 13.779297 C 17.211368 13.919139 16.932586 13.944666 16.865234 13.855469 C 16.833864 13.81465 16.808124 13.754017 16.787109 13.675781 L 16.248047 11.667969 L 17.169922 11.421875 C 17.870015 11.23441 18.321871 11.51965 18.525391 12.279297 L 18.568359 12.441406 C 18.585367 12.515107 18.597973 12.570319 18.607422 12.605469 C 18.724738 13.043327 18.921288 13.333205 19.197266 13.476562 C 19.493845 13.631901 19.858524 13.65081 20.291016 13.535156 C 20.51809 13.474306 20.677469 13.333564 20.771484 13.111328 C 20.859018 12.908367 20.872833 12.689472 20.810547 12.457031 C 20.786736 12.367834 20.742591 12.332224 20.677734 12.349609 C 20.626484 12.364727 20.604475 12.412693 20.613281 12.5 C 20.658938 12.99474 20.546433 13.280382 20.273438 13.353516 C 20.038275 13.416634 19.81933 13.246358 19.621094 12.841797 C 19.527097 12.620695 19.435832 12.398799 19.341797 12.177734 C 19.22225 11.893892 19.109091 11.690665 19.003906 11.568359 C 18.753891 11.273178 18.383771 11.106848 17.896484 11.072266 C 18.237511 10.885179 18.509217 10.65756 18.708984 10.386719 C 18.953936 10.057522 19.033678 9.7282391 18.945312 9.3984375 C 18.824368 8.9470485 18.482805 8.6516369 17.923828 8.5117188 C 17.690677 8.4525691 17.453341 8.4246163 17.212891 8.4277344 z M 17.0625 8.7265625 C 17.614515 8.7352808 17.968012 9.0323406 18.125 9.6191406 C 18.337939 10.413862 17.986644 10.934132 17.070312 11.179688 L 16.181641 11.417969 L 15.632812 9.3730469 C 15.59445 9.2298028 15.597475 9.1338108 15.638672 9.0820312 C 15.667774 9.0397005 15.75324 8.9991107 15.896484 8.9609375 L 16.443359 8.8144531 C 16.671093 8.7534138 16.878495 8.7236564 17.0625 8.7265625 z M 9.3886719 10.853516 A 30.999057 30.999057 0 0 0 8.796875 11.488281 C 8.740689 11.637038 8.6843036 11.784342 8.6054688 11.951172 C 8.4003538 12.387329 8.1567407 12.729583 7.875 12.974609 C 7.6184169 13.202317 7.4186031 13.333195 7.2636719 13.384766 A 30.999057 30.999057 0 0 0 7.0800781 13.625 C 7.1807719 13.639304 7.2888752 13.638677 7.4101562 13.605469 C 7.5840788 13.558981 7.7847468 13.438723 8.0117188 13.242188 C 8.4209569 12.90392 8.7629752 12.443678 9.0390625 11.861328 C 9.215313 11.501252 9.3292271 11.16696 9.3886719 10.853516 z M 55.441406 12.980469 L 52.273438 13.830078 L 52.505859 14.699219 C 52.549475 14.862116 52.633076 14.926594 52.759766 14.892578 C 52.880446 14.858562 52.920607 14.762129 52.876953 14.599609 L 52.742188 14.101562 L 55.013672 13.494141 L 53.117188 17.300781 L 53.203125 17.625 L 56.587891 16.716797 L 56.353516 15.839844 C 56.3099 15.676946 56.226111 15.612405 56.105469 15.644531 C 55.978779 15.678547 55.936815 15.776555 55.980469 15.939453 L 56.117188 16.447266 L 53.609375 17.119141 L 55.529297 13.306641 L 55.441406 12.980469 z M 45.169922 14.365234 C 45.120901 14.346006 45.056058 14.347219 44.974609 14.369141 L 42.298828 15.087891 C 42.13593 15.131355 42.06921 15.213417 42.101562 15.333984 C 42.135578 15.460599 42.23554 15.502827 42.398438 15.458984 L 43.835938 15.074219 L 44.701172 18.302734 C 44.794942 18.652719 44.745906 18.985859 44.552734 19.302734 C 44.36561 19.617947 44.086766 19.82522 43.71875 19.923828 C 43.278341 20.041749 42.777245 19.954394 42.214844 19.666016 L 41.900391 18.492188 C 41.856775 18.32929 41.773024 18.262418 41.652344 18.294922 C 41.525654 18.328938 41.483728 18.428899 41.527344 18.591797 L 41.888672 19.939453 C 42.293633 20.147705 42.644107 20.278526 42.9375 20.335938 C 43.22928 20.387339 43.51901 20.374355 43.808594 20.296875 C 44.273135 20.172529 44.628862 19.906727 44.875 19.498047 C 45.125545 19.08177 45.191888 18.649601 45.072266 18.203125 L 44.207031 14.974609 L 45.074219 14.742188 C 45.237116 14.698723 45.303434 14.610989 45.269531 14.484375 C 45.253279 14.424092 45.218942 14.384463 45.169922 14.365234 z M 48.994141 14.658203 C 48.806364 14.65192 48.607641 14.675729 48.396484 14.732422 C 48.010375 14.835981 47.564043 15.060813 47.054688 15.404297 C 46.961862 15.468171 46.924992 15.544057 46.949219 15.634766 C 46.962069 15.682766 46.989461 15.722031 47.029297 15.75 C 47.075218 15.776457 47.121657 15.78087 47.169922 15.769531 C 47.182016 15.766319 47.210845 15.754594 47.255859 15.728516 C 47.798581 15.389114 48.203295 15.182459 48.46875 15.111328 C 48.800555 15.022509 49.085827 15.01961 49.328125 15.103516 C 49.568805 15.181374 49.721447 15.33162 49.78125 15.554688 L 49.953125 16.197266 C 49.454605 16.194922 49.02587 16.242647 48.669922 16.337891 C 48.102815 16.489828 47.674436 16.737351 47.384766 17.080078 C 47.099525 17.415322 47.010164 17.777796 47.115234 18.169922 C 47.207417 18.513859 47.412883 18.758659 47.730469 18.90625 C 48.046513 19.047982 48.415581 19.062227 48.837891 18.949219 C 49.453258 18.784431 49.962469 18.380927 50.365234 17.736328 L 50.529297 18.34375 L 51.386719 18.113281 C 51.549616 18.069817 51.616009 17.984036 51.582031 17.857422 C 51.549527 17.736855 51.450007 17.698345 51.287109 17.742188 L 50.798828 17.873047 L 50.150391 15.455078 C 50.064671 15.13533 49.857499 14.908152 49.523438 14.771484 C 49.359387 14.70213 49.181917 14.664487 48.994141 14.658203 z M 37.261719 14.693359 L 36.623047 14.865234 L 38.068359 20.253906 L 38.705078 20.083984 L 37.261719 14.693359 z M 50.039062 16.515625 L 50.255859 17.328125 C 50.030184 17.692471 49.797732 17.972542 49.558594 18.166016 C 49.325472 18.358016 49.050221 18.496198 48.730469 18.582031 C 48.41673 18.665937 48.146065 18.66266 47.921875 18.574219 C 47.696086 18.479731 47.553303 18.315354 47.490234 18.080078 C 47.414266 17.796614 47.499278 17.527611 47.748047 17.273438 C 48.001162 17.011516 48.36714 16.817163 48.84375 16.689453 C 49.253995 16.579469 49.652821 16.52205 50.039062 16.515625 z M 5.140625 16.582031 A 30.999057 30.999057 0 0 0 4.7167969 17.310547 C 4.8148181 17.423668 4.9415274 17.518979 5.0976562 17.595703 L 5.1367188 17.595703 C 5.1661991 17.580585 5.1670061 17.556634 5.140625 17.521484 C 5.1084234 17.495028 5.0849837 17.459731 5.0722656 17.412109 C 5.032321 17.26304 5.0685154 16.960219 5.140625 16.582031 z M 34.904297 16.962891 C 34.675706 16.946308 34.422012 16.975947 34.142578 17.050781 L 34.142578 17.052734 C 33.934742 17.108293 33.726885 17.187142 33.517578 17.292969 C 33.311556 17.39237 33.10263 17.516788 32.890625 17.667969 L 33.048828 18.265625 C 33.213162 18.102727 33.39492 17.967054 33.59375 17.859375 C 33.792591 17.751658 34.00291 17.668714 34.224609 17.609375 C 34.571003 17.516399 34.861075 17.525537 35.09375 17.634766 C 35.329819 17.739836 35.488435 17.937605 35.566406 18.228516 L 35.583984 18.298828 L 34.697266 18.535156 C 34.115305 18.691251 33.706177 18.919033 33.474609 19.21875 C 33.243038 19.518467 33.186401 19.884205 33.302734 20.318359 C 33.402967 20.692533 33.59905 20.962506 33.890625 21.126953 C 34.185579 21.285693 34.532474 21.311283 34.929688 21.205078 C 35.243766 21.120795 35.49424 20.995003 35.681641 20.826172 C 35.867782 20.652692 36.001973 20.428237 36.082031 20.154297 L 36.238281 20.744141 L 36.875 20.572266 L 36.283203 18.363281 L 36.283203 18.361328 C 36.124803 17.770134 35.86877 17.367109 35.513672 17.150391 C 35.336129 17.042107 35.132888 16.979473 34.904297 16.962891 z M 30.398438 18.082031 C 30.295693 18.091084 30.188177 18.110578 30.076172 18.140625 C 29.808279 18.212436 29.587095 18.334647 29.410156 18.505859 C 29.233237 18.677072 29.101534 18.897392 29.015625 19.167969 L 28.853516 18.566406 L 28.208984 18.738281 L 29.248047 22.617188 L 29.892578 22.445312 L 29.304688 20.248047 C 29.203207 19.8693 29.222834 19.545702 29.363281 19.275391 C 29.503728 19.005154 29.744151 18.825953 30.085938 18.734375 C 30.372312 18.657651 30.611294 18.688346 30.802734 18.830078 C 30.994167 18.97181 31.139288 19.22817 31.238281 19.597656 L 31.861328 21.917969 L 32.498047 21.746094 L 31.871094 19.40625 C 31.727547 18.870464 31.503183 18.495789 31.199219 18.285156 C 30.973779 18.122731 30.706671 18.054872 30.398438 18.082031 z M 35.716797 18.796875 L 35.753906 18.935547 C 35.865289 19.351257 35.84875 19.711247 35.703125 20.017578 C 35.5575 20.324098 35.310008 20.527059 34.958984 20.621094 C 34.700351 20.690259 34.477356 20.679041 34.294922 20.589844 C 34.111237 20.495734 33.990349 20.333853 33.929688 20.107422 C 33.852925 19.820934 33.898595 19.594348 34.066406 19.425781 C 34.234104 19.257214 34.573256 19.104334 35.085938 18.966797 L 35.716797 18.796875 z M 21.921875 18.804688 L 21.285156 18.974609 L 21.501953 19.785156 L 22.138672 19.615234 L 21.921875 18.804688 z M 25.851562 19.308594 C 25.722069 19.319247 25.587781 19.343726 25.449219 19.380859 C 24.890351 19.530529 24.497555 19.827793 24.275391 20.273438 C 24.057841 20.717872 24.034281 21.259105 24.205078 21.896484 C 24.374628 22.529253 24.666281 22.986873 25.078125 23.267578 C 25.493348 23.54235 25.980191 23.604747 26.539062 23.455078 C 27.093311 23.306543 27.479724 23.010803 27.697266 22.566406 C 27.913568 22.117361 27.937128 21.574175 27.767578 20.941406 C 27.596781 20.304027 27.305139 19.84836 26.894531 19.572266 C 26.586578 19.365053 26.240043 19.276633 25.851562 19.308594 z M 59.384766 19.785156 L 58.988281 19.890625 L 60.744141 26.441406 L 61.140625 26.335938 L 60.542969 24.105469 C 60.498257 23.938414 60.488514 23.735098 60.517578 23.492188 C 60.549326 23.248408 60.608559 23.010327 60.691406 22.78125 C 60.776408 22.548431 60.890829 22.3402 61.039062 22.15625 C 61.118908 22.058614 61.203267 21.982759 61.289062 21.923828 A 30.999057 30.999057 0 0 0 61.167969 21.556641 C 61.001892 21.66477 60.841262 21.810201 60.697266 22.037109 C 60.47896 22.381046 60.343591 22.752709 60.287109 23.150391 L 59.384766 19.785156 z M 25.839844 19.882812 C 26.080206 19.872643 26.301119 19.947831 26.503906 20.107422 C 26.774294 20.322099 26.971946 20.659235 27.095703 21.121094 C 27.219483 21.582952 27.218789 21.975766 27.091797 22.296875 C 26.964956 22.618135 26.73171 22.823694 26.394531 22.914062 C 26.0481 23.007039 25.739134 22.948989 25.46875 22.732422 C 25.203011 22.516611 25.008526 22.176702 24.884766 21.714844 C 24.759777 21.248337 24.760584 20.855522 24.888672 20.539062 C 25.015513 20.217803 25.251971 20.0115 25.59375 19.919922 C 25.678043 19.897339 25.759723 19.886202 25.839844 19.882812 z M 51.654297 20.296875 C 51.58451 20.297389 51.516428 20.306738 51.451172 20.324219 L 51.451172 20.326172 C 51.190158 20.396093 50.994709 20.546844 50.859375 20.78125 C 50.731967 21.001974 50.463839 21.592659 50.056641 22.552734 C 49.649449 23.51281 49.240607 24.292994 48.830078 24.892578 C 48.815338 24.915255 48.812498 24.933535 48.800781 24.955078 C 48.107264 25.989951 47.370184 26.697319 46.589844 27.044922 C 46.960011 26.642667 47.233827 26.267802 47.408203 25.917969 C 47.861248 25.08549 48.003005 24.355413 47.833984 23.724609 C 47.694066 23.202468 47.391506 22.897464 46.925781 22.8125 C 46.605126 22.746736 46.309009 22.751652 46.037109 22.824219 C 45.297539 23.022266 44.669114 23.488268 44.154297 24.220703 C 43.97836 24.477711 43.747566 24.853131 43.460938 25.349609 C 43.171426 25.835241 42.955656 26.183848 42.814453 26.396484 C 42.662365 26.611917 42.596778 26.758016 42.617188 26.833984 C 42.649313 26.953795 42.706518 26.95077 42.789062 26.822266 C 42.896288 26.700565 43.001985 26.548441 43.105469 26.369141 C 43.012492 26.848687 43.027014 27.311866 43.146484 27.757812 C 43.198906 27.953592 43.288192 28.117098 43.416016 28.246094 C 43.66074 28.506881 44.011956 28.575204 44.46875 28.453125 C 45.012548 28.307235 45.596946 27.953673 46.226562 27.388672 L 46.292969 27.369141 C 47.226123 27.118936 48.100917 26.362612 48.919922 25.154297 C 48.923312 25.150517 48.930192 25.136592 48.933594 25.132812 C 49.016365 25.009978 49.101956 24.905721 49.183594 24.773438 C 49.192665 24.758319 49.185892 24.748674 49.191406 24.732422 C 49.252483 24.63491 49.289505 24.59297 49.363281 24.464844 C 48.20836 27.898356 47.75818 30.088952 48.011719 31.035156 C 48.122459 31.448448 48.390682 31.761418 48.820312 31.972656 L 48.875 31.974609 C 48.915403 31.951932 48.917181 31.915943 48.880859 31.867188 C 48.836563 31.833172 48.806524 31.781805 48.789062 31.716797 C 48.608363 31.042454 49.259486 28.666807 50.742188 24.585938 C 50.673854 25.070549 50.685211 25.481226 50.775391 25.818359 C 50.865721 26.155493 51.063452 26.374427 51.371094 26.478516 C 51.552511 26.546547 51.764636 26.549446 52.003906 26.486328 C 52.243188 26.422076 52.515845 26.254649 52.828125 25.984375 C 53.391123 25.518775 53.86236 24.885169 54.242188 24.083984 C 54.754034 23.03834 54.90833 22.135894 54.705078 21.375 L 54.705078 21.373047 C 54.608776 21.015504 54.440337 20.79952 54.199219 20.724609 C 53.954683 20.638436 53.730091 20.620222 53.523438 20.675781 C 53.316811 20.730962 53.096135 20.843908 52.861328 21.011719 C 52.380859 21.350364 51.945596 21.835515 51.554688 22.464844 C 51.934315 21.488856 52.196182 20.840779 52.34375 20.521484 C 52.093337 20.370114 51.863657 20.295334 51.654297 20.296875 z M 22.326172 20.314453 L 21.689453 20.486328 L 22.730469 24.363281 L 23.365234 24.193359 L 22.326172 20.314453 z M 20.337891 20.845703 L 19.701172 21.015625 L 19.859375 21.605469 C 19.66352 21.410445 19.449691 21.284831 19.216797 21.228516 C 18.983902 21.172201 18.72191 21.183797 18.435547 21.259766 C 17.955195 21.388648 17.618281 21.671139 17.423828 22.109375 C 17.229371 22.547573 17.214106 23.067515 17.375 23.667969 C 17.535894 24.268384 17.808515 24.711143 18.197266 24.998047 C 18.584784 25.280378 19.019649 25.358973 19.5 25.230469 C 19.786375 25.153744 20.01785 25.032353 20.191406 24.867188 C 20.363715 24.697487 20.484603 24.477772 20.556641 24.210938 L 20.642578 24.529297 C 20.761369 24.972673 20.745372 25.330747 20.595703 25.603516 C 20.446034 25.876398 20.160541 26.069011 19.740234 26.181641 C 19.555491 26.231152 19.364411 26.257371 19.166016 26.255859 C 18.968951 26.259374 18.762794 26.233042 18.550781 26.181641 L 18.716797 26.798828 C 18.921383 26.821505 19.126711 26.825412 19.333984 26.802734 C 19.541254 26.780057 19.760006 26.74016 19.986328 26.679688 C 20.591385 26.517546 20.994863 26.23721 21.199219 25.835938 C 21.408189 25.433418 21.423795 24.903908 21.248047 24.248047 L 20.337891 20.845703 z M 53.722656 21.035156 C 53.941039 21.066525 54.095932 21.251563 54.185547 21.585938 C 54.252558 21.836142 54.253687 22.183767 54.1875 22.632812 C 54.11841 23.070973 53.938543 23.598944 53.648438 24.212891 C 53.366296 24.813004 53.032144 25.280091 52.644531 25.617188 C 52.267788 25.951298 51.969465 26.148713 51.751953 26.207031 C 51.371294 26.309078 51.115513 26.11426 50.984375 25.625 L 50.982422 25.623047 C 50.807581 24.970474 50.970432 24.13611 51.466797 23.117188 C 51.748939 22.516923 52.098252 22.040117 52.515625 21.683594 C 52.933006 21.327184 53.255986 21.115878 53.484375 21.054688 C 53.57138 21.031349 53.649862 21.0247 53.722656 21.035156 z M 18.978516 21.705078 C 19.218873 21.69211 19.435827 21.762692 19.628906 21.914062 C 19.890941 22.116267 20.085228 22.446345 20.208984 22.908203 C 20.332726 23.370061 20.329172 23.754519 20.203125 24.060547 C 20.08184 24.365177 19.851575 24.562719 19.509766 24.654297 C 19.167983 24.745761 18.868771 24.688155 18.611328 24.486328 C 18.353867 24.28299 18.162819 23.952093 18.039062 23.490234 C 17.915321 23.028376 17.913833 22.644625 18.035156 22.339844 C 18.156441 22.035214 18.388663 21.837672 18.730469 21.746094 C 18.815914 21.723228 18.898396 21.709401 18.978516 21.705078 z M 14.929688 22.234375 C 14.807194 22.244627 14.68126 22.265821 14.550781 22.300781 C 13.968813 22.456876 13.554758 22.767452 13.308594 23.234375 C 13.065797 23.69544 13.027716 24.244185 13.197266 24.876953 C 13.363111 25.495889 13.676019 25.937436 14.132812 26.201172 C 14.594221 26.463849 15.133037 26.511246 15.751953 26.345703 C 15.996753 26.279939 16.232443 26.189494 16.458984 26.074219 C 16.685529 25.958943 16.901714 25.819715 17.105469 25.65625 L 16.945312 25.060547 C 16.751158 25.241208 16.544918 25.391707 16.330078 25.513672 C 16.119861 25.634239 15.891989 25.729977 15.642578 25.796875 C 15.222268 25.909505 14.86065 25.881521 14.558594 25.714844 C 14.261183 25.547033 14.039828 25.247764 13.894531 24.816406 L 16.832031 24.029297 L 16.748047 23.716797 C 16.593351 23.139474 16.317776 22.725494 15.923828 22.474609 C 15.627443 22.282987 15.297167 22.203619 14.929688 22.234375 z M 9.65625 22.421875 C 9.4192321 22.418757 9.1530223 22.455786 8.8574219 22.535156 L 7.2792969 22.957031 L 8.6660156 28.132812 L 9.3710938 27.943359 L 8.7851562 25.761719 L 9.5488281 25.556641 C 9.8259582 25.482184 10.057436 25.479285 10.244141 25.548828 C 10.435487 25.616482 10.664725 25.804178 10.929688 26.109375 L 11.947266 27.253906 L 12.697266 27.052734 L 11.611328 25.830078 C 11.385547 25.57874 11.177959 25.387627 10.990234 25.259766 C 10.80712 25.130506 10.634787 25.062939 10.46875 25.052734 C 10.737456 24.891727 10.916939 24.68366 11.007812 24.431641 C 11.102074 24.173877 11.106147 23.883885 11.019531 23.560547 C 10.885876 23.061763 10.63711 22.726165 10.279297 22.554688 C 10.100391 22.468892 9.8932679 22.424993 9.65625 22.421875 z M 15.146484 22.804688 C 15.286227 22.823349 15.41848 22.872558 15.541016 22.951172 C 15.786042 23.1084 15.958477 23.357235 16.060547 23.701172 L 13.789062 24.316406 C 13.717743 23.939587 13.762455 23.622721 13.921875 23.367188 C 14.085755 23.110558 14.34553 22.935126 14.701172 22.839844 C 14.858211 22.797702 15.006742 22.786026 15.146484 22.804688 z M 9.4785156 23.052734 C 9.6171757 23.056656 9.7378858 23.085947 9.84375 23.138672 C 10.05549 23.245255 10.203473 23.449276 10.285156 23.753906 C 10.365619 24.054379 10.341731 24.306994 10.212891 24.509766 C 10.082822 24.707813 9.8456931 24.853583 9.5039062 24.945312 L 8.6308594 25.177734 L 8.140625 23.349609 L 9.0136719 23.115234 C 9.1845613 23.069502 9.3398555 23.048813 9.4785156 23.052734 z M 46.660156 23.457031 C 46.750004 23.464968 46.839085 23.490242 46.925781 23.53125 C 47.216729 23.616289 47.399826 23.803911 47.478516 24.097656 C 47.554295 24.380365 47.512646 24.765792 47.351562 25.251953 C 47.243959 25.024426 47.032202 24.954401 46.716797 25.039062 C 46.401395 25.123724 46.128154 25.341738 45.896484 25.695312 C 45.577228 26.200522 45.468295 26.642763 45.570312 27.023438 C 45.599415 27.132288 45.687931 27.202186 45.835938 27.232422 C 45.885412 27.24376 45.91975 27.244014 45.941406 27.240234 C 45.605255 27.551667 45.335563 27.735646 45.128906 27.791016 C 44.922279 27.846575 44.718848 27.853382 44.521484 27.814453 C 44.33213 27.760406 44.208709 27.625904 44.150391 27.408203 C 44.0892 27.17992 44.069094 26.951608 44.089844 26.724609 C 44.117434 26.087759 44.339114 25.434349 44.753906 24.763672 C 45.179583 24.090084 45.723283 23.664117 46.386719 23.486328 L 46.386719 23.482422 C 46.479166 23.457666 46.570309 23.449094 46.660156 23.457031 z M 39.484375 23.560547 C 39.414588 23.561061 39.346506 23.57041 39.28125 23.587891 L 39.28125 23.585938 C 39.020236 23.655859 38.820884 23.808411 38.685547 24.042969 C 38.558177 24.263693 38.291964 24.852462 37.884766 25.8125 C 37.477576 26.772576 37.068732 27.554713 36.658203 28.154297 C 36.567646 28.294895 36.533321 28.408787 36.556641 28.496094 C 36.597422 28.648409 36.809243 28.392453 37.191406 27.730469 C 36.036485 31.163981 35.586302 33.354539 35.839844 34.300781 C 35.950584 34.714035 36.22076 35.025053 36.650391 35.236328 L 36.703125 35.238281 C 36.743528 35.215604 36.745306 35.18119 36.708984 35.132812 C 36.664688 35.098797 36.634649 35.045855 36.617188 34.980469 C 36.436488 34.306163 37.087609 31.930479 38.570312 27.849609 C 38.501979 28.334183 38.513336 28.74486 38.603516 29.082031 C 38.693846 29.419165 38.891577 29.640052 39.199219 29.744141 C 39.380636 29.812172 39.590808 29.815071 39.830078 29.751953 C 40.06936 29.687701 40.34397 29.520274 40.65625 29.25 C 41.219252 28.784362 41.692442 28.150794 42.072266 27.349609 C 42.584116 26.303965 42.738408 25.399566 42.535156 24.638672 L 42.535156 24.636719 C 42.438854 24.279175 42.268459 24.063229 42.027344 23.988281 C 41.782808 23.902108 41.55822 23.885847 41.351562 23.941406 C 41.144936 23.996965 40.924264 24.109533 40.689453 24.277344 C 40.208988 24.615989 39.773721 25.099224 39.382812 25.728516 C 39.762436 24.752528 40.02626 24.104489 40.173828 23.785156 C 39.923416 23.633786 39.693735 23.559006 39.484375 23.560547 z M 41.550781 24.296875 C 41.769164 24.328242 41.924057 24.511357 42.013672 24.845703 C 42.080683 25.095908 42.081812 25.445486 42.015625 25.894531 C 41.946535 26.33273 41.766668 26.860663 41.476562 27.474609 C 41.194421 28.074685 40.85832 28.541848 40.470703 28.878906 C 40.09396 29.213016 39.79759 29.41047 39.580078 29.46875 C 39.199419 29.570797 38.943638 29.376092 38.8125 28.886719 L 38.8125 28.884766 C 38.637659 28.23223 38.7966 27.397829 39.292969 26.378906 C 39.57511 25.778642 39.926377 25.301835 40.34375 24.945312 C 40.761131 24.588903 41.082154 24.377597 41.310547 24.316406 C 41.397552 24.293068 41.477987 24.286419 41.550781 24.296875 z M 2.2207031 24.326172 C 2.1501159 24.32339 2.0785779 24.344087 2.0078125 24.349609 A 30.999057 30.999057 0 0 0 1.9023438 24.763672 C 2.3009983 24.692544 2.6943144 24.773561 3.078125 25.027344 C 3.50454 25.308163 3.7866367 25.711717 3.9277344 26.238281 C 4.0680418 26.761935 4.0241833 27.254523 3.796875 27.716797 C 3.5687767 28.176085 3.2337281 28.464816 2.7890625 28.583984 C 2.338547 28.704551 1.8988821 28.622111 1.4746094 28.337891 C 1.4011634 28.288624 1.3383784 28.230337 1.2734375 28.173828 A 30.999057 30.999057 0 0 0 1.21875 28.529297 C 1.3803765 28.668534 1.5655065 28.791056 1.7949219 28.882812 C 2.186871 29.035127 2.5551811 29.067649 2.8945312 28.976562 C 3.2660626 28.877161 3.5775644 28.68146 3.8320312 28.390625 C 4.0864653 28.099979 4.2544709 27.753529 4.3359375 27.355469 C 4.4195406 26.953667 4.4066174 26.548221 4.296875 26.138672 C 4.187915 25.732033 3.9971235 25.37745 3.7246094 25.074219 C 3.454993 24.769967 3.1372081 24.556176 2.7714844 24.431641 C 2.5882321 24.367956 2.4053109 24.333447 2.2207031 24.326172 z M 1.1542969 29.085938 A 30.999057 30.999057 0 0 0 1.0878906 30.416016 L 1.4199219 31.654297 L 1.8144531 31.548828 L 1.1542969 29.085938 z M 28.419922 31.433594 C 28.410473 31.429814 28.342655 31.441791 28.216797 31.476562 L 27.373047 31.703125 C 27.049482 31.591251 26.697906 31.583814 26.320312 31.683594 L 26.320312 31.685547 C 25.890894 31.800445 25.560295 32.028605 25.326172 32.369141 C 25.090065 32.702117 25.029495 33.079931 25.142578 33.501953 C 25.210005 33.75367 25.334208 33.966994 25.515625 34.140625 C 25.695039 34.306546 25.93601 34.420438 26.238281 34.482422 C 26.105695 34.668753 26.008317 34.82317 25.945312 34.943359 C 25.790125 35.223044 25.733728 35.4446 25.777344 35.607422 C 25.817029 35.755579 25.999229 35.871677 26.324219 35.958984 L 25.986328 36.574219 C 25.909528 36.761305 25.85037 36.93525 25.806641 37.097656 C 25.794924 37.172113 25.796626 37.237536 25.8125 37.296875 C 25.850295 37.437473 25.993288 37.551679 26.238281 37.636719 C 26.67592 37.789412 27.173636 37.789362 27.736328 37.638672 C 28.447095 37.448184 28.973918 37.086416 29.314453 36.550781 C 29.539184 36.204954 29.606851 35.866368 29.517578 35.533203 C 29.460016 35.318526 29.329583 35.150419 29.123047 35.03125 C 28.9219 34.902368 28.614799 34.870476 28.203125 34.933594 C 28.164158 34.936202 27.850535 35.006327 27.261719 35.148438 C 26.872851 35.236878 26.671096 35.285283 26.65625 35.289062 C 26.394556 35.319299 26.242772 35.260997 26.203125 35.111328 C 26.161475 34.95599 26.230187 34.752069 26.408203 34.498047 C 26.660978 34.494267 26.872675 34.466851 27.042969 34.421875 C 27.457587 34.310757 27.776655 34.101857 28.003906 33.794922 C 28.256794 33.465347 28.329768 33.10097 28.222656 32.701172 C 28.13739 32.382936 27.973142 32.137455 27.728516 31.964844 L 28.306641 31.810547 C 28.32894 31.802988 28.364211 31.79183 28.414062 31.769531 L 28.513672 31.744141 L 28.53125 31.712891 C 28.534228 31.664513 28.529613 31.616233 28.515625 31.564453 L 28.513672 31.5625 C 28.487971 31.466122 28.456961 31.423767 28.419922 31.433594 z M 26.628906 31.841797 C 26.740408 31.865608 26.848619 31.91748 26.953125 31.996094 C 27.231865 32.206991 27.429733 32.540976 27.552734 33 L 27.552734 33.001953 C 27.739216 33.697915 27.570594 34.114996 27.044922 34.255859 C 26.733942 34.339387 26.455206 34.244656 26.207031 33.96875 C 26.023119 33.756341 25.884245 33.476925 25.791016 33.128906 C 25.600565 32.418128 25.765087 31.992375 26.283203 31.853516 C 26.401672 31.821768 26.517404 31.817986 26.628906 31.841797 z M 60.484375 31.953125 L 60.087891 32.058594 L 61.84375 38.611328 L 62.240234 38.503906 L 61.642578 36.275391 C 61.597866 36.108336 61.590076 35.902802 61.619141 35.660156 C 61.650889 35.416377 61.708168 35.180211 61.791016 34.951172 C 61.876017 34.718353 61.990439 34.510159 62.138672 34.326172 C 62.289815 34.141353 62.454353 34.024626 62.626953 33.978516 C 62.725758 33.951956 62.819556 33.94338 62.910156 33.947266 A 30.999057 30.999057 0 0 0 62.929688 33.539062 C 62.800717 33.534275 62.667015 33.546656 62.527344 33.583984 C 62.258204 33.656173 62.015162 33.863094 61.796875 34.207031 C 61.578569 34.550968 61.443215 34.920715 61.386719 35.318359 L 60.484375 31.953125 z M 22.878906 32.65625 C 22.778484 32.652923 22.673557 32.665549 22.5625 32.695312 C 22.155286 32.804541 21.780709 33.22205 21.443359 33.947266 L 21.205078 33.058594 L 21.050781 33.099609 L 20.009766 33.880859 L 20.082031 33.978516 C 20.175764 33.913886 20.266207 33.871531 20.347656 33.849609 C 20.429105 33.826932 20.50078 33.825798 20.5625 33.849609 C 20.684541 33.919909 20.831318 34.27773 21.003906 34.921875 L 21.396484 36.388672 C 21.471848 36.669869 21.483257 36.881113 21.433594 37.021484 C 21.38189 37.154146 21.258493 37.247112 21.058594 37.300781 L 20.990234 37.318359 L 21.017578 37.419922 L 22.927734 36.908203 L 22.900391 36.806641 C 22.693084 36.8622 22.54683 36.882242 22.462891 36.865234 C 22.378947 36.846337 22.302683 36.797174 22.232422 36.712891 C 22.186916 36.661489 22.126183 36.496267 22.050781 36.214844 L 21.488281 34.115234 C 21.725711 33.639014 22.023525 33.353057 22.378906 33.257812 C 22.808329 33.142915 23.116225 33.437179 23.304688 34.140625 L 23.8125 36.039062 C 23.832531 36.113141 23.841292 36.159151 23.837891 36.175781 C 23.83071 36.296726 23.795994 36.401793 23.732422 36.490234 C 23.674217 36.569227 23.54796 36.634145 23.355469 36.685547 L 23.3125 36.697266 L 23.339844 36.796875 L 25.236328 36.289062 L 25.210938 36.189453 C 25.025854 36.238965 24.892961 36.250247 24.814453 36.222656 C 24.637155 36.182971 24.497697 35.971071 24.394531 35.585938 L 23.941406 33.896484 C 23.848165 33.54839 23.747472 33.294614 23.640625 33.132812 C 23.433242 32.825338 23.180174 32.66623 22.878906 32.65625 z M 14.099609 32.923828 L 13.988281 32.953125 C 14.012848 33.192747 13.937441 33.337144 13.759766 33.384766 C 13.693133 33.403663 13.567468 33.395471 13.384766 33.365234 C 12.995115 33.302872 12.644945 33.313713 12.333984 33.396484 L 12.333984 33.400391 C 11.88235 33.521336 11.529714 33.761837 11.277344 34.123047 C 11.006737 34.505044 10.931749 34.919036 11.050781 35.363281 C 11.167829 35.800119 11.458943 36.130889 11.923828 36.355469 C 12.150562 36.461296 12.594981 36.600574 13.259766 36.771484 C 13.855408 36.921532 14.212041 37.018028 14.328125 37.066406 C 14.730728 37.236107 14.975239 37.482394 15.060547 37.800781 C 15.141882 38.104277 15.083405 38.377995 14.886719 38.621094 C 14.697402 38.862228 14.445318 39.026024 14.126953 39.111328 C 13.816011 39.194478 13.507354 39.201914 13.203125 39.130859 C 12.872719 39.052623 12.606946 38.907811 12.408203 38.699219 C 12.264317 38.547282 12.100658 38.286598 11.914062 37.916016 L 11.802734 37.947266 L 12.324219 39.890625 L 12.435547 39.859375 C 12.41287 39.627312 12.479276 39.490831 12.634766 39.449219 C 12.716214 39.426542 12.907758 39.422382 13.212891 39.4375 C 13.486528 39.452618 13.686223 39.452745 13.810547 39.441406 C 13.94438 39.437627 14.103971 39.41084 14.289062 39.361328 C 14.829543 39.216572 15.224791 38.940825 15.472656 38.533203 C 15.725922 38.11617 15.794724 37.695422 15.681641 37.273438 C 15.626082 37.065941 15.516728 36.86187 15.351562 36.660156 C 15.166177 36.471558 14.961069 36.331397 14.738281 36.240234 C 14.513513 36.141589 14.083862 36.018495 13.449219 35.871094 C 12.663455 35.6927 12.155549 35.520734 11.927734 35.351562 C 11.760226 35.229862 11.653145 35.075822 11.603516 34.890625 C 11.532094 34.624168 11.587615 34.371943 11.769531 34.132812 C 11.931185 33.906797 12.147935 33.756841 12.421875 33.683594 C 12.695815 33.610271 12.978153 33.608318 13.267578 33.681641 C 13.829643 33.824507 14.243772 34.238397 14.513672 34.919922 L 14.625 34.888672 L 14.099609 32.923828 z M 18.0625 33.939453 C 17.930095 33.948666 17.795072 33.972537 17.65625 34.009766 C 17.330493 34.097073 17.043468 34.263996 16.792969 34.513672 C 16.549832 34.761231 16.387157 35.087223 16.304688 35.490234 C 16.222218 35.893245 16.229088 36.273517 16.324219 36.628906 C 16.471016 37.176787 16.762856 37.601141 17.201172 37.904297 C 17.667645 38.223667 18.172414 38.312762 18.712891 38.167969 C 19.075687 38.070835 19.376046 37.893639 19.617188 37.638672 C 19.863726 37.374105 20.022646 37.033011 20.09375 36.617188 C 20.17278 36.230958 20.165632 35.861211 20.070312 35.505859 C 19.921512 34.950571 19.619104 34.52807 19.167969 34.236328 C 18.828126 34.011824 18.459714 33.911815 18.0625 33.939453 z M 17.820312 34.232422 C 18.053237 34.226558 18.276567 34.308216 18.494141 34.474609 C 18.916197 34.805696 19.223643 35.322021 19.412109 36.025391 C 19.691832 37.069334 19.498366 37.68083 18.832031 37.859375 C 18.395216 37.97654 17.987158 37.803882 17.609375 37.341797 C 17.322584 36.982364 17.113387 36.554657 16.980469 36.058594 C 16.784122 35.325743 16.836814 34.819503 17.142578 34.539062 C 17.257476 34.405267 17.406309 34.3152 17.583984 34.267578 C 17.663572 34.246224 17.742671 34.234377 17.820312 34.232422 z M 28.886719 35.496094 C 29.121519 35.508389 29.262341 35.605785 29.310547 35.78125 C 29.392789 36.091549 29.262517 36.374671 28.919922 36.632812 C 28.670322 36.826702 28.364742 36.971226 28.001953 37.068359 C 27.676196 37.155666 27.366029 37.20155 27.072266 37.201172 C 26.618507 37.197392 26.358438 37.070329 26.292969 36.826172 C 26.235444 36.611495 26.310019 36.310221 26.515625 35.921875 L 26.515625 35.919922 C 26.862737 35.882127 27.370762 35.782794 28.041016 35.619141 C 28.226137 35.569629 28.420647 35.53364 28.621094 35.511719 C 28.720033 35.497073 28.808452 35.491995 28.886719 35.496094 z M 53.748047 37.212891 C 53.521054 37.205662 53.289855 37.233946 53.054688 37.296875 L 50.236328 38.052734 L 50.304688 38.304688 C 50.779544 38.162955 51.056442 38.140391 51.134766 38.238281 C 51.16538 38.276454 51.193666 38.33923 51.216797 38.425781 L 52.359375 42.6875 C 52.383186 42.776697 52.388796 42.843318 52.380859 42.888672 C 52.359694 43.004325 52.185229 43.106872 51.855469 43.195312 C 51.904111 43.183974 51.828793 43.203197 51.630859 43.251953 L 51.697266 43.5 C 51.887338 43.430835 52.05041 43.376127 52.185547 43.339844 L 53.505859 42.986328 C 53.670722 42.942108 53.853546 42.902337 54.052734 42.867188 L 53.986328 42.621094 C 53.501203 42.756779 53.221422 42.778145 53.144531 42.685547 C 53.113917 42.647374 53.085631 42.584598 53.0625 42.498047 L 52.560547 40.625 L 53.917969 40.261719 C 54.358567 40.143797 54.72946 39.898859 55.027344 39.529297 C 55.350456 39.124056 55.453068 38.707152 55.337891 38.277344 C 55.217664 37.828638 54.911012 37.516751 54.417969 37.341797 C 54.198767 37.264317 53.97504 37.220119 53.748047 37.212891 z M 53.5 37.527344 C 53.6734 37.532777 53.823717 37.569759 53.951172 37.640625 C 54.208029 37.777444 54.395109 38.064787 54.511719 38.5 C 54.734068 39.329833 54.422212 39.859241 53.576172 40.085938 L 52.474609 40.380859 L 51.896484 38.222656 C 51.858084 38.079412 51.859194 37.981467 51.900391 37.929688 C 51.929493 37.887357 52.014921 37.84872 52.158203 37.810547 L 52.158203 37.808594 L 52.912109 37.607422 C 53.131054 37.548839 53.3266 37.521911 53.5 37.527344 z M 46.878906 38.660156 C 46.792393 38.682833 46.747163 38.751219 46.738281 38.869141 L 46.357422 44.085938 C 46.330965 44.473188 46.082324 44.732396 45.613281 44.863281 L 45.679688 45.111328 C 46.045432 44.994919 46.312873 44.914117 46.480469 44.869141 C 46.58588 44.842684 46.896665 44.768249 47.412109 44.648438 L 47.345703 44.400391 C 47.197054 44.440076 47.056028 44.443857 46.925781 44.412109 C 46.76568 44.378094 46.667785 44.290297 46.630859 44.152344 C 46.607048 44.063147 46.60875 43.860411 46.636719 43.542969 C 46.659396 43.325268 46.684241 43.106335 46.707031 42.888672 L 48.679688 42.361328 C 48.825048 42.568446 48.970599 42.773892 49.115234 42.978516 C 49.33645 43.295996 49.457501 43.493916 49.478516 43.572266 C 49.521867 43.734029 49.323304 43.873232 48.884766 43.988281 L 48.951172 44.234375 C 49.146649 44.163698 49.397675 44.087497 49.703125 44.005859 C 50.319422 43.840694 50.802538 43.721697 51.150391 43.646484 L 51.082031 43.396484 C 50.827216 43.472453 50.663952 43.510585 50.591797 43.511719 C 50.411324 43.519278 50.272792 43.448497 50.171875 43.298828 L 47.109375 38.769531 C 47.042591 38.671641 46.965382 38.637101 46.878906 38.660156 z M 46.927734 39.775391 L 48.523438 42.132812 L 46.732422 42.613281 L 46.927734 39.775391 z M 3.4335938 39.953125 L 2.1464844 40.298828 A 30.999057 30.999057 0 0 0 2.2675781 40.662109 L 3.0078125 40.464844 L 2.5234375 41.435547 A 30.999057 30.999057 0 0 0 2.6875 41.931641 L 3.5195312 40.279297 L 3.4335938 39.953125 z M 41.34375 40.527344 C 41.1033 40.530509 40.85866 40.56352 40.611328 40.628906 L 38.105469 41.302734 L 38.173828 41.554688 C 38.660147 41.412577 38.93928 41.395812 39.011719 41.503906 C 39.041199 41.548127 39.064444 41.606743 39.083984 41.679688 L 40.230469 45.958984 C 40.252768 46.042512 40.260268 46.104658 40.251953 46.150391 C 40.231544 46.257351 40.052722 46.358888 39.714844 46.449219 L 39.605469 46.478516 C 39.550817 46.489854 39.51629 46.498174 39.5 46.501953 L 39.566406 46.748047 C 39.761883 46.67737 39.952167 46.618249 40.138672 46.568359 L 41.308594 46.253906 C 41.495113 46.204016 41.693833 46.161661 41.898438 46.125 L 41.832031 45.876953 C 41.342223 46.016796 41.061492 46.042322 40.994141 45.953125 C 40.962771 45.912306 40.93703 45.853627 40.916016 45.775391 L 40.378906 43.767578 L 41.298828 43.519531 C 41.998925 43.332067 42.450777 43.619259 42.654297 44.378906 L 42.699219 44.541016 C 42.716227 44.614716 42.728832 44.667975 42.738281 44.703125 C 42.855598 45.141021 43.052144 45.430861 43.328125 45.574219 C 43.624667 45.729557 43.989384 45.750419 44.421875 45.634766 C 44.648949 45.573915 44.808324 45.431221 44.902344 45.208984 C 44.989878 45.006024 45.003693 44.789082 44.941406 44.556641 C 44.917595 44.467444 44.871535 44.431833 44.806641 44.449219 C 44.75539 44.464337 44.735334 44.511924 44.744141 44.599609 C 44.789797 45.094387 44.675377 45.379953 44.402344 45.453125 C 44.167182 45.516243 43.950186 45.344014 43.751953 44.939453 C 43.657956 44.718351 43.564738 44.498371 43.470703 44.277344 C 43.351157 43.993501 43.23995 43.790274 43.134766 43.667969 C 42.88475 43.372788 42.514631 43.20642 42.027344 43.171875 C 42.368371 42.984788 42.640077 42.755178 42.839844 42.484375 C 43.084795 42.155178 43.162584 41.827773 43.074219 41.498047 C 42.953274 41.04662 42.613668 40.751246 42.054688 40.611328 C 41.821536 40.552179 41.5842 40.524178 41.34375 40.527344 z M 41.191406 40.826172 C 41.74342 40.83489 42.098868 41.13195 42.255859 41.71875 C 42.468798 42.513471 42.11555 43.033779 41.199219 43.279297 L 40.310547 43.517578 L 39.763672 41.472656 C 39.725272 41.329412 39.726381 41.231467 39.767578 41.179688 C 39.79668 41.136979 39.8841 41.09872 40.027344 41.060547 L 40.574219 40.912109 C 40.801951 40.85107 41.007402 40.823266 41.191406 40.826172 z M 31.140625 41.226562 C 30.950893 41.277208 30.805431 41.386184 30.707031 41.556641 C 30.614433 41.716893 30.42099 42.147851 30.125 42.845703 C 29.829025 43.543555 29.530823 44.111058 29.232422 44.546875 C 29.219571 44.565773 29.21648 44.579956 29.207031 44.599609 C 28.70415 45.348485 28.1731 45.861376 27.607422 46.113281 C 27.876486 45.821124 28.074444 45.549322 28.201172 45.294922 C 28.530482 44.68982 28.634576 44.157751 28.511719 43.699219 C 28.410049 43.31983 28.188157 43.099018 27.849609 43.037109 C 27.616564 42.989487 27.400775 42.992008 27.203125 43.044922 C 26.665544 43.188922 26.210145 43.528163 25.835938 44.060547 C 25.708038 44.247256 25.540385 44.51999 25.332031 44.880859 C 25.121587 45.233867 24.96395 45.486118 24.861328 45.640625 C 24.750853 45.797475 24.703934 45.905756 24.71875 45.960938 C 24.741805 46.046733 24.783731 46.041817 24.84375 45.949219 C 24.921646 45.8604 24.997015 45.751487 25.072266 45.621094 C 25.00465 45.969566 25.014633 46.306727 25.101562 46.630859 C 25.13966 46.77297 25.20589 46.890643 25.298828 46.984375 C 25.476768 47.174107 25.730469 47.223585 26.0625 47.134766 C 26.457782 47.028939 26.884149 46.77186 27.341797 46.361328 L 27.388672 46.349609 C 28.139702 46.148539 28.840919 45.52005 29.490234 44.464844 C 29.497038 44.453505 29.49197 44.444932 29.496094 44.433594 C 29.540503 44.362539 29.567387 44.333211 29.621094 44.240234 C 28.781604 46.73597 28.454378 48.32978 28.638672 49.017578 C 28.719138 49.318051 28.916191 49.545543 29.228516 49.699219 L 29.265625 49.699219 C 29.295105 49.684101 29.295988 49.658196 29.269531 49.623047 C 29.237405 49.59659 29.215824 49.561294 29.203125 49.513672 C 29.071786 49.023505 29.545315 47.294449 30.623047 44.328125 C 30.573384 44.680377 30.580985 44.977554 30.646484 45.222656 C 30.712135 45.46757 30.858366 45.627421 31.082031 45.703125 C 31.213899 45.752637 31.365148 45.754653 31.539062 45.707031 C 31.712996 45.660543 31.915606 45.540285 32.142578 45.34375 C 32.551818 45.005482 32.891878 44.54524 33.167969 43.962891 C 33.540328 43.202223 33.652204 42.545586 33.503906 41.992188 C 33.434023 41.7314 33.312353 41.572268 33.136719 41.517578 C 32.959005 41.455216 32.794737 41.446328 32.644531 41.488281 C 32.494333 41.528344 32.334754 41.60839 32.164062 41.730469 C 31.814834 41.976516 31.497036 42.32772 31.212891 42.785156 C 31.488872 42.075852 31.68183 41.605223 31.789062 41.373047 C 31.546379 41.226401 31.330365 41.179823 31.140625 41.230469 L 31.140625 41.226562 z M 32.791016 41.744141 C 32.949564 41.766942 33.061813 41.899366 33.126953 42.142578 C 33.175671 42.324373 33.175074 42.577897 33.126953 42.904297 C 33.076723 43.222911 32.947218 43.604532 32.736328 44.050781 C 32.531213 44.486939 32.2876 44.829154 32.005859 45.074219 C 31.732033 45.317242 31.515523 45.459622 31.357422 45.501953 C 31.080723 45.576032 30.894152 45.433892 30.798828 45.078125 C 30.671723 44.603794 30.789446 43.996533 31.150391 43.255859 C 31.355468 42.819589 31.608742 42.472091 31.912109 42.212891 C 32.215492 41.953615 32.451179 41.802298 32.617188 41.757812 C 32.680428 41.740899 32.738166 41.73654 32.791016 41.744141 z M 4.0976562 42.617188 C 3.9709627 42.651203 3.9290292 42.749212 3.9726562 42.912109 L 4.109375 43.417969 L 3.3007812 43.634766 A 30.999057 30.999057 0 0 0 3.4609375 43.990234 L 4.5800781 43.691406 L 4.3457031 42.814453 C 4.302076 42.651555 4.2183139 42.585062 4.0976562 42.617188 z M 27.65625 43.501953 C 27.721556 43.507622 27.786586 43.524451 27.849609 43.554688 C 28.061112 43.616672 28.194761 43.75314 28.251953 43.966797 C 28.307021 44.172403 28.275255 44.453255 28.158203 44.806641 C 28.079702 44.642609 27.927665 44.591115 27.699219 44.652344 C 27.469953 44.71395 27.269967 44.873927 27.101562 45.130859 C 26.8695 45.498229 26.79108 45.819004 26.865234 46.095703 C 26.8864 46.174695 26.951028 46.223795 27.058594 46.246094 C 27.094121 46.253653 27.118967 46.25378 27.134766 46.25 C 26.890419 46.476394 26.693182 46.610176 26.542969 46.650391 C 26.39277 46.690454 26.246956 46.695055 26.103516 46.664062 C 25.965903 46.624755 25.8744 46.527125 25.832031 46.369141 C 25.787546 46.203219 25.771991 46.036146 25.787109 45.871094 C 25.807141 45.408177 25.969969 44.932796 26.271484 44.445312 C 26.580914 43.955712 26.976743 43.648753 27.458984 43.519531 L 27.458984 43.521484 C 27.526184 43.502587 27.590944 43.496284 27.65625 43.501953 z M 22.595703 43.595703 C 22.488172 43.571951 22.385363 43.572809 22.291016 43.597656 C 22.102161 43.648882 21.957465 43.757814 21.859375 43.927734 C 21.766777 44.087986 21.573334 44.518945 21.277344 45.216797 C 20.981369 45.914649 20.683167 46.482151 20.384766 46.917969 C 20.319002 47.020394 20.295568 47.100944 20.3125 47.164062 C 20.34198 47.274803 20.495631 47.090547 20.773438 46.609375 C 19.933948 49.10511 19.606718 50.696967 19.791016 51.384766 C 19.871482 51.685238 20.068534 51.912731 20.380859 52.066406 L 20.417969 52.066406 C 20.447449 52.051288 20.450285 52.025384 20.423828 51.990234 C 20.391702 51.963778 20.368168 51.928481 20.355469 51.880859 C 20.22413 51.39073 20.697651 49.661637 21.775391 46.695312 C 21.725728 47.047564 21.733329 47.346695 21.798828 47.591797 C 21.864479 47.83671 22.008753 47.996562 22.232422 48.072266 C 22.36429 48.121777 22.517491 48.123794 22.691406 48.076172 C 22.86534 48.029684 23.065997 47.909426 23.292969 47.712891 C 23.702208 47.374623 24.044226 46.912428 24.320312 46.330078 C 24.692672 45.56941 24.8065 44.912773 24.658203 44.359375 C 24.58832 44.098588 24.464697 43.941409 24.289062 43.886719 C 24.111349 43.824357 23.947081 43.813516 23.796875 43.855469 C 23.646677 43.895532 23.487101 43.975578 23.316406 44.097656 C 22.967178 44.343703 22.649375 44.696861 22.365234 45.154297 C 22.641215 44.444993 22.83417 43.974364 22.941406 43.742188 C 22.820065 43.668865 22.703928 43.619609 22.595703 43.595703 z M 23.943359 44.113281 C 24.101908 44.136082 24.21416 44.270459 24.279297 44.513672 C 24.328015 44.695467 24.329371 44.948991 24.28125 45.275391 C 24.23102 45.594005 24.099562 45.975626 23.888672 46.421875 C 23.683557 46.858032 23.437991 47.198295 23.15625 47.443359 C 22.882423 47.686383 22.667871 47.830716 22.509766 47.873047 C 22.233066 47.947126 22.046495 47.804986 21.951172 47.449219 C 21.824066 46.974888 21.941789 46.367627 22.302734 45.626953 C 22.507812 45.190682 22.763039 44.843184 23.066406 44.583984 C 23.369789 44.324709 23.603519 44.173391 23.769531 44.128906 C 23.832772 44.111993 23.89051 44.105681 23.943359 44.113281 z M 57.660156 49.384766 C 57.655511 49.387088 57.651131 49.388276 57.646484 49.390625 C 57.440538 49.490405 57.231597 49.616775 57.019531 49.767578 L 57.115234 50.123047 A 30.999057 30.999057 0 0 0 57.660156 49.384766 z M 14.193359 49.535156 L 11.025391 50.382812 L 11.259766 51.253906 C 11.303393 51.416804 11.388935 51.479328 11.515625 51.445312 C 11.636286 51.411297 11.67449 51.316817 11.630859 51.154297 L 11.498047 50.65625 L 13.769531 50.046875 L 11.869141 53.853516 L 11.955078 54.177734 L 15.339844 53.271484 L 15.105469 52.394531 C 15.061853 52.231634 14.980018 52.166715 14.859375 52.199219 C 14.732685 52.233234 14.692712 52.331243 14.736328 52.494141 L 14.871094 53.001953 L 12.365234 53.673828 L 14.28125 49.861328 L 14.193359 49.535156 z M 54.529297 50.181641 C 54.426553 50.190694 54.319036 50.210187 54.207031 50.240234 C 53.939138 50.312045 53.715997 50.432303 53.539062 50.603516 C 53.362143 50.774728 53.230444 50.995049 53.144531 51.265625 L 52.984375 50.664062 L 52.337891 50.837891 L 53.314453 54.486328 A 30.999057 30.999057 0 0 0 53.865234 53.953125 L 53.433594 52.347656 C 53.332113 51.968948 53.351778 51.643359 53.492188 51.373047 C 53.632635 51.102811 53.873057 50.923609 54.214844 50.832031 C 54.501219 50.755307 54.742153 50.786002 54.933594 50.927734 C 55.125027 51.069467 55.270147 51.325788 55.369141 51.695312 L 55.501953 52.193359 A 30.999057 30.999057 0 0 0 56.017578 51.568359 L 56 51.503906 C 55.856454 50.96812 55.632094 50.593446 55.328125 50.382812 C 55.102686 50.220387 54.837528 50.154481 54.529297 50.181641 z M 46.050781 50.902344 L 45.416016 51.072266 L 45.632812 51.884766 L 46.267578 51.712891 L 46.050781 50.902344 z M 8.7675781 50.988281 L 7.7324219 51.265625 A 30.999057 30.999057 0 0 0 8.015625 51.587891 L 8.34375 51.5 L 8.1972656 51.794922 A 30.999057 30.999057 0 0 0 8.4609375 52.097656 L 8.8554688 51.314453 L 8.7675781 50.988281 z M 49.980469 51.408203 C 49.850975 51.418827 49.716688 51.443335 49.578125 51.480469 C 49.019258 51.630138 48.628414 51.927403 48.40625 52.373047 C 48.1887 52.817482 48.165178 53.356761 48.335938 53.994141 C 48.505487 54.626909 48.797141 55.084491 49.208984 55.365234 C 49.624218 55.640006 50.111054 55.702404 50.669922 55.552734 C 51.224171 55.404199 51.608634 55.108497 51.826172 54.664062 C 52.042474 54.215017 52.066034 53.673784 51.896484 53.041016 C 51.725688 52.403636 51.436002 51.946054 51.025391 51.669922 C 50.717438 51.462993 50.36895 51.376331 49.980469 51.408203 z M 49.96875 51.980469 C 50.209113 51.970299 50.431981 52.045488 50.634766 52.205078 C 50.905153 52.419755 51.102806 52.758845 51.226562 53.220703 C 51.350342 53.682599 51.347657 54.075414 51.220703 54.396484 C 51.093862 54.717744 50.86257 54.923341 50.525391 55.013672 C 50.178997 55.106648 49.869985 55.046645 49.599609 54.830078 C 49.333833 54.614267 49.137436 54.274358 49.013672 53.8125 C 48.888683 53.345993 48.891443 52.95517 49.019531 52.638672 C 49.146334 52.317412 49.380881 52.111109 49.722656 52.019531 C 49.806949 51.996949 49.888629 51.983859 49.96875 51.980469 z M 46.455078 52.414062 L 45.820312 52.583984 L 46.859375 56.462891 L 47.496094 56.292969 L 46.455078 52.414062 z M 44.466797 52.945312 L 43.832031 53.117188 L 43.990234 53.707031 C 43.794379 53.512008 43.578601 53.386393 43.345703 53.330078 C 43.112809 53.273763 42.85277 53.283406 42.566406 53.359375 C 42.086059 53.487879 41.749137 53.770786 41.554688 54.208984 C 41.360231 54.647221 41.343012 55.165209 41.503906 55.765625 C 41.664801 56.366079 41.939374 56.810752 42.328125 57.097656 C 42.715636 57.379987 43.148555 57.456629 43.628906 57.328125 C 43.915281 57.251401 44.14676 57.130009 44.320312 56.964844 C 44.492621 56.795143 44.615462 56.577419 44.6875 56.310547 L 44.771484 56.626953 C 44.890275 57.07033 44.874279 57.430319 44.724609 57.703125 C 44.57494 57.976007 44.2914 58.16862 43.871094 58.28125 C 43.68635 58.330762 43.493317 58.354649 43.294922 58.353516 C 43.097857 58.356993 42.893649 58.330698 42.681641 58.279297 L 42.847656 58.896484 C 43.052166 58.919162 43.257571 58.923195 43.464844 58.904297 C 43.672113 58.88162 43.888912 58.841722 44.115234 58.78125 C 44.720288 58.619108 45.12377 58.336819 45.328125 57.935547 C 45.537095 57.533027 45.554616 57.005509 45.378906 56.349609 L 44.466797 52.945312 z M 43.107422 53.802734 C 43.347779 53.789766 43.564731 53.860349 43.757812 54.011719 C 44.019885 54.213923 44.214134 54.545954 44.337891 55.007812 C 44.46167 55.469709 44.460032 55.852213 44.333984 56.158203 C 44.212699 56.462833 43.980443 56.662328 43.638672 56.753906 C 43.296889 56.845371 42.997681 56.787764 42.740234 56.585938 C 42.482773 56.382599 42.291729 56.049787 42.167969 55.587891 C 42.044227 55.126032 42.044697 54.744234 42.166016 54.439453 C 42.287301 54.134823 42.517604 53.935328 42.859375 53.84375 C 42.944821 53.820884 43.027303 53.807057 43.107422 53.802734 z M 39.058594 54.332031 C 38.936101 54.342283 38.810167 54.36543 38.679688 54.400391 C 38.097723 54.556485 37.683657 54.867062 37.4375 55.333984 C 37.194703 55.795087 37.158575 56.341879 37.328125 56.974609 C 37.493971 57.593545 37.804925 58.035093 38.261719 58.298828 C 38.723135 58.561127 39.2639 58.608903 39.882812 58.443359 C 40.127612 58.377596 40.36135 58.289104 40.587891 58.173828 C 40.814436 58.058553 41.030624 57.919324 41.234375 57.755859 L 41.074219 57.160156 C 40.880064 57.340818 40.675773 57.491354 40.460938 57.613281 C 40.25072 57.733848 40.020895 57.827634 39.771484 57.894531 C 39.351171 58.007161 38.98956 57.979177 38.6875 57.8125 C 38.390089 57.644689 38.170683 57.34542 38.025391 56.914062 L 40.962891 56.126953 L 40.878906 55.814453 C 40.72421 55.237092 40.448628 54.825066 40.054688 54.574219 C 39.7583 54.382597 39.426073 54.301275 39.058594 54.332031 z M 33.787109 54.519531 C 33.550091 54.516413 33.283882 54.555396 32.988281 54.634766 L 31.408203 55.056641 L 32.794922 60.230469 L 33.5 60.042969 L 32.916016 57.859375 L 33.677734 57.65625 C 33.954887 57.581793 34.186346 57.578894 34.373047 57.648438 C 34.564404 57.716091 34.793638 57.903788 35.058594 58.208984 L 36.078125 59.353516 L 36.826172 59.152344 L 35.740234 57.927734 C 35.514445 57.676396 35.308819 57.487236 35.121094 57.359375 C 34.937976 57.230115 34.763691 57.160595 34.597656 57.150391 C 34.866343 56.989383 35.045844 56.783269 35.136719 56.53125 C 35.23098 56.273486 35.235026 55.981504 35.148438 55.658203 C 35.014793 55.159343 34.767968 54.823783 34.410156 54.652344 C 34.231252 54.566548 34.024127 54.522649 33.787109 54.519531 z M 39.277344 54.902344 C 39.417086 54.921005 39.547388 54.970214 39.669922 55.048828 C 39.914949 55.206056 40.08934 55.454891 40.191406 55.798828 L 37.919922 56.416016 C 37.848602 56.039197 37.891361 55.722331 38.050781 55.466797 C 38.214662 55.210167 38.476385 55.032782 38.832031 54.9375 C 38.989071 54.895358 39.137602 54.883682 39.277344 54.902344 z M 33.607422 55.152344 C 33.746081 55.156265 33.868745 55.183604 33.974609 55.236328 C 34.186339 55.342911 34.332402 55.54847 34.414062 55.853516 C 34.494529 56.15361 34.470641 56.406603 34.341797 56.609375 C 34.211743 56.807422 33.974603 56.95124 33.632812 57.042969 L 32.759766 57.277344 L 32.269531 55.449219 L 33.142578 55.214844 C 33.313469 55.169111 33.468762 55.148422 33.607422 55.152344 z M 21.869141 56.132812 C 21.823111 56.126246 21.774846 56.129539 21.726562 56.142578 L 21.726562 56.144531 C 21.627123 56.170988 21.551402 56.229163 21.5 56.318359 C 21.451471 56.406422 21.440907 56.496994 21.466797 56.59375 C 21.493632 56.693152 21.550659 56.770108 21.636719 56.822266 C 21.724895 56.870644 21.818529 56.879531 21.917969 56.851562 C 22.017408 56.825106 22.09134 56.770586 22.140625 56.685547 C 22.189154 56.597484 22.200512 56.502123 22.173828 56.402344 C 22.147749 56.305588 22.090961 56.232664 22.001953 56.181641 C 21.958904 56.155562 21.915171 56.139379 21.869141 56.132812 z M 26.349609 56.423828 C 26.165001 56.416553 25.980688 56.436627 25.794922 56.486328 L 25.794922 56.488281 C 25.461416 56.577478 25.164532 56.791533 24.904297 57.130859 C 24.643283 57.467237 24.497622 57.803642 24.46875 58.140625 L 24.320312 57.587891 C 24.266983 57.38871 24.187379 57.199614 24.080078 57.021484 L 23.658203 57.134766 C 23.768981 57.255711 23.858354 57.441718 23.925781 57.693359 L 25.128906 62.1875 A 30.999057 30.999057 0 0 0 25.582031 62.302734 L 25.048828 60.308594 C 25.243285 60.601129 25.535976 60.826554 25.925781 60.982422 C 26.31773 61.134737 26.684085 61.165305 27.023438 61.074219 C 27.394965 60.974817 27.708423 60.779116 27.962891 60.488281 C 28.217328 60.197636 28.385337 59.851223 28.466797 59.453125 C 28.5504 59.051361 28.537492 58.645916 28.427734 58.236328 C 28.318771 57.829689 28.127961 57.477022 27.855469 57.173828 C 27.585837 56.869576 27.268066 56.655748 26.902344 56.53125 C 26.719093 56.467565 26.534218 56.431104 26.349609 56.423828 z M 17.035156 56.658203 L 16.640625 56.763672 L 17.314453 59.275391 A 30.999057 30.999057 0 0 0 17.800781 59.509766 L 17.035156 56.658203 z M 26.232422 56.832031 C 26.562456 56.81761 26.887218 56.916339 27.207031 57.126953 C 27.633445 57.407772 27.91554 57.809336 28.056641 58.335938 C 28.196937 58.859591 28.155073 59.352217 27.927734 59.814453 C 27.69964 60.273779 27.362634 60.564463 26.917969 60.683594 C 26.467453 60.804161 26.029743 60.72172 25.605469 60.4375 C 25.181198 60.152902 24.89891 59.747267 24.757812 59.220703 C 24.616723 58.694102 24.658788 58.203669 24.884766 57.748047 C 25.110706 57.292425 25.449875 57.005484 25.900391 56.884766 C 26.011557 56.855002 26.122411 56.836838 26.232422 56.832031 z M 22.302734 57.498047 L 21.908203 57.603516 L 22.990234 61.642578 A 30.999057 30.999057 0 0 0 23.443359 61.757812 L 22.302734 57.498047 z M 19.509766 58.240234 C 19.37278 58.232061 19.229275 58.247235 19.080078 58.287109 C 18.810938 58.359298 18.567896 58.568135 18.349609 58.912109 C 18.206798 59.137107 18.112557 59.377348 18.039062 59.625 A 30.999057 30.999057 0 0 0 18.316406 59.759766 C 18.32742 59.725983 18.329693 59.689718 18.341797 59.65625 C 18.426761 59.423431 18.543135 59.213246 18.691406 59.029297 C 18.84255 58.844478 19.003178 58.730082 19.175781 58.683594 C 19.357161 58.634838 19.526446 58.637359 19.681641 58.691406 C 19.838982 58.740162 19.972427 58.828023 20.078125 58.953125 C 20.183838 59.078605 20.270641 59.21017 20.339844 59.351562 C 20.411995 59.492161 20.468632 59.643869 20.511719 59.804688 L 20.792969 60.855469 A 30.999057 30.999057 0 0 0 21.251953 61.023438 L 20.898438 59.701172 C 20.810639 59.373487 20.684839 59.092697 20.521484 58.857422 C 20.361006 58.621201 20.154707 58.447018 19.902344 58.335938 C 19.777619 58.28 19.646751 58.248408 19.509766 58.240234 z "
       id="path1097"
       transform="matrix(0.26458333,0,0,0.26458333,0,280.06665)" />
    <g
       aria-label="hip-hip"
       style="font-style:normal;font-variant:normal;font-weight:normal;font-stretch:normal;font-size:2.46166945px;line-height:1.25;font-family:Sawasdee;-inkscape-font-specification:Sawasdee;letter-spacing:0px;word-spacing:0px;fill:#000000;fill-opacity:1;stroke:none;stroke-width:0.06154174"
       id="text891" />
    <g
       id="g1492"
       transform="translate(-20.358974,0.21946514)"
       style="opacity:0.631">
      <path
         inkscape:connector-curvature="0"
         id="path1426"
         d="m 27.090455,284.528 c -0.590562,0 -1.06653,0.47522 -1.06653,1.06579 v 0.16443 4.09571 a 1.53066,1.53066 0 0 0 -0.382664,-0.0508 1.53066,1.53066 0 0 0 -1.530661,1.53064 1.53066,1.53066 0 0 0 1.530661,1.53066 1.53066,1.53066 0 0 0 1.526922,-1.44844 h 0.0038 v -0.0822 -4.50977 h 4.59198 v 3.02994 a 1.53066,1.53066 0 0 0 -0.382665,-0.0508 1.53066,1.53066 0 0 0 -1.530661,1.53066 1.53066,1.53066 0 0 0 1.530661,1.53066 1.53066,1.53066 0 0 0 1.526925,-1.44844 h 0.0038 v -0.0822 -5.57555 -0.0821 -0.0821 c 0,-0.59057 -0.475222,-1.06578 -1.065783,-1.06578 z"
         style="fill:none;fill-opacity:1;stroke:#000000;stroke-width:0.1;stroke-linecap:round;stroke-linejoin:round;stroke-miterlimit:4;stroke-dasharray:none;stroke-opacity:0.01176471" />
      <path
         style="fill:none;fill-opacity:1;stroke:#000000;stroke-width:0.2;stroke-linecap:round;stroke-linejoin:round;stroke-miterlimit:4;stroke-dasharray:none;stroke-opacity:0.01176471"
         d="m 27.090455,284.528 c -0.590562,0 -1.06653,0.47522 -1.06653,1.06579 v 0.16443 4.09571 a 1.53066,1.53066 0 0 0 -0.382664,-0.0508 1.53066,1.53066 0 0 0 -1.530661,1.53064 1.53066,1.53066 0 0 0 1.530661,1.53066 1.53066,1.53066 0 0 0 1.526922,-1.44844 h 0.0038 v -0.0822 -4.50977 h 4.59198 v 3.02994 a 1.53066,1.53066 0 0 0 -0.382665,-0.0508 1.53066,1.53066 0 0 0 -1.530661,1.53066 1.53066,1.53066 0 0 0 1.530661,1.53066 1.53066,1.53066 0 0 0 1.526925,-1.44844 h 0.0038 v -0.0822 -5.57555 -0.0821 -0.0821 c 0,-0.59057 -0.475222,-1.06578 -1.065783,-1.06578 z"
         id="path1428"
         inkscape:connector-curvature="0" />
      <path
         inkscape:connector-curvature="0"
         id="path1430"
         d="m 27.090455,284.528 c -0.590562,0 -1.06653,0.47522 -1.06653,1.06579 v 0.16443 4.09571 a 1.53066,1.53066 0 0 0 -0.382664,-0.0508 1.53066,1.53066 0 0 0 -1.530661,1.53064 1.53066,1.53066 0 0 0 1.530661,1.53066 1.53066,1.53066 0 0 0 1.526922,-1.44844 h 0.0038 v -0.0822 -4.50977 h 4.59198 v 3.02994 a 1.53066,1.53066 0 0 0 -0.382665,-0.0508 1.53066,1.53066 0 0 0 -1.530661,1.53066 1.53066,1.53066 0 0 0 1.530661,1.53066 1.53066,1.53066 0 0 0 1.526925,-1.44844 h 0.0038 v -0.0822 -5.57555 -0.0821 -0.0821 c 0,-0.59057 -0.475222,-1.06578 -1.065783,-1.06578 z"
         style="fill:none;fill-opacity:1;stroke:#000000;stroke-width:0.30000001;stroke-linecap:round;stroke-linejoin:round;stroke-miterlimit:4;stroke-dasharray:none;stroke-opacity:0.01176471" />
      <path
         style="fill:none;fill-opacity:1;stroke:#000000;stroke-width:0.40000001;stroke-linecap:round;stroke-linejoin:round;stroke-miterlimit:4;stroke-dasharray:none;stroke-opacity:0.01176471"
         d="m 27.090455,284.528 c -0.590562,0 -1.06653,0.47522 -1.06653,1.06579 v 0.16443 4.09571 a 1.53066,1.53066 0 0 0 -0.382664,-0.0508 1.53066,1.53066 0 0 0 -1.530661,1.53064 1.53066,1.53066 0 0 0 1.530661,1.53066 1.53066,1.53066 0 0 0 1.526922,-1.44844 h 0.0038 v -0.0822 -4.50977 h 4.59198 v 3.02994 a 1.53066,1.53066 0 0 0 -0.382665,-0.0508 1.53066,1.53066 0 0 0 -1.530661,1.53066 1.53066,1.53066 0 0 0 1.530661,1.53066 1.53066,1.53066 0 0 0 1.526925,-1.44844 h 0.0038 v -0.0822 -5.57555 -0.0821 -0.0821 c 0,-0.59057 -0.475222,-1.06578 -1.065783,-1.06578 z"
         id="path1432"
         inkscape:connector-curvature="0" />
      <path
         inkscape:connector-curvature="0"
         id="path1434"
         d="m 27.090455,284.528 c -0.590562,0 -1.06653,0.47522 -1.06653,1.06579 v 0.16443 4.09571 a 1.53066,1.53066 0 0 0 -0.382664,-0.0508 1.53066,1.53066 0 0 0 -1.530661,1.53064 1.53066,1.53066 0 0 0 1.530661,1.53066 1.53066,1.53066 0 0 0 1.526922,-1.44844 h 0.0038 v -0.0822 -4.50977 h 4.59198 v 3.02994 a 1.53066,1.53066 0 0 0 -0.382665,-0.0508 1.53066,1.53066 0 0 0 -1.530661,1.53066 1.53066,1.53066 0 0 0 1.530661,1.53066 1.53066,1.53066 0 0 0 1.526925,-1.44844 h 0.0038 v -0.0822 -5.57555 -0.0821 -0.0821 c 0,-0.59057 -0.475222,-1.06578 -1.065783,-1.06578 z"
         style="fill:none;fill-opacity:1;stroke:#000000;stroke-width:0.5;stroke-linecap:round;stroke-linejoin:round;stroke-miterlimit:4;stroke-dasharray:none;stroke-opacity:0.01176471" />
      <path
         style="fill:none;fill-opacity:1;stroke:#000000;stroke-width:0.60000002;stroke-linecap:round;stroke-linejoin:round;stroke-miterlimit:4;stroke-dasharray:none;stroke-opacity:0.01176471"
         d="m 27.090455,284.528 c -0.590562,0 -1.06653,0.47522 -1.06653,1.06579 v 0.16443 4.09571 a 1.53066,1.53066 0 0 0 -0.382664,-0.0508 1.53066,1.53066 0 0 0 -1.530661,1.53064 1.53066,1.53066 0 0 0 1.530661,1.53066 1.53066,1.53066 0 0 0 1.526922,-1.44844 h 0.0038 v -0.0822 -4.50977 h 4.59198 v 3.02994 a 1.53066,1.53066 0 0 0 -0.382665,-0.0508 1.53066,1.53066 0 0 0 -1.530661,1.53066 1.53066,1.53066 0 0 0 1.530661,1.53066 1.53066,1.53066 0 0 0 1.526925,-1.44844 h 0.0038 v -0.0822 -5.57555 -0.0821 -0.0821 c 0,-0.59057 -0.475222,-1.06578 -1.065783,-1.06578 z"
         id="path1436"
         inkscape:connector-curvature="0" />
      <path
         inkscape:connector-curvature="0"
         id="path1438"
         d="m 27.090455,284.528 c -0.590562,0 -1.06653,0.47522 -1.06653,1.06579 v 0.16443 4.09571 a 1.53066,1.53066 0 0 0 -0.382664,-0.0508 1.53066,1.53066 0 0 0 -1.530661,1.53064 1.53066,1.53066 0 0 0 1.530661,1.53066 1.53066,1.53066 0 0 0 1.526922,-1.44844 h 0.0038 v -0.0822 -4.50977 h 4.59198 v 3.02994 a 1.53066,1.53066 0 0 0 -0.382665,-0.0508 1.53066,1.53066 0 0 0 -1.530661,1.53066 1.53066,1.53066 0 0 0 1.530661,1.53066 1.53066,1.53066 0 0 0 1.526925,-1.44844 h 0.0038 v -0.0822 -5.57555 -0.0821 -0.0821 c 0,-0.59057 -0.475222,-1.06578 -1.065783,-1.06578 z"
         style="fill:none;fill-opacity:1;stroke:#000000;stroke-width:0.69999999;stroke-linecap:round;stroke-linejoin:round;stroke-miterlimit:4;stroke-dasharray:none;stroke-opacity:0.01176471" />
      <path
         style="fill:none;fill-opacity:1;stroke:#000000;stroke-width:0.80000001;stroke-linecap:round;stroke-linejoin:round;stroke-miterlimit:4;stroke-dasharray:none;stroke-opacity:0.01176471"
         d="m 27.090455,284.528 c -0.590562,0 -1.06653,0.47522 -1.06653,1.06579 v 0.16443 4.09571 a 1.53066,1.53066 0 0 0 -0.382664,-0.0508 1.53066,1.53066 0 0 0 -1.530661,1.53064 1.53066,1.53066 0 0 0 1.530661,1.53066 1.53066,1.53066 0 0 0 1.526922,-1.44844 h 0.0038 v -0.0822 -4.50977 h 4.59198 v 3.02994 a 1.53066,1.53066 0 0 0 -0.382665,-0.0508 1.53066,1.53066 0 0 0 -1.530661,1.53066 1.53066,1.53066 0 0 0 1.530661,1.53066 1.53066,1.53066 0 0 0 1.526925,-1.44844 h 0.0038 v -0.0822 -5.57555 -0.0821 -0.0821 c 0,-0.59057 -0.475222,-1.06578 -1.065783,-1.06578 z"
         id="path1440"
         inkscape:connector-curvature="0" />
      <path
         inkscape:connector-curvature="0"
         id="path1442"
         d="m 27.090455,284.528 c -0.590562,0 -1.06653,0.47522 -1.06653,1.06579 v 0.16443 4.09571 a 1.53066,1.53066 0 0 0 -0.382664,-0.0508 1.53066,1.53066 0 0 0 -1.530661,1.53064 1.53066,1.53066 0 0 0 1.530661,1.53066 1.53066,1.53066 0 0 0 1.526922,-1.44844 h 0.0038 v -0.0822 -4.50977 h 4.59198 v 3.02994 a 1.53066,1.53066 0 0 0 -0.382665,-0.0508 1.53066,1.53066 0 0 0 -1.530661,1.53066 1.53066,1.53066 0 0 0 1.530661,1.53066 1.53066,1.53066 0 0 0 1.526925,-1.44844 h 0.0038 v -0.0822 -5.57555 -0.0821 -0.0821 c 0,-0.59057 -0.475222,-1.06578 -1.065783,-1.06578 z"
         style="fill:none;fill-opacity:1;stroke:#000000;stroke-width:0.89999998;stroke-linecap:round;stroke-linejoin:round;stroke-miterlimit:4;stroke-dasharray:none;stroke-opacity:0.01176471" />
      <path
         style="fill:none;fill-opacity:1;stroke:#000000;stroke-width:1;stroke-linecap:round;stroke-linejoin:round;stroke-miterlimit:4;stroke-dasharray:none;stroke-opacity:0.01176471"
         d="m 27.090455,284.528 c -0.590562,0 -1.06653,0.47522 -1.06653,1.06579 v 0.16443 4.09571 a 1.53066,1.53066 0 0 0 -0.382664,-0.0508 1.53066,1.53066 0 0 0 -1.530661,1.53064 1.53066,1.53066 0 0 0 1.530661,1.53066 1.53066,1.53066 0 0 0 1.526922,-1.44844 h 0.0038 v -0.0822 -4.50977 h 4.59198 v 3.02994 a 1.53066,1.53066 0 0 0 -0.382665,-0.0508 1.53066,1.53066 0 0 0 -1.530661,1.53066 1.53066,1.53066 0 0 0 1.530661,1.53066 1.53066,1.53066 0 0 0 1.526925,-1.44844 h 0.0038 v -0.0822 -5.57555 -0.0821 -0.0821 c 0,-0.59057 -0.475222,-1.06578 -1.065783,-1.06578 z"
         id="path1444"
         inkscape:connector-curvature="0" />
      <path
         inkscape:connector-curvature="0"
         id="path1446"
         d="m 27.090455,284.528 c -0.590562,0 -1.06653,0.47522 -1.06653,1.06579 v 0.16443 4.09571 a 1.53066,1.53066 0 0 0 -0.382664,-0.0508 1.53066,1.53066 0 0 0 -1.530661,1.53064 1.53066,1.53066 0 0 0 1.530661,1.53066 1.53066,1.53066 0 0 0 1.526922,-1.44844 h 0.0038 v -0.0822 -4.50977 h 4.59198 v 3.02994 a 1.53066,1.53066 0 0 0 -0.382665,-0.0508 1.53066,1.53066 0 0 0 -1.530661,1.53066 1.53066,1.53066 0 0 0 1.530661,1.53066 1.53066,1.53066 0 0 0 1.526925,-1.44844 h 0.0038 v -0.0822 -5.57555 -0.0821 -0.0821 c 0,-0.59057 -0.475222,-1.06578 -1.065783,-1.06578 z"
         style="fill:none;fill-opacity:1;stroke:#000000;stroke-width:1.20000005;stroke-linecap:round;stroke-linejoin:round;stroke-miterlimit:4;stroke-dasharray:none;stroke-opacity:0.01176471" />
      <path
         style="fill:none;fill-opacity:1;stroke:#000000;stroke-width:1.39999998;stroke-linecap:round;stroke-linejoin:round;stroke-miterlimit:4;stroke-dasharray:none;stroke-opacity:0.01176471"
         d="m 27.090455,284.528 c -0.590562,0 -1.06653,0.47522 -1.06653,1.06579 v 0.16443 4.09571 a 1.53066,1.53066 0 0 0 -0.382664,-0.0508 1.53066,1.53066 0 0 0 -1.530661,1.53064 1.53066,1.53066 0 0 0 1.530661,1.53066 1.53066,1.53066 0 0 0 1.526922,-1.44844 h 0.0038 v -0.0822 -4.50977 h 4.59198 v 3.02994 a 1.53066,1.53066 0 0 0 -0.382665,-0.0508 1.53066,1.53066 0 0 0 -1.530661,1.53066 1.53066,1.53066 0 0 0 1.530661,1.53066 1.53066,1.53066 0 0 0 1.526925,-1.44844 h 0.0038 v -0.0822 -5.57555 -0.0821 -0.0821 c 0,-0.59057 -0.475222,-1.06578 -1.065783,-1.06578 z"
         id="path1448"
         inkscape:connector-curvature="0" />
      <path
         inkscape:connector-curvature="0"
         id="path1450"
         d="m 27.090455,284.528 c -0.590562,0 -1.06653,0.47522 -1.06653,1.06579 v 0.16443 4.09571 a 1.53066,1.53066 0 0 0 -0.382664,-0.0508 1.53066,1.53066 0 0 0 -1.530661,1.53064 1.53066,1.53066 0 0 0 1.530661,1.53066 1.53066,1.53066 0 0 0 1.526922,-1.44844 h 0.0038 v -0.0822 -4.50977 h 4.59198 v 3.02994 a 1.53066,1.53066 0 0 0 -0.382665,-0.0508 1.53066,1.53066 0 0 0 -1.530661,1.53066 1.53066,1.53066 0 0 0 1.530661,1.53066 1.53066,1.53066 0 0 0 1.526925,-1.44844 h 0.0038 v -0.0822 -5.57555 -0.0821 -0.0821 c 0,-0.59057 -0.475222,-1.06578 -1.065783,-1.06578 z"
         style="fill:none;fill-opacity:1;stroke:#000000;stroke-width:1.60000002;stroke-linecap:round;stroke-linejoin:round;stroke-miterlimit:4;stroke-dasharray:none;stroke-opacity:0.01176471" />
      <path
         style="fill:none;fill-opacity:1;stroke:#000000;stroke-width:1.79999995;stroke-linecap:round;stroke-linejoin:round;stroke-miterlimit:4;stroke-dasharray:none;stroke-opacity:0.01176471"
         d="m 27.090455,284.528 c -0.590562,0 -1.06653,0.47522 -1.06653,1.06579 v 0.16443 4.09571 a 1.53066,1.53066 0 0 0 -0.382664,-0.0508 1.53066,1.53066 0 0 0 -1.530661,1.53064 1.53066,1.53066 0 0 0 1.530661,1.53066 1.53066,1.53066 0 0 0 1.526922,-1.44844 h 0.0038 v -0.0822 -4.50977 h 4.59198 v 3.02994 a 1.53066,1.53066 0 0 0 -0.382665,-0.0508 1.53066,1.53066 0 0 0 -1.530661,1.53066 1.53066,1.53066 0 0 0 1.530661,1.53066 1.53066,1.53066 0 0 0 1.526925,-1.44844 h 0.0038 v -0.0822 -5.57555 -0.0821 -0.0821 c 0,-0.59057 -0.475222,-1.06578 -1.065783,-1.06578 z"
         id="path1452"
         inkscape:connector-curvature="0" />
      <path
         inkscape:connector-curvature="0"
         id="path1454"
         d="m 27.090455,284.528 c -0.590562,0 -1.06653,0.47522 -1.06653,1.06579 v 0.16443 4.09571 a 1.53066,1.53066 0 0 0 -0.382664,-0.0508 1.53066,1.53066 0 0 0 -1.530661,1.53064 1.53066,1.53066 0 0 0 1.530661,1.53066 1.53066,1.53066 0 0 0 1.526922,-1.44844 h 0.0038 v -0.0822 -4.50977 h 4.59198 v 3.02994 a 1.53066,1.53066 0 0 0 -0.382665,-0.0508 1.53066,1.53066 0 0 0 -1.530661,1.53066 1.53066,1.53066 0 0 0 1.530661,1.53066 1.53066,1.53066 0 0 0 1.526925,-1.44844 h 0.0038 v -0.0822 -5.57555 -0.0821 -0.0821 c 0,-0.59057 -0.475222,-1.06578 -1.065783,-1.06578 z"
         style="fill:none;fill-opacity:1;stroke:#000000;stroke-width:2;stroke-linecap:round;stroke-linejoin:round;stroke-miterlimit:4;stroke-dasharray:none;stroke-opacity:0.01176471" />
      <path
         style="fill:none;fill-opacity:1;stroke:#000000;stroke-width:2.20000005;stroke-linecap:round;stroke-linejoin:round;stroke-miterlimit:4;stroke-dasharray:none;stroke-opacity:0.01176471"
         d="m 27.090455,284.528 c -0.590562,0 -1.06653,0.47522 -1.06653,1.06579 v 0.16443 4.09571 a 1.53066,1.53066 0 0 0 -0.382664,-0.0508 1.53066,1.53066 0 0 0 -1.530661,1.53064 1.53066,1.53066 0 0 0 1.530661,1.53066 1.53066,1.53066 0 0 0 1.526922,-1.44844 h 0.0038 v -0.0822 -4.50977 h 4.59198 v 3.02994 a 1.53066,1.53066 0 0 0 -0.382665,-0.0508 1.53066,1.53066 0 0 0 -1.530661,1.53066 1.53066,1.53066 0 0 0 1.530661,1.53066 1.53066,1.53066 0 0 0 1.526925,-1.44844 h 0.0038 v -0.0822 -5.57555 -0.0821 -0.0821 c 0,-0.59057 -0.475222,-1.06578 -1.065783,-1.06578 z"
         id="path1456"
         inkscape:connector-curvature="0" />
      <path
         inkscape:connector-curvature="0"
         id="path1458"
         d="m 27.090455,284.528 c -0.590562,0 -1.06653,0.47522 -1.06653,1.06579 v 0.16443 4.09571 a 1.53066,1.53066 0 0 0 -0.382664,-0.0508 1.53066,1.53066 0 0 0 -1.530661,1.53064 1.53066,1.53066 0 0 0 1.530661,1.53066 1.53066,1.53066 0 0 0 1.526922,-1.44844 h 0.0038 v -0.0822 -4.50977 h 4.59198 v 3.02994 a 1.53066,1.53066 0 0 0 -0.382665,-0.0508 1.53066,1.53066 0 0 0 -1.530661,1.53066 1.53066,1.53066 0 0 0 1.530661,1.53066 1.53066,1.53066 0 0 0 1.526925,-1.44844 h 0.0038 v -0.0822 -5.57555 -0.0821 -0.0821 c 0,-0.59057 -0.475222,-1.06578 -1.065783,-1.06578 z"
         style="fill:none;fill-opacity:1;stroke:#000000;stroke-width:2.4000001;stroke-linecap:round;stroke-linejoin:round;stroke-miterlimit:4;stroke-dasharray:none;stroke-opacity:0.01176471" />
      <path
         style="fill:none;fill-opacity:1;stroke:#000000;stroke-width:2.5999999;stroke-linecap:round;stroke-linejoin:round;stroke-miterlimit:4;stroke-dasharray:none;stroke-opacity:0.01176471"
         d="m 27.090455,284.528 c -0.590562,0 -1.06653,0.47522 -1.06653,1.06579 v 0.16443 4.09571 a 1.53066,1.53066 0 0 0 -0.382664,-0.0508 1.53066,1.53066 0 0 0 -1.530661,1.53064 1.53066,1.53066 0 0 0 1.530661,1.53066 1.53066,1.53066 0 0 0 1.526922,-1.44844 h 0.0038 v -0.0822 -4.50977 h 4.59198 v 3.02994 a 1.53066,1.53066 0 0 0 -0.382665,-0.0508 1.53066,1.53066 0 0 0 -1.530661,1.53066 1.53066,1.53066 0 0 0 1.530661,1.53066 1.53066,1.53066 0 0 0 1.526925,-1.44844 h 0.0038 v -0.0822 -5.57555 -0.0821 -0.0821 c 0,-0.59057 -0.475222,-1.06578 -1.065783,-1.06578 z"
         id="path1460"
         inkscape:connector-curvature="0" />
      <path
         inkscape:connector-curvature="0"
         id="path1462"
         d="m 27.090455,284.528 c -0.590562,0 -1.06653,0.47522 -1.06653,1.06579 v 0.16443 4.09571 a 1.53066,1.53066 0 0 0 -0.382664,-0.0508 1.53066,1.53066 0 0 0 -1.530661,1.53064 1.53066,1.53066 0 0 0 1.530661,1.53066 1.53066,1.53066 0 0 0 1.526922,-1.44844 h 0.0038 v -0.0822 -4.50977 h 4.59198 v 3.02994 a 1.53066,1.53066 0 0 0 -0.382665,-0.0508 1.53066,1.53066 0 0 0 -1.530661,1.53066 1.53066,1.53066 0 0 0 1.530661,1.53066 1.53066,1.53066 0 0 0 1.526925,-1.44844 h 0.0038 v -0.0822 -5.57555 -0.0821 -0.0821 c 0,-0.59057 -0.475222,-1.06578 -1.065783,-1.06578 z"
         style="fill:none;fill-opacity:1;stroke:#000000;stroke-width:2.79999995;stroke-linecap:round;stroke-linejoin:round;stroke-miterlimit:4;stroke-dasharray:none;stroke-opacity:0.01176471" />
      <path
         style="fill:none;fill-opacity:1;stroke:#000000;stroke-width:3.0999999;stroke-linecap:round;stroke-linejoin:round;stroke-miterlimit:4;stroke-dasharray:none;stroke-opacity:0.01176471"
         d="m 27.090455,284.528 c -0.590562,0 -1.06653,0.47522 -1.06653,1.06579 v 0.16443 4.09571 a 1.53066,1.53066 0 0 0 -0.382664,-0.0508 1.53066,1.53066 0 0 0 -1.530661,1.53064 1.53066,1.53066 0 0 0 1.530661,1.53066 1.53066,1.53066 0 0 0 1.526922,-1.44844 h 0.0038 v -0.0822 -4.50977 h 4.59198 v 3.02994 a 1.53066,1.53066 0 0 0 -0.382665,-0.0508 1.53066,1.53066 0 0 0 -1.530661,1.53066 1.53066,1.53066 0 0 0 1.530661,1.53066 1.53066,1.53066 0 0 0 1.526925,-1.44844 h 0.0038 v -0.0822 -5.57555 -0.0821 -0.0821 c 0,-0.59057 -0.475222,-1.06578 -1.065783,-1.06578 z"
         id="path1464"
         inkscape:connector-curvature="0" />
      <path
         inkscape:connector-curvature="0"
         id="path1466"
         d="m 27.090455,284.528 c -0.590562,0 -1.06653,0.47522 -1.06653,1.06579 v 0.16443 4.09571 a 1.53066,1.53066 0 0 0 -0.382664,-0.0508 1.53066,1.53066 0 0 0 -1.530661,1.53064 1.53066,1.53066 0 0 0 1.530661,1.53066 1.53066,1.53066 0 0 0 1.526922,-1.44844 h 0.0038 v -0.0822 -4.50977 h 4.59198 v 3.02994 a 1.53066,1.53066 0 0 0 -0.382665,-0.0508 1.53066,1.53066 0 0 0 -1.530661,1.53066 1.53066,1.53066 0 0 0 1.530661,1.53066 1.53066,1.53066 0 0 0 1.526925,-1.44844 h 0.0038 v -0.0822 -5.57555 -0.0821 -0.0821 c 0,-0.59057 -0.475222,-1.06578 -1.065783,-1.06578 z"
         style="fill:none;fill-opacity:1;stroke:#000000;stroke-width:3.4000001;stroke-linecap:round;stroke-linejoin:round;stroke-miterlimit:4;stroke-dasharray:none;stroke-opacity:0.01176471" />
      <path
         style="fill:none;fill-opacity:1;stroke:#000000;stroke-width:3.70000005;stroke-linecap:round;stroke-linejoin:round;stroke-miterlimit:4;stroke-dasharray:none;stroke-opacity:0.01176471"
         d="m 27.090455,284.528 c -0.590562,0 -1.06653,0.47522 -1.06653,1.06579 v 0.16443 4.09571 a 1.53066,1.53066 0 0 0 -0.382664,-0.0508 1.53066,1.53066 0 0 0 -1.530661,1.53064 1.53066,1.53066 0 0 0 1.530661,1.53066 1.53066,1.53066 0 0 0 1.526922,-1.44844 h 0.0038 v -0.0822 -4.50977 h 4.59198 v 3.02994 a 1.53066,1.53066 0 0 0 -0.382665,-0.0508 1.53066,1.53066 0 0 0 -1.530661,1.53066 1.53066,1.53066 0 0 0 1.530661,1.53066 1.53066,1.53066 0 0 0 1.526925,-1.44844 h 0.0038 v -0.0822 -5.57555 -0.0821 -0.0821 c 0,-0.59057 -0.475222,-1.06578 -1.065783,-1.06578 z"
         id="path1468"
         inkscape:connector-curvature="0" />
    </g>
    <path
       inkscape:connector-curvature="0"
       id="rect843"
       d="m 6.5852467,284.528 c -0.5905619,0 -1.0665299,0.47522 -1.0665299,1.06579 v 0.16443 4.09571 a 1.53066,1.53066 0 0 0 -0.3826645,-0.0508 1.53066,1.53066 0 0 0 -1.5306611,1.53064 1.53066,1.53066 0 0 0 1.5306611,1.53066 1.53066,1.53066 0 0 0 1.5269225,-1.44844 h 0.00376 v -0.0822 -4.50977 h 4.5919802 v 3.02994 a 1.53066,1.53066 0 0 0 -0.382665,-0.0508 1.53066,1.53066 0 0 0 -1.5306614,1.53066 1.53066,1.53066 0 0 0 1.5306614,1.53066 1.53066,1.53066 0 0 0 1.526925,-1.44844 h 0.0038 v -0.0822 -5.57555 -0.0821 -0.0821 c 0,-0.59057 -0.475222,-1.06578 -1.065783,-1.06578 z"
       style="fill:#ffffff;fill-opacity:1;stroke-width:0.38266501" />
  </g>
</svg>
