<?xml version="1.0" encoding="UTF-8" standalone="no"?>
<!-- Created with Inkscape (http://www.inkscape.org/) -->

<svg
   xmlns:dc="http://purl.org/dc/elements/1.1/"
   xmlns:cc="http://creativecommons.org/ns#"
   xmlns:rdf="http://www.w3.org/1999/02/22-rdf-syntax-ns#"
   xmlns:svg="http://www.w3.org/2000/svg"
   xmlns="http://www.w3.org/2000/svg"
   xmlns:xlink="http://www.w3.org/1999/xlink"
   xmlns:sodipodi="http://sodipodi.sourceforge.net/DTD/sodipodi-0.dtd"
   xmlns:inkscape="http://www.inkscape.org/namespaces/inkscape"
   width="64"
   height="64"
   viewBox="0 0 16.933333 16.933334"
   version="1.1"
   id="svg8"
   sodipodi:docname="gpicview.svg"
   inkscape:version="0.92.4 (5da689c313, 2019-01-14)">
  <defs
     id="defs2">
    <linearGradient
       inkscape:collect="always"
       id="linearGradient826">
      <stop
         style="stop-color:#0069ec;stop-opacity:1"
         offset="0"
         id="stop822" />
      <stop
         style="stop-color:#e290ff;stop-opacity:1"
         offset="1"
         id="stop824" />
    </linearGradient>
    <linearGradient
       inkscape:collect="always"
       id="linearGradient818">
      <stop
         style="stop-color:#0086d2;stop-opacity:1"
         offset="0"
         id="stop814" />
      <stop
         style="stop-color:#9c00d2;stop-opacity:1"
         offset="1"
         id="stop816" />
    </linearGradient>
    <linearGradient
       inkscape:collect="always"
       xlink:href="#linearGradient818"
       id="linearGradient820"
       x1="8.385582"
       y1="296.68262"
       x2="8.385582"
       y2="280.71326"
       gradientUnits="userSpaceOnUse" />
    <linearGradient
       inkscape:collect="always"
       xlink:href="#linearGradient826"
       id="linearGradient828"
       x1="8.5188627"
       y1="297.07675"
       x2="8.5188627"
       y2="280.2793"
       gradientUnits="userSpaceOnUse" />
    <style
       type="text/css"
       id="current-color-scheme">
   .ColorScheme-Text { color:#5c616c; } .ColorScheme-Highlight { color:#5294e2; }
  </style>
    <style
       type="text/css"
       id="current-color-scheme-3">
   .ColorScheme-Text { color:#5c616c; } .ColorScheme-Highlight { color:#5294e2; }
  </style>
    <style
       type="text/css"
       id="current-color-scheme-7">
   .ColorScheme-Text { color:#5c616c; } .ColorScheme-Highlight { color:#5294e2; }
  </style>
    <style
       type="text/css"
       id="current-color-scheme-35">
   .ColorScheme-Text { color:#5c616c; } .ColorScheme-Highlight { color:#5294e2; }
  </style>
    <style
       type="text/css"
       id="current-color-scheme-9">
   .ColorScheme-Text { color:#5c616c; } .ColorScheme-Highlight { color:#5294e2; }
  </style>
    <style
       type="text/css"
       id="current-color-scheme-2">
   .ColorScheme-Text { color:#5c616c; } .ColorScheme-Highlight { color:#5294e2; }
  </style>
    <style
       type="text/css"
       id="current-color-scheme-0">
   .ColorScheme-Text { color:#5c616c; } .ColorScheme-Highlight { color:#5294e2; }
  </style>
    <style
       type="text/css"
       id="current-color-scheme-36">
   .ColorScheme-Text { color:#5c616c; } .ColorScheme-Highlight { color:#5294e2; }
  </style>
    <style
       type="text/css"
       id="current-color-scheme-6">
   .ColorScheme-Text { color:#5c616c; } .ColorScheme-Highlight { color:#5294e2; }
  </style>
    <style
       type="text/css"
       id="current-color-scheme-61">
   .ColorScheme-Text { color:#5c616c; } .ColorScheme-Highlight { color:#5294e2; }
  </style>
    <style
       type="text/css"
       id="current-color-scheme-79">
   .ColorScheme-Text { color:#5c616c; } .ColorScheme-Highlight { color:#5294e2; }
  </style>
    <style
       type="text/css"
       id="current-color-scheme-23">
   .ColorScheme-Text { color:#5c616c; } .ColorScheme-Highlight { color:#5294e2; }
  </style>
    <style
       type="text/css"
       id="current-color-scheme-92">
   .ColorScheme-Text { color:#5c616c; } .ColorScheme-Highlight { color:#5294e2; }
  </style>
    <style
       type="text/css"
       id="current-color-scheme-97">
   .ColorScheme-Text { color:#5c616c; } .ColorScheme-Highlight { color:#5294e2; }
  </style>
    <style
       type="text/css"
       id="current-color-scheme-612">
   .ColorScheme-Text { color:#5c616c; } .ColorScheme-Highlight { color:#5294e2; }
  </style>
    <style
       id="current-color-scheme-91"
       type="text/css">
   .ColorScheme-Text { color:#5c616c; } .ColorScheme-Highlight { color:#5294e2; }
  </style>
    <style
       id="current-color-scheme-3-2"
       type="text/css">
   .ColorScheme-Text { color:#5c616c; } .ColorScheme-Highlight { color:#5294e2; }
  </style>
    <style
       id="current-color-scheme-7-7"
       type="text/css">
   .ColorScheme-Text { color:#5c616c; } .ColorScheme-Highlight { color:#5294e2; }
  </style>
    <style
       id="current-color-scheme-35-0"
       type="text/css">
   .ColorScheme-Text { color:#5c616c; } .ColorScheme-Highlight { color:#5294e2; }
  </style>
    <style
       id="current-color-scheme-9-9"
       type="text/css">
   .ColorScheme-Text { color:#5c616c; } .ColorScheme-Highlight { color:#5294e2; }
  </style>
    <style
       id="current-color-scheme-2-3"
       type="text/css">
   .ColorScheme-Text { color:#5c616c; } .ColorScheme-Highlight { color:#5294e2; }
  </style>
    <style
       id="current-color-scheme-0-60"
       type="text/css">
   .ColorScheme-Text { color:#5c616c; } .ColorScheme-Highlight { color:#5294e2; }
  </style>
    <style
       id="current-color-scheme-36-6"
       type="text/css">
   .ColorScheme-Text { color:#5c616c; } .ColorScheme-Highlight { color:#5294e2; }
  </style>
    <style
       id="current-color-scheme-6-2"
       type="text/css">
   .ColorScheme-Text { color:#5c616c; } .ColorScheme-Highlight { color:#5294e2; }
  </style>
    <style
       id="current-color-scheme-61-6"
       type="text/css">
   .ColorScheme-Text { color:#5c616c; } .ColorScheme-Highlight { color:#5294e2; }
  </style>
    <style
       id="current-color-scheme-79-1"
       type="text/css">
   .ColorScheme-Text { color:#5c616c; } .ColorScheme-Highlight { color:#5294e2; }
  </style>
    <style
       id="current-color-scheme-23-8"
       type="text/css">
   .ColorScheme-Text { color:#5c616c; } .ColorScheme-Highlight { color:#5294e2; }
  </style>
    <style
       id="current-color-scheme-92-7"
       type="text/css">
   .ColorScheme-Text { color:#5c616c; } .ColorScheme-Highlight { color:#5294e2; }
  </style>
    <style
       id="current-color-scheme-97-9"
       type="text/css">
   .ColorScheme-Text { color:#5c616c; } .ColorScheme-Highlight { color:#5294e2; }
  </style>
    <style
       id="current-color-scheme-612-2"
       type="text/css">
   .ColorScheme-Text { color:#5c616c; } .ColorScheme-Highlight { color:#5294e2; }
  </style>
    <style
       type="text/css"
       id="current-color-scheme-1">
   .ColorScheme-Text { color:#5c616c; } .ColorScheme-Highlight { color:#5294e2; }
  </style>
    <style
       type="text/css"
       id="current-color-scheme-3-0">
   .ColorScheme-Text { color:#5c616c; } .ColorScheme-Highlight { color:#5294e2; }
  </style>
    <style
       type="text/css"
       id="current-color-scheme-7-6">
   .ColorScheme-Text { color:#5c616c; } .ColorScheme-Highlight { color:#5294e2; }
  </style>
    <style
       type="text/css"
       id="current-color-scheme-35-3">
   .ColorScheme-Text { color:#5c616c; } .ColorScheme-Highlight { color:#5294e2; }
  </style>
    <style
       type="text/css"
       id="current-color-scheme-9-2">
   .ColorScheme-Text { color:#5c616c; } .ColorScheme-Highlight { color:#5294e2; }
  </style>
    <style
       type="text/css"
       id="current-color-scheme-2-0">
   .ColorScheme-Text { color:#5c616c; } .ColorScheme-Highlight { color:#5294e2; }
  </style>
    <style
       type="text/css"
       id="current-color-scheme-0-6">
   .ColorScheme-Text { color:#5c616c; } .ColorScheme-Highlight { color:#5294e2; }
  </style>
    <style
       type="text/css"
       id="current-color-scheme-36-1">
   .ColorScheme-Text { color:#5c616c; } .ColorScheme-Highlight { color:#5294e2; }
  </style>
    <style
       type="text/css"
       id="current-color-scheme-6-5">
   .ColorScheme-Text { color:#5c616c; } .ColorScheme-Highlight { color:#5294e2; }
  </style>
    <style
       type="text/css"
       id="current-color-scheme-61-5">
   .ColorScheme-Text { color:#5c616c; } .ColorScheme-Highlight { color:#5294e2; }
  </style>
    <style
       type="text/css"
       id="current-color-scheme-79-4">
   .ColorScheme-Text { color:#5c616c; } .ColorScheme-Highlight { color:#5294e2; }
  </style>
    <style
       type="text/css"
       id="current-color-scheme-23-7">
   .ColorScheme-Text { color:#5c616c; } .ColorScheme-Highlight { color:#5294e2; }
  </style>
    <style
       type="text/css"
       id="current-color-scheme-92-6">
   .ColorScheme-Text { color:#5c616c; } .ColorScheme-Highlight { color:#5294e2; }
  </style>
    <style
       type="text/css"
       id="current-color-scheme-97-5">
   .ColorScheme-Text { color:#5c616c; } .ColorScheme-Highlight { color:#5294e2; }
  </style>
    <style
       type="text/css"
       id="current-color-scheme-612-6">
   .ColorScheme-Text { color:#5c616c; } .ColorScheme-Highlight { color:#5294e2; }
  </style>
  </defs>
  <sodipodi:namedview
     id="base"
     pagecolor="#ffffff"
     bordercolor="#666666"
     borderopacity="1.0"
     inkscape:pageopacity="0.0"
     inkscape:pageshadow="2"
     inkscape:zoom="4"
     inkscape:cx="43.128758"
     inkscape:cy="25.249234"
     inkscape:document-units="mm"
     inkscape:current-layer="layer1"
     showgrid="false"
     units="px"
     inkscape:window-width="1920"
     inkscape:window-height="1022"
     inkscape:window-x="0"
     inkscape:window-y="30"
     inkscape:window-maximized="1" />
  <metadata
     id="metadata5">
    <rdf:RDF>
      <cc:Work
         rdf:about="">
        <dc:format>image/svg+xml</dc:format>
        <dc:type
           rdf:resource="http://purl.org/dc/dcmitype/StillImage" />
        <dc:title></dc:title>
      </cc:Work>
    </rdf:RDF>
  </metadata>
  <g
     inkscape:label="Capa 1"
     inkscape:groupmode="layer"
     id="layer1"
     transform="translate(0,-280.06665)">
    <circle
       style="opacity:1;fill:url(#linearGradient820);fill-opacity:1;stroke:none;stroke-width:0.185;stroke-linecap:round;stroke-linejoin:round;stroke-miterlimit:4;stroke-dasharray:none;stroke-opacity:1"
       id="path815"
       cx="8.4691038"
       cy="288.53088"
       r="8.2018337" />
    <path
       style="color:#000000;font-style:normal;font-variant:normal;font-weight:normal;font-stretch:normal;font-size:medium;line-height:normal;font-family:sans-serif;font-variant-ligatures:normal;font-variant-position:normal;font-variant-caps:normal;font-variant-numeric:normal;font-variant-alternates:normal;font-feature-settings:normal;text-indent:0;text-align:start;text-decoration:none;text-decoration-line:none;text-decoration-style:solid;text-decoration-color:#000000;letter-spacing:normal;word-spacing:normal;text-transform:none;writing-mode:lr-tb;direction:ltr;text-orientation:mixed;dominant-baseline:auto;baseline-shift:baseline;text-anchor:start;white-space:normal;shape-padding:0;clip-rule:nonzero;display:inline;overflow:visible;visibility:visible;opacity:1;isolation:auto;mix-blend-mode:normal;color-interpolation:sRGB;color-interpolation-filters:linearRGB;solid-color:#000000;solid-opacity:1;vector-effect:none;fill:url(#linearGradient828);fill-opacity:1;fill-rule:nonzero;stroke:none;stroke-width:0.185;stroke-linecap:round;stroke-linejoin:round;stroke-miterlimit:4;stroke-dasharray:none;stroke-dashoffset:0;stroke-opacity:1;color-rendering:auto;image-rendering:auto;shape-rendering:auto;text-rendering:auto;enable-background:accumulate"
       d="m 8.46875,280.23633 c -4.5797384,0 -8.29492188,3.71518 -8.29492188,8.29492 10e-9,4.57974 3.71518348,8.29492 8.29492188,8.29492 4.579738,0 8.294922,-3.71518 8.294922,-8.29492 0,-4.09915 -2.976364,-7.50567 -6.8850044,-8.17548 -0.4582559,-0.0785 -0.9293264,-0.11944 -1.4099176,-0.11944 z m 0,0.18555 c 4.479757,0 8.109375,3.62961 8.109375,8.10937 0,4.47976 -3.629618,8.10937 -8.109375,8.10937 -4.479757,0 -8.109375,-3.62961 -8.109375,-8.10937 0,-4.47976 3.629618,-8.10937 8.109375,-8.10937 z"
       id="circle821"
       inkscape:connector-curvature="0"
       sodipodi:nodetypes="sssssssssss" />
    <g
       aria-label="hip-hip"
       style="font-style:normal;font-variant:normal;font-weight:normal;font-stretch:normal;font-size:2.46166945px;line-height:1.25;font-family:Sawasdee;-inkscape-font-specification:Sawasdee;letter-spacing:0px;word-spacing:0px;fill:#000000;fill-opacity:1;stroke:none;stroke-width:0.06154174"
       id="text891" />
    <path
       style="color:#5c616c;fill:#ffffff;fill-opacity:0.48790324;stroke-width:0.5565123"
       d="M 26.205078 1.5625 A 30.999057 30.999057 0 0 0 25.660156 1.6855469 L 25.744141 1.953125 L 25.828125 2.21875 L 26.359375 2.0507812 L 26.275391 1.7851562 L 26.205078 1.5625 z M 26.527344 2.5800781 L 25.998047 2.7480469 L 26.082031 3.0136719 L 26.25 3.5449219 L 26.333984 3.8105469 L 26.865234 3.640625 L 26.78125 3.375 L 26.611328 2.8457031 L 26.527344 2.5800781 z M 27.033203 4.1699219 L 26.503906 4.3398438 L 26.587891 4.6054688 L 26.322266 4.6894531 L 26.492188 5.21875 L 26.755859 5.1347656 L 27.021484 5.0507812 L 27.287109 4.9667969 L 27.203125 4.7011719 L 27.117188 4.4355469 L 27.033203 4.1699219 z M 41.228516 4.7539062 L 40.408203 6.7675781 L 41.46875 6.4296875 L 41.974609 8.0214844 L 42.505859 7.8535156 L 42 6.2617188 L 43.060547 5.9238281 L 41.228516 4.7539062 z M 40.408203 6.7675781 L 39.945312 5.3105469 A 0.19368684 0.39860114 17.008471 0 0 39.802734 5.2070312 A 0.19368684 0.39860114 17.008471 0 0 39.78125 5.2148438 A 0.19368684 0.39860114 17.008471 0 0 39.658203 5.3242188 L 34.384766 12.619141 A 0.19368684 0.39860114 17.008471 0 0 34.267578 13.164062 L 36.019531 18.673828 L 36.019531 18.675781 L 36.482422 20.130859 A 0.19368684 0.39860114 17.008471 0 0 36.769531 20.115234 L 42.042969 12.822266 A 0.19368684 0.39860114 17.008471 0 0 42.160156 12.277344 L 40.408203 6.7675781 z M 36.019531 18.675781 L 34.958984 19.011719 L 34.453125 17.421875 L 33.923828 17.589844 L 34.429688 19.179688 L 33.369141 19.517578 L 35.199219 20.6875 L 36.019531 18.675781 z M 25.792969 4.8574219 L 25.527344 4.9433594 L 24.996094 5.1113281 L 24.732422 5.1953125 L 24.900391 5.7246094 L 25.166016 5.640625 L 25.695312 5.4726562 L 25.960938 5.3886719 L 25.792969 4.8574219 z M 24.201172 5.3632812 L 23.935547 5.4492188 L 23.40625 5.6171875 L 23.140625 5.7011719 L 23.308594 6.2324219 L 23.574219 6.1464844 L 24.105469 5.9785156 L 24.369141 5.8945312 L 24.201172 5.3632812 z M 16.179688 5.6660156 C 16.045786 5.5821101 13.543994 9.5658967 12.955078 11.072266 C 12.86954 11.292234 12.875305 11.430126 12.794922 11.818359 C 12.944523 11.874296 13.243195 12.016467 13.521484 12.339844 C 13.774305 12.032568 13.913532 11.955692 14.03125 11.742188 C 14.800588 10.347353 16.306903 5.7448566 16.179688 5.6660156 z M 22.609375 5.8691406 L 22.345703 5.9550781 L 21.814453 6.1230469 L 21.548828 6.2070312 L 21.71875 6.7382812 L 21.982422 6.6523438 L 22.513672 6.484375 L 22.779297 6.4003906 L 22.609375 5.8691406 z M 39.625 6.1347656 L 39.708984 6.4003906 C 39.685551 6.3270678 39.641699 6.2922762 39.589844 6.2949219 C 39.538026 6.2974164 39.477661 6.3389133 39.421875 6.4160156 L 39.625 6.1347656 z M 21.019531 6.3769531 L 20.753906 6.4609375 L 20.224609 6.6289062 L 19.958984 6.7128906 L 20.126953 7.2441406 L 20.392578 7.1601562 L 20.921875 6.9902344 L 21.1875 6.90625 L 21.019531 6.3769531 z M 48.882812 8.96875 A 0.27779981 0.27779981 0 0 0 48.775391 8.9882812 A 0.27779981 0.27779981 0 0 0 48.601562 9.2949219 C 48.765103 10.328094 49.371601 11.575445 50.371094 12.464844 C 50.930041 12.962343 51.633421 13.313145 52.427734 13.457031 L 51.667969 13.699219 A 0.83476841 0.83476841 0 0 0 50.75 13.40625 A 0.83476841 0.83476841 0 0 0 50.207031 14.455078 A 0.83476841 0.83476841 0 0 0 51.255859 14.998047 A 0.83476841 0.83476841 0 0 0 51.835938 14.228516 L 52.943359 13.876953 L 53.279297 14.9375 L 56.462891 13.925781 L 56.125 12.865234 L 56.34375 12.794922 A 30.999057 30.999057 0 0 0 54.75 10.966797 L 52.267578 11.755859 L 52.652344 12.962891 C 51.90902 12.862355 51.272254 12.520551 50.742188 12.048828 C 49.854773 11.259247 49.290728 10.093595 49.150391 9.2070312 A 0.27779981 0.27779981 0 0 0 48.882812 8.96875 z M 12.568359 12.208984 C 12.504742 12.216543 12.445392 12.231922 12.386719 12.251953 C 11.97535 12.395953 11.691295 12.876468 11.652344 13.708984 C 11.607451 14.660556 11.153032 15.179413 11.037109 15.193359 C 11.701424 15.245895 13.68884 15.289099 13.392578 12.814453 C 13.025276 12.315178 12.568359 12.208984 12.568359 12.208984 z M 41.587891 12.308594 L 41.671875 12.572266 L 41.46875 12.851562 C 41.579917 12.697917 41.633719 12.455446 41.587891 12.308594 z M 34.958984 12.587891 C 34.847409 12.742095 34.795097 12.98613 34.841797 13.132812 L 36.720703 19.041016 C 36.767335 19.187661 36.894257 19.181107 37.005859 19.025391 L 36.802734 19.306641 L 34.755859 12.869141 L 34.958984 12.587891 z M 21.5 17.117188 C 21.102594 17.080488 20.692587 17.120337 20.291016 17.248047 C 18.684672 17.758926 17.792464 19.487312 18.302734 21.091797 C 18.813005 22.696282 20.540141 23.592872 22.146484 23.082031 C 22.757434 22.887764 23.273088 22.514628 23.640625 22.041016 L 26.21875 23.373047 A 0.55957387 0.55957387 0 1 0 26.720703 22.375 L 24.144531 21.041016 C 24.319021 20.468115 24.346286 19.840296 24.152344 19.230469 C 23.769641 18.027105 22.692217 17.227284 21.5 17.117188 z M 21.400391 18.222656 C 22.156809 18.290728 22.830109 18.800559 23.076172 19.574219 C 23.404235 20.605765 22.841373 21.69109 21.808594 22.019531 C 20.775812 22.347972 19.691345 21.785453 19.363281 20.753906 C 19.035196 19.722284 19.596125 18.637035 20.628906 18.308594 C 20.887101 18.226484 21.148251 18.199966 21.400391 18.222656 z M 10.783203 19.691406 L 10.75 20.644531 L 9.8066406 20.515625 L 10.457031 21.212891 L 9.6972656 21.789062 L 10.650391 21.822266 L 10.521484 22.767578 L 11.21875 22.117188 L 11.794922 22.875 L 11.826172 21.923828 L 12.771484 22.052734 L 12.121094 21.355469 L 12.878906 20.779297 L 11.927734 20.744141 L 12.054688 19.800781 L 11.359375 20.451172 L 10.783203 19.691406 z M 8.2988281 21.066406 C 8.3009515 21.453279 8.261996 21.844038 8.2089844 22.232422 C 7.9233163 24.162929 7.0086678 25.712997 7.2207031 26.806641 C 7.2225959 26.825538 7.2202261 26.843879 7.2226562 26.859375 L 7.234375 26.859375 C 7.2432947 26.89717 7.2462849 26.936373 7.2578125 26.972656 C 7.6727566 28.277387 9.1956807 28.957938 10.660156 28.492188 C 12.124634 28.026474 12.975491 26.589887 12.560547 25.285156 C 12.549057 25.247361 12.529972 25.214836 12.515625 25.179688 L 12.525391 25.171875 C 12.51768 25.156757 12.504333 25.142891 12.496094 25.128906 C 12.037423 24.113687 10.39518 23.375704 9.046875 21.964844 C 8.779258 21.678356 8.5205575 21.383471 8.2988281 21.066406 z M 55.251953 21.304688 L 53.130859 21.978516 L 53.298828 22.509766 L 53.689453 23.736328 L 51.271484 28.410156 L 50.044922 28.800781 L 49.513672 28.96875 L 50.189453 31.089844 L 52.310547 30.416016 L 52.140625 29.884766 L 51.751953 28.660156 L 54.169922 23.984375 L 55.927734 23.425781 L 55.251953 21.304688 z M 39.6875 26.257812 C 39.553591 26.173908 37.053759 30.157695 36.464844 31.664062 C 36.379305 31.884031 36.383117 32.021923 36.302734 32.410156 C 36.452336 32.466093 36.751008 32.610217 37.029297 32.933594 C 37.282117 32.626696 37.421346 32.547528 37.539062 32.333984 C 38.308401 30.939188 39.814715 26.336653 39.6875 26.257812 z M 25.595703 26.654297 L 20.292969 28.339844 L 19.957031 27.279297 L 18.900391 27.615234 L 18.816406 27.351562 L 18.730469 27.085938 L 18.201172 27.253906 L 18.285156 27.519531 L 18.369141 27.785156 L 17.306641 28.123047 L 17.566406 28.939453 C 16.755341 29.067957 15.949912 29.197279 15.228516 29.267578 C 14.173925 29.370003 13.297945 29.319191 12.867188 29.052734 A 0.27812814 0.27811703 72.3579 0 0 12.626953 29.025391 L 12.626953 29.023438 A 0.27812814 0.27811703 72.3579 0 0 12.574219 29.525391 C 13.233448 29.933617 14.190716 29.926593 15.283203 29.820312 C 16.057144 29.745101 16.898002 29.609602 17.736328 29.476562 L 18.148438 30.773438 L 19.212891 30.435547 L 19.71875 32.025391 L 18.654297 32.365234 L 18.898438 33.126953 C 18.896341 33.128011 18.894657 33.129763 18.892578 33.130859 C 17.832337 33.670425 16.783693 34.267216 16.042969 35.019531 C 15.302132 35.771808 14.872863 36.724189 15.146484 37.835938 C 15.255331 38.27731 15.537912 38.613015 15.912109 38.806641 C 16.286313 39.000152 16.741312 39.071322 17.255859 39.078125 C 18.205086 39.089464 19.377286 38.870525 20.634766 38.59375 L 21.015625 39.787109 L 22.080078 39.449219 L 22.248047 39.976562 L 22.511719 39.892578 L 22.777344 39.808594 L 22.693359 39.542969 L 22.609375 39.28125 L 23.666016 38.943359 L 23.363281 37.992188 C 25.388394 37.559394 27.354036 37.241677 28.625 37.607422 A 0.2784795 0.27847393 72.3579 0 0 28.779297 37.072266 C 28.078689 36.870817 27.251013 36.848425 26.365234 36.917969 L 28.630859 36.197266 L 28.462891 35.667969 L 27.136719 36.087891 L 23.160156 37.353516 L 22.822266 36.292969 L 21.767578 36.628906 L 21.091797 34.507812 L 22.148438 34.171875 L 21.810547 33.111328 L 25.787109 31.847656 L 25.3125 33.166016 L 25.859375 32.992188 L 26.535156 35.113281 L 26.003906 35.28125 L 27.136719 36.087891 L 27.595703 34.775391 L 27.064453 34.943359 L 26.390625 32.822266 L 26.904297 32.660156 L 25.789062 31.847656 L 27.113281 31.425781 L 26.945312 30.894531 L 25.619141 31.316406 L 21.642578 32.582031 L 21.585938 32.400391 C 21.762418 32.304391 21.937489 32.210415 22.097656 32.113281 C 22.513401 31.861187 22.868411 31.602024 23.128906 31.310547 C 23.389444 31.019145 23.560857 30.674147 23.537109 30.296875 C 23.507327 29.817555 23.322018 29.423273 23.021484 29.150391 C 22.72043 28.877509 22.324943 28.726875 21.878906 28.646484 C 21.709776 28.616248 21.52473 28.603891 21.339844 28.591797 L 24.439453 27.605469 L 25.763672 27.183594 L 25.595703 26.654297 z M 24.439453 27.605469 L 23.964844 28.923828 L 24.511719 28.75 L 25.017578 30.341797 L 24.486328 30.509766 L 25.619141 31.316406 L 26.078125 30.003906 L 25.546875 30.171875 L 25.041016 28.582031 L 25.554688 28.417969 L 24.439453 27.605469 z M 21.207031 29.136719 C 21.413879 29.144892 21.605047 29.162556 21.779297 29.193359 C 22.160792 29.262147 22.454182 29.385996 22.648438 29.5625 C 22.842708 29.739004 22.959352 29.967118 22.982422 30.332031 C 22.994781 30.527055 22.914116 30.718414 22.714844 30.941406 C 22.515504 31.164398 22.201214 31.399818 21.810547 31.636719 C 21.688812 31.71042 21.548986 31.785296 21.414062 31.859375 L 21.304688 31.521484 L 20.248047 31.857422 L 19.742188 30.265625 L 20.798828 29.929688 L 20.548828 29.140625 C 20.77914 29.131176 21.000184 29.128546 21.207031 29.136719 z M 36.078125 32.800781 C 36.014508 32.80834 35.953205 32.823719 35.894531 32.84375 C 35.483163 32.98775 35.199107 33.468303 35.160156 34.300781 C 35.115263 35.252353 34.660844 35.773163 34.544922 35.787109 C 35.209237 35.839645 37.198605 35.880858 36.902344 33.40625 C 36.535045 32.906937 36.078125 32.800781 36.078125 32.800781 z M 19.068359 33.666016 L 19.498047 35.015625 L 20.5625 34.675781 L 21.236328 36.798828 L 20.171875 37.136719 L 20.466797 38.058594 C 19.239184 38.32694 18.108244 38.532029 17.263672 38.521484 C 16.799541 38.513925 16.424559 38.445161 16.167969 38.3125 C 15.91138 38.179839 15.761752 38.004807 15.6875 37.703125 C 15.461488 36.785153 15.781025 36.076613 16.439453 35.408203 C 17.081736 34.756008 18.052864 34.186381 19.068359 33.666016 z M 55.222656 33.699219 C 55.040911 33.687883 54.858334 33.688755 54.677734 33.703125 C 53.473739 33.798929 52.331852 34.458304 51.724609 35.607422 C 50.874053 37.216896 51.41594 39.33377 53.082031 40.201172 C 54.515413 40.947477 56.385986 40.459141 57.130859 38.955078 C 57.757327 37.690221 57.316475 36.039938 55.980469 35.404297 C 54.890801 34.885859 53.478227 35.277592 52.96875 36.457031 C 52.570879 37.378102 52.919761 38.575754 53.943359 38.962891 C 54.317873 39.104623 54.720162 39.099015 55.085938 38.953125 C 55.451681 38.807613 55.792666 38.486886 55.910156 38.041016 C 55.988695 37.742811 55.955694 37.450388 55.814453 37.171875 C 55.673212 36.893324 55.339886 36.61633 54.941406 36.615234 C 54.601173 36.614403 54.431188 36.685768 54.271484 36.855469 C 54.152769 36.981705 54.075575 37.161486 54.117188 37.394531 C 54.150446 37.579728 54.251931 37.746428 54.333984 37.916016 C 53.968995 37.778063 53.826381 37.283497 53.990234 36.904297 C 54.229403 36.350672 54.953436 36.152129 55.507812 36.416016 C 56.240625 36.764866 56.496606 37.726335 56.134766 38.457031 C 55.682636 39.369976 54.494038 39.676751 53.591797 39.207031 C 52.505406 38.641425 52.139183 37.212914 52.708984 36.134766 C 53.377246 34.870211 55.03319 34.454816 56.28125 35.136719 C 57.716635 35.921084 58.188076 37.819788 57.40625 39.244141 C 56.520786 40.857356 54.397776 41.377691 52.804688 40.480469 C 51.022304 39.476702 50.445395 37.10773 51.441406 35.337891 L 50.470703 34.785156 C 49.177073 37.083941 49.920592 40.138619 52.261719 41.457031 C 54.382809 42.651589 57.187912 41.964079 58.382812 39.787109 C 59.45545 37.832942 58.812808 35.250537 56.810547 34.15625 C 56.310694 33.883125 55.767893 33.733225 55.222656 33.699219 z M 3.8242188 36.654297 C 3.6879498 36.650631 3.5513552 36.655812 3.4160156 36.671875 C 3.4081769 36.672895 3.4024834 36.675441 3.3945312 36.675781 C 3.2348992 36.698458 3.0773812 36.732494 2.9238281 36.78125 L 2.9238281 36.779297 C 2.8352916 36.805754 2.7470206 36.839158 2.6621094 36.876953 C 2.5758829 36.914748 2.492619 36.955402 2.4121094 37 C 2.4051702 37.00378 2.3992566 37.007939 2.3925781 37.011719 C 2.2421423 37.097136 2.1007225 37.19672 1.96875 37.308594 C 1.965283 37.31158 1.9604026 37.312627 1.9570312 37.316406 L 1.9511719 37.324219 C 1.8241707 37.434203 1.7066371 37.554397 1.6015625 37.685547 C 1.5948576 37.693106 1.5866621 37.701552 1.5800781 37.712891 C 1.5751973 37.719154 1.5712348 37.726114 1.5664062 37.732422 A 30.999057 30.999057 0 0 0 2.7109375 42 C 2.8363752 42.052308 2.9637446 42.09749 3.0957031 42.130859 C 3.1031904 42.1329 3.1114493 42.1328 3.1191406 42.134766 C 3.4263629 42.208466 3.7443664 42.228194 4.0585938 42.195312 L 4.0605469 42.195312 L 5.0917969 45.433594 L 6.1523438 45.097656 L 5.1230469 41.861328 C 5.2335603 41.798588 5.3385511 41.727871 5.4394531 41.650391 C 5.4569901 41.639052 5.4750247 41.623801 5.4921875 41.611328 C 5.6881447 41.45599 5.8620401 41.275894 6.0097656 41.074219 C 6.0217845 41.055321 6.033092 41.040444 6.0449219 41.023438 C 6.1155121 40.923658 6.1795143 40.817457 6.2363281 40.708984 C 6.2942078 40.595977 6.344834 40.479564 6.3867188 40.359375 C 6.3922746 40.340477 6.3969012 40.326421 6.4023438 40.310547 C 6.439194 40.200941 6.4692269 40.08957 6.4921875 39.976562 C 6.4944121 39.965225 6.4957036 39.952745 6.4980469 39.941406 C 6.522576 39.812902 6.5386252 39.683393 6.5449219 39.552734 C 6.5450088 39.551525 6.5451846 39.550378 6.5449219 39.548828 L 6.5449219 39.541016 C 6.550062 39.406842 6.5454852 39.273967 6.53125 39.140625 C 6.5311287 39.139151 6.5315989 39.138268 6.53125 39.136719 L 9.7675781 38.105469 L 9.4316406 37.044922 L 6.1953125 38.074219 C 6.1201453 37.941557 6.0333904 37.815943 5.9375 37.697266 C 5.9276354 37.685927 5.9202476 37.669542 5.9101562 37.658203 C 5.8214811 37.55162 5.7246489 37.453171 5.6210938 37.361328 C 5.5978875 37.338651 5.5746641 37.320813 5.5507812 37.300781 C 5.447793 37.213474 5.3371986 37.133555 5.2226562 37.0625 C 5.2063666 37.051161 5.1902313 37.042715 5.1738281 37.035156 C 5.0623736 36.96977 4.945639 36.912793 4.8261719 36.863281 C 4.8083325 36.855722 4.7914847 36.847403 4.7734375 36.839844 C 4.6473562 36.791844 4.5184537 36.752137 4.3867188 36.722656 C 4.3578054 36.715097 4.3280779 36.708858 4.2988281 36.705078 C 4.1679771 36.678621 4.0356189 36.661478 3.9023438 36.654297 C 3.8765674 36.653692 3.8502369 36.654637 3.8242188 36.654297 z M 38.376953 39.958984 L 37.699219 41.271484 C 37.337805 41.260146 36.973639 41.282587 36.617188 41.357422 C 36.40276 41.398997 36.19058 41.45339 35.982422 41.519531 C 35.162522 41.789012 34.39391 42.241173 33.806641 42.875 C 33.580266 43.151661 33.314245 43.500086 33.132812 43.824219 C 32.852909 44.351576 32.65356 44.927343 32.583984 45.521484 C 33.173082 46.174965 33.952406 46.639966 34.794922 46.884766 L 34.285156 47.867188 L 35.273438 48.378906 L 35.949219 47.072266 C 36.312 47.083604 36.677564 47.061163 37.035156 46.986328 C 38.094114 46.776942 39.108189 46.260334 39.845703 45.46875 C 40.071983 45.192467 40.338337 44.842088 40.519531 44.517578 C 40.799292 43.990636 40.998627 43.416445 41.068359 42.822266 C 40.478409 42.168143 39.698863 41.70168 38.855469 41.457031 L 39.365234 40.470703 L 38.376953 39.958984 z M 36.683594 42.507812 C 36.80606 42.499404 36.929545 42.505296 37.050781 42.523438 L 35.615234 45.298828 C 35.33217 44.99949 35.147446 44.607695 35.158203 44.183594 C 35.146638 43.469301 35.634921 42.789124 36.320312 42.580078 C 36.439451 42.538881 36.561128 42.516222 36.683594 42.507812 z M 38.039062 43.035156 C 38.209973 43.212794 38.3464 43.424466 38.417969 43.666016 C 38.743462 44.594041 38.066442 45.699871 37.087891 45.818359 C 36.923424 45.852375 36.758288 45.8396 36.597656 45.818359 L 37.296875 44.466797 A 0.55651225 0.55651225 0 0 0 37.310547 44.445312 L 37.324219 44.421875 A 0.55651225 0.55651225 0 0 0 37.330078 44.410156 L 38.039062 43.035156 z M 20.853516 44.816406 C 20.767652 44.818325 20.679599 44.833812 20.589844 44.865234 C 20.385156 44.937045 20.21618 45.085407 20.119141 45.279297 L 19.267578 46.927734 L 19.263672 46.923828 L 17.910156 46.224609 L 17.398438 47.212891 L 18.404297 47.732422 L 15.810547 52.748047 L 16.335938 54.402344 L 17.990234 53.875 L 20.583984 48.861328 L 21.591797 49.382812 L 22.103516 48.394531 L 20.75 47.693359 L 21.601562 46.046875 C 21.915273 45.459735 21.454564 44.802977 20.853516 44.816406 z M 18.988281 48.033203 L 19.976562 48.544922 L 17.486328 53.359375 L 16.498047 52.847656 L 18.988281 48.033203 z M 44.337891 50.417969 C 43.940485 50.38127 43.530478 50.421118 43.128906 50.548828 C 41.522565 51.059707 40.630355 52.790046 41.140625 54.394531 C 41.650895 55.999016 43.378034 56.893653 44.984375 56.382812 C 45.595324 56.188546 46.110979 55.815409 46.478516 55.341797 L 49.056641 56.675781 A 0.55957421 0.55957421 0 1 0 49.558594 55.675781 L 46.982422 54.341797 C 47.156923 53.768896 47.184011 53.14303 46.990234 52.533203 C 46.607532 51.329839 45.530109 50.528066 44.337891 50.417969 z M 44.238281 51.523438 C 44.9947 51.591509 45.666048 52.10134 45.912109 52.875 C 46.240172 53.906546 45.679267 54.993825 44.646484 55.322266 C 43.613702 55.650707 42.529235 55.088187 42.201172 54.056641 C 41.873071 53.025019 42.434015 51.937816 43.466797 51.609375 C 43.724992 51.527265 43.986142 51.500747 44.238281 51.523438 z M 32.511719 54.117188 C 32.456744 54.113795 32.406453 54.117406 32.367188 54.123047 C 32.314833 54.130568 32.283203 54.140625 32.283203 54.140625 L 30.160156 54.814453 L 30.498047 55.875 L 32.089844 55.369141 L 32.595703 56.960938 L 33.65625 56.623047 L 32.980469 54.501953 C 32.885597 54.203656 32.676644 54.127364 32.511719 54.117188 z M 28.039062 55.490234 L 25.917969 56.164062 C 25.387631 56.332629 25.556641 56.863281 25.556641 56.863281 L 26.230469 58.984375 L 27.292969 58.646484 L 26.785156 57.056641 L 28.376953 56.550781 L 28.039062 55.490234 z M 33.994141 57.683594 L 32.933594 58.021484 L 33.439453 59.613281 L 31.847656 60.119141 L 32.185547 61.179688 L 34.306641 60.503906 C 34.306641 60.503906 34.836629 60.335143 34.667969 59.804688 L 33.994141 57.683594 z M 27.628906 59.707031 L 26.568359 60.044922 L 27.244141 62.166016 C 27.412802 62.696321 27.941406 62.529297 27.941406 62.529297 L 30.064453 61.853516 L 29.726562 60.792969 L 28.134766 61.298828 L 27.628906 59.707031 z "
       transform="matrix(0.26458333,0,0,0.26458333,0,280.06665)"
       id="path5-20" />
    <g
       id="g1120"
       transform="translate(-15.709636,-0.66146)">
      <path
         style="opacity:1;fill:none;fill-opacity:1;stroke:#000000;stroke-width:0.1;stroke-linecap:round;stroke-linejoin:round;stroke-miterlimit:4;stroke-dasharray:none;stroke-opacity:0.00980392"
         d="m 19.565068,285.02516 c -0.311481,0 -0.56224,0.25076 -0.56224,0.56224 v 7.20989 c 0,0.31148 0.250759,0.56224 0.56224,0.56224 h 9.227343 c 0.311481,0 0.562239,-0.25076 0.562239,-0.56224 v -7.20989 c 0,-0.31148 -0.250758,-0.56224 -0.562239,-0.56224 z m 0.15968,1.33584 h 8.907982 v 6.47712 h -8.907982 z m 1.462443,0.58342 a 0.85359202,0.85359202 0 0 0 -0.853695,0.8537 0.85359202,0.85359202 0 0 0 0.853695,0.85369 0.85359202,0.85359202 0 0 0 0.853178,-0.85369 0.85359202,0.85359202 0 0 0 -0.853178,-0.8537 z m 2.420524,1.66037 -3.414779,3.76514 h 7.904427 l -2.197799,-3.1104 -0.72502,0.74827 z"
         id="path1057"
         inkscape:connector-curvature="0" />
      <path
         inkscape:connector-curvature="0"
         id="path1059"
         d="m 19.565068,285.02516 c -0.311481,0 -0.56224,0.25076 -0.56224,0.56224 v 7.20989 c 0,0.31148 0.250759,0.56224 0.56224,0.56224 h 9.227343 c 0.311481,0 0.562239,-0.25076 0.562239,-0.56224 v -7.20989 c 0,-0.31148 -0.250758,-0.56224 -0.562239,-0.56224 z m 0.15968,1.33584 h 8.907982 v 6.47712 h -8.907982 z m 1.462443,0.58342 a 0.85359202,0.85359202 0 0 0 -0.853695,0.8537 0.85359202,0.85359202 0 0 0 0.853695,0.85369 0.85359202,0.85359202 0 0 0 0.853178,-0.85369 0.85359202,0.85359202 0 0 0 -0.853178,-0.8537 z m 2.420524,1.66037 -3.414779,3.76514 h 7.904427 l -2.197799,-3.1104 -0.72502,0.74827 z"
         style="opacity:1;fill:none;fill-opacity:1;stroke:#000000;stroke-width:0.2;stroke-linecap:round;stroke-linejoin:round;stroke-miterlimit:4;stroke-dasharray:none;stroke-opacity:0.00980392" />
      <path
         style="opacity:1;fill:none;fill-opacity:1;stroke:#000000;stroke-width:0.30000001;stroke-linecap:round;stroke-linejoin:round;stroke-miterlimit:4;stroke-dasharray:none;stroke-opacity:0.00980392"
         d="m 19.565068,285.02516 c -0.311481,0 -0.56224,0.25076 -0.56224,0.56224 v 7.20989 c 0,0.31148 0.250759,0.56224 0.56224,0.56224 h 9.227343 c 0.311481,0 0.562239,-0.25076 0.562239,-0.56224 v -7.20989 c 0,-0.31148 -0.250758,-0.56224 -0.562239,-0.56224 z m 0.15968,1.33584 h 8.907982 v 6.47712 h -8.907982 z m 1.462443,0.58342 a 0.85359202,0.85359202 0 0 0 -0.853695,0.8537 0.85359202,0.85359202 0 0 0 0.853695,0.85369 0.85359202,0.85359202 0 0 0 0.853178,-0.85369 0.85359202,0.85359202 0 0 0 -0.853178,-0.8537 z m 2.420524,1.66037 -3.414779,3.76514 h 7.904427 l -2.197799,-3.1104 -0.72502,0.74827 z"
         id="path1061"
         inkscape:connector-curvature="0" />
      <path
         inkscape:connector-curvature="0"
         id="path1063"
         d="m 19.565068,285.02516 c -0.311481,0 -0.56224,0.25076 -0.56224,0.56224 v 7.20989 c 0,0.31148 0.250759,0.56224 0.56224,0.56224 h 9.227343 c 0.311481,0 0.562239,-0.25076 0.562239,-0.56224 v -7.20989 c 0,-0.31148 -0.250758,-0.56224 -0.562239,-0.56224 z m 0.15968,1.33584 h 8.907982 v 6.47712 h -8.907982 z m 1.462443,0.58342 a 0.85359202,0.85359202 0 0 0 -0.853695,0.8537 0.85359202,0.85359202 0 0 0 0.853695,0.85369 0.85359202,0.85359202 0 0 0 0.853178,-0.85369 0.85359202,0.85359202 0 0 0 -0.853178,-0.8537 z m 2.420524,1.66037 -3.414779,3.76514 h 7.904427 l -2.197799,-3.1104 -0.72502,0.74827 z"
         style="opacity:1;fill:none;fill-opacity:1;stroke:#000000;stroke-width:0.40000001;stroke-linecap:round;stroke-linejoin:round;stroke-miterlimit:4;stroke-dasharray:none;stroke-opacity:0.00980392" />
      <path
         style="opacity:1;fill:none;fill-opacity:1;stroke:#000000;stroke-width:0.5;stroke-linecap:round;stroke-linejoin:round;stroke-miterlimit:4;stroke-dasharray:none;stroke-opacity:0.00980392"
         d="m 19.565068,285.02516 c -0.311481,0 -0.56224,0.25076 -0.56224,0.56224 v 7.20989 c 0,0.31148 0.250759,0.56224 0.56224,0.56224 h 9.227343 c 0.311481,0 0.562239,-0.25076 0.562239,-0.56224 v -7.20989 c 0,-0.31148 -0.250758,-0.56224 -0.562239,-0.56224 z m 0.15968,1.33584 h 8.907982 v 6.47712 h -8.907982 z m 1.462443,0.58342 a 0.85359202,0.85359202 0 0 0 -0.853695,0.8537 0.85359202,0.85359202 0 0 0 0.853695,0.85369 0.85359202,0.85359202 0 0 0 0.853178,-0.85369 0.85359202,0.85359202 0 0 0 -0.853178,-0.8537 z m 2.420524,1.66037 -3.414779,3.76514 h 7.904427 l -2.197799,-3.1104 -0.72502,0.74827 z"
         id="path1065"
         inkscape:connector-curvature="0" />
      <path
         inkscape:connector-curvature="0"
         id="path1067"
         d="m 19.565068,285.02516 c -0.311481,0 -0.56224,0.25076 -0.56224,0.56224 v 7.20989 c 0,0.31148 0.250759,0.56224 0.56224,0.56224 h 9.227343 c 0.311481,0 0.562239,-0.25076 0.562239,-0.56224 v -7.20989 c 0,-0.31148 -0.250758,-0.56224 -0.562239,-0.56224 z m 0.15968,1.33584 h 8.907982 v 6.47712 h -8.907982 z m 1.462443,0.58342 a 0.85359202,0.85359202 0 0 0 -0.853695,0.8537 0.85359202,0.85359202 0 0 0 0.853695,0.85369 0.85359202,0.85359202 0 0 0 0.853178,-0.85369 0.85359202,0.85359202 0 0 0 -0.853178,-0.8537 z m 2.420524,1.66037 -3.414779,3.76514 h 7.904427 l -2.197799,-3.1104 -0.72502,0.74827 z"
         style="opacity:1;fill:none;fill-opacity:1;stroke:#000000;stroke-width:0.60000002;stroke-linecap:round;stroke-linejoin:round;stroke-miterlimit:4;stroke-dasharray:none;stroke-opacity:0.00980392" />
      <path
         style="opacity:1;fill:none;fill-opacity:1;stroke:#000000;stroke-width:0.80000001;stroke-linecap:round;stroke-linejoin:round;stroke-miterlimit:4;stroke-dasharray:none;stroke-opacity:0.00980392"
         d="m 19.565068,285.02516 c -0.311481,0 -0.56224,0.25076 -0.56224,0.56224 v 7.20989 c 0,0.31148 0.250759,0.56224 0.56224,0.56224 h 9.227343 c 0.311481,0 0.562239,-0.25076 0.562239,-0.56224 v -7.20989 c 0,-0.31148 -0.250758,-0.56224 -0.562239,-0.56224 z m 0.15968,1.33584 h 8.907982 v 6.47712 h -8.907982 z m 1.462443,0.58342 a 0.85359202,0.85359202 0 0 0 -0.853695,0.8537 0.85359202,0.85359202 0 0 0 0.853695,0.85369 0.85359202,0.85359202 0 0 0 0.853178,-0.85369 0.85359202,0.85359202 0 0 0 -0.853178,-0.8537 z m 2.420524,1.66037 -3.414779,3.76514 h 7.904427 l -2.197799,-3.1104 -0.72502,0.74827 z"
         id="path1069"
         inkscape:connector-curvature="0" />
      <path
         inkscape:connector-curvature="0"
         id="path1071"
         d="m 19.565068,285.02516 c -0.311481,0 -0.56224,0.25076 -0.56224,0.56224 v 7.20989 c 0,0.31148 0.250759,0.56224 0.56224,0.56224 h 9.227343 c 0.311481,0 0.562239,-0.25076 0.562239,-0.56224 v -7.20989 c 0,-0.31148 -0.250758,-0.56224 -0.562239,-0.56224 z m 0.15968,1.33584 h 8.907982 v 6.47712 h -8.907982 z m 1.462443,0.58342 a 0.85359202,0.85359202 0 0 0 -0.853695,0.8537 0.85359202,0.85359202 0 0 0 0.853695,0.85369 0.85359202,0.85359202 0 0 0 0.853178,-0.85369 0.85359202,0.85359202 0 0 0 -0.853178,-0.8537 z m 2.420524,1.66037 -3.414779,3.76514 h 7.904427 l -2.197799,-3.1104 -0.72502,0.74827 z"
         style="opacity:1;fill:none;fill-opacity:1;stroke:#000000;stroke-width:1;stroke-linecap:round;stroke-linejoin:round;stroke-miterlimit:4;stroke-dasharray:none;stroke-opacity:0.00980392" />
      <path
         style="opacity:1;fill:none;fill-opacity:1;stroke:#000000;stroke-width:1.10000002;stroke-linecap:round;stroke-linejoin:round;stroke-miterlimit:4;stroke-dasharray:none;stroke-opacity:0.00980392"
         d="m 19.565068,285.02516 c -0.311481,0 -0.56224,0.25076 -0.56224,0.56224 v 7.20989 c 0,0.31148 0.250759,0.56224 0.56224,0.56224 h 9.227343 c 0.311481,0 0.562239,-0.25076 0.562239,-0.56224 v -7.20989 c 0,-0.31148 -0.250758,-0.56224 -0.562239,-0.56224 z m 0.15968,1.33584 h 8.907982 v 6.47712 h -8.907982 z m 1.462443,0.58342 a 0.85359202,0.85359202 0 0 0 -0.853695,0.8537 0.85359202,0.85359202 0 0 0 0.853695,0.85369 0.85359202,0.85359202 0 0 0 0.853178,-0.85369 0.85359202,0.85359202 0 0 0 -0.853178,-0.8537 z m 2.420524,1.66037 -3.414779,3.76514 h 7.904427 l -2.197799,-3.1104 -0.72502,0.74827 z"
         id="path1073"
         inkscape:connector-curvature="0" />
      <path
         inkscape:connector-curvature="0"
         id="path1075"
         d="m 19.565068,285.02516 c -0.311481,0 -0.56224,0.25076 -0.56224,0.56224 v 7.20989 c 0,0.31148 0.250759,0.56224 0.56224,0.56224 h 9.227343 c 0.311481,0 0.562239,-0.25076 0.562239,-0.56224 v -7.20989 c 0,-0.31148 -0.250758,-0.56224 -0.562239,-0.56224 z m 0.15968,1.33584 h 8.907982 v 6.47712 h -8.907982 z m 1.462443,0.58342 a 0.85359202,0.85359202 0 0 0 -0.853695,0.8537 0.85359202,0.85359202 0 0 0 0.853695,0.85369 0.85359202,0.85359202 0 0 0 0.853178,-0.85369 0.85359202,0.85359202 0 0 0 -0.853178,-0.8537 z m 2.420524,1.66037 -3.414779,3.76514 h 7.904427 l -2.197799,-3.1104 -0.72502,0.74827 z"
         style="opacity:1;fill:none;fill-opacity:1;stroke:#000000;stroke-width:1.20000005;stroke-linecap:round;stroke-linejoin:round;stroke-miterlimit:4;stroke-dasharray:none;stroke-opacity:0.00980392" />
      <path
         style="opacity:1;fill:none;fill-opacity:1;stroke:#000000;stroke-width:1.39999998;stroke-linecap:round;stroke-linejoin:round;stroke-miterlimit:4;stroke-dasharray:none;stroke-opacity:0.00980392"
         d="m 19.565068,285.02516 c -0.311481,0 -0.56224,0.25076 -0.56224,0.56224 v 7.20989 c 0,0.31148 0.250759,0.56224 0.56224,0.56224 h 9.227343 c 0.311481,0 0.562239,-0.25076 0.562239,-0.56224 v -7.20989 c 0,-0.31148 -0.250758,-0.56224 -0.562239,-0.56224 z m 0.15968,1.33584 h 8.907982 v 6.47712 h -8.907982 z m 1.462443,0.58342 a 0.85359202,0.85359202 0 0 0 -0.853695,0.8537 0.85359202,0.85359202 0 0 0 0.853695,0.85369 0.85359202,0.85359202 0 0 0 0.853178,-0.85369 0.85359202,0.85359202 0 0 0 -0.853178,-0.8537 z m 2.420524,1.66037 -3.414779,3.76514 h 7.904427 l -2.197799,-3.1104 -0.72502,0.74827 z"
         id="path1077"
         inkscape:connector-curvature="0" />
      <path
         inkscape:connector-curvature="0"
         id="path1079"
         d="m 19.565068,285.02516 c -0.311481,0 -0.56224,0.25076 -0.56224,0.56224 v 7.20989 c 0,0.31148 0.250759,0.56224 0.56224,0.56224 h 9.227343 c 0.311481,0 0.562239,-0.25076 0.562239,-0.56224 v -7.20989 c 0,-0.31148 -0.250758,-0.56224 -0.562239,-0.56224 z m 0.15968,1.33584 h 8.907982 v 6.47712 h -8.907982 z m 1.462443,0.58342 a 0.85359202,0.85359202 0 0 0 -0.853695,0.8537 0.85359202,0.85359202 0 0 0 0.853695,0.85369 0.85359202,0.85359202 0 0 0 0.853178,-0.85369 0.85359202,0.85359202 0 0 0 -0.853178,-0.8537 z m 2.420524,1.66037 -3.414779,3.76514 h 7.904427 l -2.197799,-3.1104 -0.72502,0.74827 z"
         style="opacity:1;fill:none;fill-opacity:1;stroke:#000000;stroke-width:1.60000002;stroke-linecap:round;stroke-linejoin:round;stroke-miterlimit:4;stroke-dasharray:none;stroke-opacity:0.00980392" />
      <path
         style="opacity:1;fill:none;fill-opacity:1;stroke:#000000;stroke-width:1.79999995;stroke-linecap:round;stroke-linejoin:round;stroke-miterlimit:4;stroke-dasharray:none;stroke-opacity:0.00980392"
         d="m 19.565068,285.02516 c -0.311481,0 -0.56224,0.25076 -0.56224,0.56224 v 7.20989 c 0,0.31148 0.250759,0.56224 0.56224,0.56224 h 9.227343 c 0.311481,0 0.562239,-0.25076 0.562239,-0.56224 v -7.20989 c 0,-0.31148 -0.250758,-0.56224 -0.562239,-0.56224 z m 0.15968,1.33584 h 8.907982 v 6.47712 h -8.907982 z m 1.462443,0.58342 a 0.85359202,0.85359202 0 0 0 -0.853695,0.8537 0.85359202,0.85359202 0 0 0 0.853695,0.85369 0.85359202,0.85359202 0 0 0 0.853178,-0.85369 0.85359202,0.85359202 0 0 0 -0.853178,-0.8537 z m 2.420524,1.66037 -3.414779,3.76514 h 7.904427 l -2.197799,-3.1104 -0.72502,0.74827 z"
         id="path1081"
         inkscape:connector-curvature="0" />
      <path
         inkscape:connector-curvature="0"
         id="path1083"
         d="m 19.565068,285.02516 c -0.311481,0 -0.56224,0.25076 -0.56224,0.56224 v 7.20989 c 0,0.31148 0.250759,0.56224 0.56224,0.56224 h 9.227343 c 0.311481,0 0.562239,-0.25076 0.562239,-0.56224 v -7.20989 c 0,-0.31148 -0.250758,-0.56224 -0.562239,-0.56224 z m 0.15968,1.33584 h 8.907982 v 6.47712 h -8.907982 z m 1.462443,0.58342 a 0.85359202,0.85359202 0 0 0 -0.853695,0.8537 0.85359202,0.85359202 0 0 0 0.853695,0.85369 0.85359202,0.85359202 0 0 0 0.853178,-0.85369 0.85359202,0.85359202 0 0 0 -0.853178,-0.8537 z m 2.420524,1.66037 -3.414779,3.76514 h 7.904427 l -2.197799,-3.1104 -0.72502,0.74827 z"
         style="opacity:1;fill:none;fill-opacity:1;stroke:#000000;stroke-width:2;stroke-linecap:round;stroke-linejoin:round;stroke-miterlimit:4;stroke-dasharray:none;stroke-opacity:0.00980392" />
      <path
         style="opacity:1;fill:none;fill-opacity:1;stroke:#000000;stroke-width:2.4000001;stroke-linecap:round;stroke-linejoin:round;stroke-miterlimit:4;stroke-dasharray:none;stroke-opacity:0.00980392"
         d="m 19.565068,285.02516 c -0.311481,0 -0.56224,0.25076 -0.56224,0.56224 v 7.20989 c 0,0.31148 0.250759,0.56224 0.56224,0.56224 h 9.227343 c 0.311481,0 0.562239,-0.25076 0.562239,-0.56224 v -7.20989 c 0,-0.31148 -0.250758,-0.56224 -0.562239,-0.56224 z m 0.15968,1.33584 h 8.907982 v 6.47712 h -8.907982 z m 1.462443,0.58342 a 0.85359202,0.85359202 0 0 0 -0.853695,0.8537 0.85359202,0.85359202 0 0 0 0.853695,0.85369 0.85359202,0.85359202 0 0 0 0.853178,-0.85369 0.85359202,0.85359202 0 0 0 -0.853178,-0.8537 z m 2.420524,1.66037 -3.414779,3.76514 h 7.904427 l -2.197799,-3.1104 -0.72502,0.74827 z"
         id="path1085"
         inkscape:connector-curvature="0" />
      <path
         inkscape:connector-curvature="0"
         id="path1087"
         d="m 19.565068,285.02516 c -0.311481,0 -0.56224,0.25076 -0.56224,0.56224 v 7.20989 c 0,0.31148 0.250759,0.56224 0.56224,0.56224 h 9.227343 c 0.311481,0 0.562239,-0.25076 0.562239,-0.56224 v -7.20989 c 0,-0.31148 -0.250758,-0.56224 -0.562239,-0.56224 z m 0.15968,1.33584 h 8.907982 v 6.47712 h -8.907982 z m 1.462443,0.58342 a 0.85359202,0.85359202 0 0 0 -0.853695,0.8537 0.85359202,0.85359202 0 0 0 0.853695,0.85369 0.85359202,0.85359202 0 0 0 0.853178,-0.85369 0.85359202,0.85359202 0 0 0 -0.853178,-0.8537 z m 2.420524,1.66037 -3.414779,3.76514 h 7.904427 l -2.197799,-3.1104 -0.72502,0.74827 z"
         style="opacity:1;fill:none;fill-opacity:1;stroke:#000000;stroke-width:2.5999999;stroke-linecap:round;stroke-linejoin:round;stroke-miterlimit:4;stroke-dasharray:none;stroke-opacity:0.00980392" />
      <path
         style="opacity:1;fill:none;fill-opacity:1;stroke:#000000;stroke-width:2.79999995;stroke-linecap:round;stroke-linejoin:round;stroke-miterlimit:4;stroke-dasharray:none;stroke-opacity:0.00980392"
         d="m 19.565068,285.02516 c -0.311481,0 -0.56224,0.25076 -0.56224,0.56224 v 7.20989 c 0,0.31148 0.250759,0.56224 0.56224,0.56224 h 9.227343 c 0.311481,0 0.562239,-0.25076 0.562239,-0.56224 v -7.20989 c 0,-0.31148 -0.250758,-0.56224 -0.562239,-0.56224 z m 0.15968,1.33584 h 8.907982 v 6.47712 h -8.907982 z m 1.462443,0.58342 a 0.85359202,0.85359202 0 0 0 -0.853695,0.8537 0.85359202,0.85359202 0 0 0 0.853695,0.85369 0.85359202,0.85359202 0 0 0 0.853178,-0.85369 0.85359202,0.85359202 0 0 0 -0.853178,-0.8537 z m 2.420524,1.66037 -3.414779,3.76514 h 7.904427 l -2.197799,-3.1104 -0.72502,0.74827 z"
         id="path1089"
         inkscape:connector-curvature="0" />
      <path
         inkscape:connector-curvature="0"
         id="path1091"
         d="m 19.565068,285.02516 c -0.311481,0 -0.56224,0.25076 -0.56224,0.56224 v 7.20989 c 0,0.31148 0.250759,0.56224 0.56224,0.56224 h 9.227343 c 0.311481,0 0.562239,-0.25076 0.562239,-0.56224 v -7.20989 c 0,-0.31148 -0.250758,-0.56224 -0.562239,-0.56224 z m 0.15968,1.33584 h 8.907982 v 6.47712 h -8.907982 z m 1.462443,0.58342 a 0.85359202,0.85359202 0 0 0 -0.853695,0.8537 0.85359202,0.85359202 0 0 0 0.853695,0.85369 0.85359202,0.85359202 0 0 0 0.853178,-0.85369 0.85359202,0.85359202 0 0 0 -0.853178,-0.8537 z m 2.420524,1.66037 -3.414779,3.76514 h 7.904427 l -2.197799,-3.1104 -0.72502,0.74827 z"
         style="opacity:1;fill:none;fill-opacity:1;stroke:#000000;stroke-width:3.0999999;stroke-linecap:round;stroke-linejoin:round;stroke-miterlimit:4;stroke-dasharray:none;stroke-opacity:0.00980392" />
      <path
         style="opacity:1;fill:none;fill-opacity:1;stroke:#000000;stroke-width:3.4000001;stroke-linecap:round;stroke-linejoin:round;stroke-miterlimit:4;stroke-dasharray:none;stroke-opacity:0.00980392"
         d="m 19.565068,285.02516 c -0.311481,0 -0.56224,0.25076 -0.56224,0.56224 v 7.20989 c 0,0.31148 0.250759,0.56224 0.56224,0.56224 h 9.227343 c 0.311481,0 0.562239,-0.25076 0.562239,-0.56224 v -7.20989 c 0,-0.31148 -0.250758,-0.56224 -0.562239,-0.56224 z m 0.15968,1.33584 h 8.907982 v 6.47712 h -8.907982 z m 1.462443,0.58342 a 0.85359202,0.85359202 0 0 0 -0.853695,0.8537 0.85359202,0.85359202 0 0 0 0.853695,0.85369 0.85359202,0.85359202 0 0 0 0.853178,-0.85369 0.85359202,0.85359202 0 0 0 -0.853178,-0.8537 z m 2.420524,1.66037 -3.414779,3.76514 h 7.904427 l -2.197799,-3.1104 -0.72502,0.74827 z"
         id="path1093"
         inkscape:connector-curvature="0" />
      <path
         inkscape:connector-curvature="0"
         id="path1095"
         d="m 19.565068,285.02516 c -0.311481,0 -0.56224,0.25076 -0.56224,0.56224 v 7.20989 c 0,0.31148 0.250759,0.56224 0.56224,0.56224 h 9.227343 c 0.311481,0 0.562239,-0.25076 0.562239,-0.56224 v -7.20989 c 0,-0.31148 -0.250758,-0.56224 -0.562239,-0.56224 z m 0.15968,1.33584 h 8.907982 v 6.47712 h -8.907982 z m 1.462443,0.58342 a 0.85359202,0.85359202 0 0 0 -0.853695,0.8537 0.85359202,0.85359202 0 0 0 0.853695,0.85369 0.85359202,0.85359202 0 0 0 0.853178,-0.85369 0.85359202,0.85359202 0 0 0 -0.853178,-0.8537 z m 2.420524,1.66037 -3.414779,3.76514 h 7.904427 l -2.197799,-3.1104 -0.72502,0.74827 z"
         style="opacity:1;fill:none;fill-opacity:1;stroke:#000000;stroke-width:3.70000005;stroke-linecap:round;stroke-linejoin:round;stroke-miterlimit:4;stroke-dasharray:none;stroke-opacity:0.00980392" />
      <path
         style="opacity:1;fill:none;fill-opacity:1;stroke:#000000;stroke-width:4;stroke-linecap:round;stroke-linejoin:round;stroke-miterlimit:4;stroke-dasharray:none;stroke-opacity:0.00980392"
         d="m 19.565068,285.02516 c -0.311481,0 -0.56224,0.25076 -0.56224,0.56224 v 7.20989 c 0,0.31148 0.250759,0.56224 0.56224,0.56224 h 9.227343 c 0.311481,0 0.562239,-0.25076 0.562239,-0.56224 v -7.20989 c 0,-0.31148 -0.250758,-0.56224 -0.562239,-0.56224 z m 0.15968,1.33584 h 8.907982 v 6.47712 h -8.907982 z m 1.462443,0.58342 a 0.85359202,0.85359202 0 0 0 -0.853695,0.8537 0.85359202,0.85359202 0 0 0 0.853695,0.85369 0.85359202,0.85359202 0 0 0 0.853178,-0.85369 0.85359202,0.85359202 0 0 0 -0.853178,-0.8537 z m 2.420524,1.66037 -3.414779,3.76514 h 7.904427 l -2.197799,-3.1104 -0.72502,0.74827 z"
         id="path1097"
         inkscape:connector-curvature="0" />
    </g>
    <path
       style="opacity:1;fill:#ffffff;fill-opacity:1;stroke:none;stroke-width:4;stroke-linecap:round;stroke-linejoin:round;stroke-miterlimit:4;stroke-dasharray:none;stroke-opacity:0.00980392"
       d="m 3.8554321,284.3637 c -0.311481,0 -0.5622395,0.25076 -0.5622395,0.56224 v 7.20989 c 0,0.31148 0.2507585,0.56224 0.5622395,0.56224 h 9.2273439 c 0.311481,0 0.562239,-0.25076 0.562239,-0.56224 v -7.20989 c 0,-0.31148 -0.250758,-0.56224 -0.562239,-0.56224 z m 0.1596803,1.33584 h 8.9079826 v 6.47712 H 4.0151124 Z m 1.4624428,0.58342 a 0.85359202,0.85359202 0 0 0 -0.8536945,0.8537 0.85359202,0.85359202 0 0 0 0.8536945,0.85369 0.85359202,0.85359202 0 0 0 0.8531781,-0.85369 0.85359202,0.85359202 0 0 0 -0.8531781,-0.8537 z m 2.4205242,1.66037 -3.4147786,3.76514 h 7.9044272 l -2.197799,-3.1104 -0.7250202,0.74827 z"
       id="path1635-8"
       inkscape:connector-curvature="0" />
  </g>
</svg>
