<?xml version="1.0" encoding="UTF-8" standalone="no"?>
<!-- Created with Inkscape (http://www.inkscape.org/) -->

<svg
   xmlns:dc="http://purl.org/dc/elements/1.1/"
   xmlns:cc="http://creativecommons.org/ns#"
   xmlns:rdf="http://www.w3.org/1999/02/22-rdf-syntax-ns#"
   xmlns:svg="http://www.w3.org/2000/svg"
   xmlns="http://www.w3.org/2000/svg"
   xmlns:xlink="http://www.w3.org/1999/xlink"
   xmlns:sodipodi="http://sodipodi.sourceforge.net/DTD/sodipodi-0.dtd"
   xmlns:inkscape="http://www.inkscape.org/namespaces/inkscape"
   width="64"
   height="64"
   viewBox="0 0 16.933333 16.933334"
   version="1.1"
   id="svg8"
   sodipodi:docname="inkscape.svg"
   inkscape:version="0.92.4 (5da689c313, 2019-01-14)">
  <defs
     id="defs2">
    <linearGradient
       inkscape:collect="always"
       id="linearGradient826">
      <stop
         style="stop-color:#003d77;stop-opacity:1"
         offset="0"
         id="stop822" />
      <stop
         style="stop-color:#00d7be;stop-opacity:1"
         offset="1"
         id="stop824" />
    </linearGradient>
    <linearGradient
       inkscape:collect="always"
       id="linearGradient818">
      <stop
         style="stop-color:#006cdc;stop-opacity:1"
         offset="0"
         id="stop814" />
      <stop
         style="stop-color:#00d8be;stop-opacity:1"
         offset="1"
         id="stop816" />
    </linearGradient>
    <linearGradient
       inkscape:collect="always"
       xlink:href="#linearGradient818"
       id="linearGradient820"
       x1="8.385582"
       y1="296.68262"
       x2="8.385582"
       y2="280.71326"
       gradientUnits="userSpaceOnUse" />
    <linearGradient
       inkscape:collect="always"
       xlink:href="#linearGradient826"
       id="linearGradient828"
       x1="8.5188627"
       y1="297.07675"
       x2="8.5188627"
       y2="280.2793"
       gradientUnits="userSpaceOnUse" />
    <filter
       id="alpha"
       width="100%"
       height="100%"
       x="0%"
       y="0%">
      <feColorMatrix
         in="SourceGraphic"
         values="0 0 0 0 1 0 0 0 0 1 0 0 0 0 1 0 0 0 1 0"
         id="feColorMatrix929" />
    </filter>
    <mask
       id="mask0">
      <g
         filter="url(#alpha)"
         id="g934">
        <rect
           width="384"
           height="384"
           style="fill-opacity:.2;fill:rgb(0%,0%,0%)"
           id="rect932" />
      </g>
    </mask>
    <clipPath
       id="clip1">
      <rect
         width="384"
         height="384"
         id="rect937" />
    </clipPath>
    <g
       id="surface5"
       clip-path="url(#clip1)">
      <path
         d="m162.49219 24.035156c-13.507813 0.222656-27.109376 3.160156-37.09375 8.109375-9.898438 4.90625-18.738282 14.425781-27.078126 29.167969-2.140624 3.78125-4.636718 7.363281-5.554687 7.96875s-4.285156 1.453125-7.464844 1.882812c-11.070312-0.371093-23.210937-2.757812-34.96875-5.140624 0 0-7.496093-1.949219-8.332031 6.152343 0.035156 1.367188 0.257812 2.65625 0.46875 3.953125 1.8125-5.617187 7.863281-4.105468 7.863281-4.105468 11.757813 2.382812 23.898438 4.769531 34.96875 5.140624 3.179688-0.429687 6.546875-1.277343 7.464844-1.882812s3.414063-4.199219 5.554687-7.980469c8.339844-14.738281 17.179688-24.25 27.078126-29.15625 11.414062-5.65625 27.554687-8.683593 42.871093-8.039062 18.414063 0.777343 34.054688 7.144531 46.832031 19.066406 8.777344 8.195313 14.589844 10.25 22.941407 8.097656 2.28125-0.589843 3.175781-0.746093 4.058593-0.855469 1.191407-1.652343 1.953126-3.363281 1.953126-4.816406 0-1.84375-0.136719-1.84375-6.011719-0.328125-8.351563 2.152344-14.164063 0.097657-22.941407-8.097656-12.777343-11.921875-28.417968-18.289063-46.832031-19.066406-1.914062-0.082031-3.84375-0.101563-5.777343-0.070313zm77.929687 40.328125c-0.410156 0.402344-0.800781 0.816407-1.269531 1.191407l-2.726563 2.203124 0.855469 0.503907c0.253906-0.042969 0.460938-0.101563 0.726562-0.136719 3.835938-0.554688 4.546876-1.980469 2.414063-3.761719zm-8.214844 11.644531c-0.457031 0.335938-0.785156 0.683594-0.785156 1.019532 0 0.398437 0.542969 3.835937 1.203125 7.636718 0.582031 3.355469 0.792969 7.929688 0.835938 12.710938 0.238281-6.9375-0.007813-13.949219-0.835938-18.710938-0.226562-1.316406-0.234375-1.535156-0.417969-2.65625zm-170.49609 34.195313c-5.027344 3.300781-7.902344 8.210937-13.792969 12.808594-0.917969 1.726562-0.429688 3.367187 1.171875 4.921875 6.414062-5.457032 9.296875-11.167969 16.910156-13.921875-1.464844-1.246094-2.851562-2.539063-4.289062-3.808594zm256.28906 45.820313c-5.183594 0-8.507812 3.1875-14.089844 10.699218-6.519531 8.789063-15.25 15.429688-21.347656 18.539063-9.554688 4.871093-16.882812 4.003906-34.152344-4.042969-18.273437-8.519531-30.953125-11.582031-49.15625-13.195312-1.289062-0.113282-2.777344-0.066407-4.242187-0.082032-3.976563 2.703125-8.339844 5.644532-9.011719 6.070313 0.847656 0 8.28125-0.433594 13.253906 0.011719 18.203125 1.613281 30.882813 4.675781 49.15625 13.195312 17.269532 8.046875 24.597656 8.914062 34.152344 4.042969 6.097656-3.109375 14.828125-9.75 21.347656-18.539063 5.582032-7.511718 8.90625-10.699218 14.089844-10.699218 5.074219 0 8.71875 3.347656 12.5625 9.210937 5.445312 8.304687 8.414062 14.230469 10.527344 28.699219 0.597656 4.132812 0.8125 10.640625 0.824218 17.445312 0.195313-8.976562-0.046874-18.070312-0.824218-23.445312-2.113282-14.46875-5.082032-20.394532-10.527344-28.699219-3.84375-5.863281-7.488281-9.210937-12.5625-9.210937zm-216 3.371093c-0.253906 5.238281-1.375 10.058594-4.625 16.363281-3.75 7.273438-7.84375 13.054688-15.941406 21.960938-14.582032 16.054688-24.941406 33.121094-29.496094 48.597656-1.648438 5.597656-2.285156 11.917969-2.039062 18.570313 0.222656-4.449219 0.894531-8.679688 2.039062-12.570313 4.554688-15.476562 14.914062-32.542968 29.496094-48.597656 8.097656-8.90625 12.191406-14.6875 15.941406-21.960938 4.433594-8.605468 4.96875-14.449218 4.625-22.363281z"
         style="fill:rgb(100%,100%,100%)"
         id="path940" />
    </g>
    <mask
       id="mask1">
      <g
         filter="url(#alpha)"
         id="g945">
        <rect
           width="384"
           height="384"
           style="fill-opacity:.2;fill:rgb(0%,0%,0%)"
           id="rect943" />
      </g>
    </mask>
    <clipPath
       id="clip2">
      <rect
         width="384"
         height="384"
         id="rect948" />
    </clipPath>
    <g
       id="surface8"
       clip-path="url(#clip2)">
      <path
         d="m243.25781 56.179688c-0.171874-0.011719-0.917968 0.210937-1.171874 0.246093-0.796876 1.09375-1.75 2.175781-2.929688 3.128907l-2.730469 2.203124 2.753907 1.640626c0.574218 0.339843 0.863281 0.640624 1.242187 0.960937 2.210937-2.1875 3.632813-4.71875 3.632813-6.761719 0-0.921875-0.027344-1.375-0.796876-1.417968zm-5.988281 12.082031c-3.363281 0.589843-5.847656 1.722656-5.847656 2.765625 0 0.257812 0.441406 2.878906 0.785156 4.980468 1.066407-0.785156 3.167969-1.507812 5.800781-1.886718 4.515626-0.652344 4.96875-2.46875 1.171876-4.722656zm-194.80078 7.859375c-0.199219 0.617187-0.386719 1.253906-0.46875 2.050781 0.355469 13.265625 9.480469 22.996094 19.710938 32.027344 1.269531-0.832031 2.652343-1.601563 4.289062-2.1875-10.800781-9.210938-21.386719-18.847657-23.53125-31.890625zm190.99219 21.246094c-0.230469 6.667968-0.914063 13.25-1.992188 17.625-3.410156 13.835937-8.582031 23.582031-17.402344 32.835937-6.867187 6.238281-26.257812 19.042969-28.070312 20.183594 0.632812 0 4.851562-0.136719 9.035156-0.082031 6.734375-4.582032 14.722656-10.179688 19.03125-14.097657 8.820312-9.25 13.996094-18.996093 17.402344-32.835937 1.414062-5.71875 2.066406-15.097656 1.992187-23.625zm-184.37109 30.574218c-0.414063 0.355469-0.71875 0.714844-1.171875 1.066406-1.417969 2.675782 0.214843 5.175782 4.804687 7.394532 5.921875 2.855468 11.992188 3.625 24.390625 3.035156 12.695313-0.609375 14.386719 1.269531 18.492188 4.664062 4.328125 3.601563 6.027343 7 6.394531 14.894532 0.007812 0.140625-0.003906 0.261718 0 0.398437 0.101562-2.035156 0.109375-4.132812 0-6.410156-0.367188-7.894531-2.066406-11.28125-6.394531-14.882813-4.105469-3.394531-5.796875-5.285156-18.492188-4.675781-12.398437 0.589844-18.46875-0.167969-24.390625-3.023437-1.621094-0.785156-2.753906-1.605469-3.632812-2.460938zm292.82422 89.4375c-0.175781 8.300782-0.71875 16.507813-1.617187 21.457032-11.171875 61.597656-50.480469 103.0625-110.49609 116.56641-16.195312 3.644531-22.71875 4.300781-45.160156 4.535156-11.644531 0.125-22.519531 0.085938-24.15625-0.082031v-0.011719c-37.652344-3.851562-63.890625-14.621094-83.273437-34.191406-7.828126-7.910156-13.144532-15.179688-17.5625-24.023438-5.847657-11.691406-9.1875-24.296875-9.75-35.90625-0.496094 13.167969 2.875 28.160156 9.75 41.90625 4.417968 8.84375 9.734374 16.117188 17.566406 24.023438 19.378906 19.570312 45.613281 30.355468 83.273437 34.207031 1.632813 0.167969 12.507813 0.203125 24.152344 0.082031 22.445313-0.234375 28.964844-0.890625 45.164063-4.535156 60.011718-13.5 99.324218-54.96875 110.49609-116.56641 1.121094-6.183594 1.640625-17.246094 1.617188-27.457032z"
         style="fill:rgb(0%,0%,0%)"
         id="path951" />
    </g>
    <linearGradient
       id="linearGradient1117"
       x1="-248.932"
       x2="249.882"
       y1="515.328"
       y2="249.017"
       gradientUnits="userSpaceOnUse">
      <stop
         style="stop-color:#4aaee6"
         offset="0"
         id="stop954" />
      <stop
         style="stop-color:#357af0"
         offset="1"
         id="stop956" />
    </linearGradient>
    <linearGradient
       gradientUnits="userSpaceOnUse"
       gradientTransform="scale(0.69850138,1.4316364)"
       x1="0"
       y1="116.54461"
       x2="186.14996"
       y2="116.54461"
       id="linearGradient-1">
      <stop
         stop-color="#FFFFFF"
         offset="0%"
         id="stop4511" />
      <stop
         stop-color="#FFFFFF"
         stop-opacity="0.9576"
         offset="14.13%"
         id="stop4513" />
      <stop
         stop-color="#FFFFFF"
         stop-opacity="0.7"
         offset="100%"
         id="stop4515" />
    </linearGradient>
    <linearGradient
       gradientUnits="userSpaceOnUse"
       gradientTransform="scale(0.68561406,1.4585465)"
       x1="187.35059"
       y1="112.26521"
       x2="373.38791"
       y2="112.26521"
       id="linearGradient-2">
      <stop
         stop-color="#F1F1F2"
         offset="0%"
         id="stop4518" />
      <stop
         stop-color="#E4E5E6"
         offset="9.191442%"
         id="stop4520" />
      <stop
         stop-color="#D9DADB"
         offset="23.57%"
         id="stop4522" />
      <stop
         stop-color="#D2D4D5"
         offset="43.8%"
         id="stop4524" />
      <stop
         stop-color="#D0D2D3"
         offset="100%"
         id="stop4526" />
    </linearGradient>
  </defs>
  <sodipodi:namedview
     id="base"
     pagecolor="#ffffff"
     bordercolor="#666666"
     borderopacity="1.0"
     inkscape:pageopacity="0.0"
     inkscape:pageshadow="2"
     inkscape:zoom="2.8"
     inkscape:cx="18.183875"
     inkscape:cy="22.73296"
     inkscape:document-units="mm"
     inkscape:current-layer="layer1"
     showgrid="false"
     units="px"
     inkscape:window-width="1920"
     inkscape:window-height="1022"
     inkscape:window-x="0"
     inkscape:window-y="30"
     inkscape:window-maximized="1" />
  <metadata
     id="metadata5">
    <rdf:RDF>
      <cc:Work
         rdf:about="">
        <dc:format>image/svg+xml</dc:format>
        <dc:type
           rdf:resource="http://purl.org/dc/dcmitype/StillImage" />
        <dc:title></dc:title>
      </cc:Work>
    </rdf:RDF>
  </metadata>
  <g
     inkscape:label="Capa 1"
     inkscape:groupmode="layer"
     id="layer1"
     transform="translate(0,-280.06665)">
    <circle
       style="opacity:1;fill:url(#linearGradient820);fill-opacity:1;stroke:none;stroke-width:0.185;stroke-linecap:round;stroke-linejoin:round;stroke-miterlimit:4;stroke-dasharray:none;stroke-opacity:1"
       id="path815"
       cx="8.4691038"
       cy="288.53088"
       r="8.2018337" />
    <path
       style="color:#000000;font-style:normal;font-variant:normal;font-weight:normal;font-stretch:normal;font-size:medium;line-height:normal;font-family:sans-serif;font-variant-ligatures:normal;font-variant-position:normal;font-variant-caps:normal;font-variant-numeric:normal;font-variant-alternates:normal;font-feature-settings:normal;text-indent:0;text-align:start;text-decoration:none;text-decoration-line:none;text-decoration-style:solid;text-decoration-color:#000000;letter-spacing:normal;word-spacing:normal;text-transform:none;writing-mode:lr-tb;direction:ltr;text-orientation:mixed;dominant-baseline:auto;baseline-shift:baseline;text-anchor:start;white-space:normal;shape-padding:0;clip-rule:nonzero;display:inline;overflow:visible;visibility:visible;opacity:1;isolation:auto;mix-blend-mode:normal;color-interpolation:sRGB;color-interpolation-filters:linearRGB;solid-color:#000000;solid-opacity:1;vector-effect:none;fill:url(#linearGradient828);fill-opacity:1;fill-rule:nonzero;stroke:none;stroke-width:0.185;stroke-linecap:round;stroke-linejoin:round;stroke-miterlimit:4;stroke-dasharray:none;stroke-dashoffset:0;stroke-opacity:1;color-rendering:auto;image-rendering:auto;shape-rendering:auto;text-rendering:auto;enable-background:accumulate"
       d="m 8.46875,280.23633 c -4.5797384,0 -8.29492188,3.71518 -8.29492188,8.29492 10e-9,4.57974 3.71518348,8.29492 8.29492188,8.29492 4.579738,0 8.294922,-3.71518 8.294922,-8.29492 0,-4.09915 -2.976364,-7.50567 -6.8850044,-8.17548 -0.4582559,-0.0785 -0.9293264,-0.11944 -1.4099176,-0.11944 z m 0,0.18555 c 4.479757,0 8.109375,3.62961 8.109375,8.10937 0,4.47976 -3.629618,8.10937 -8.109375,8.10937 -4.479757,0 -8.109375,-3.62961 -8.109375,-8.10937 0,-4.47976 3.629618,-8.10937 8.109375,-8.10937 z"
       id="circle821"
       inkscape:connector-curvature="0"
       sodipodi:nodetypes="sssssssssss" />
    <g
       id="g1450"
       transform="translate(-21.355639,-1.140474e-6)">
      <path
         inkscape:connector-curvature="0"
         id="path1306"
         d="m 29.821904,283.00828 c -0.119553,0 -0.238327,0.05 -0.330213,0.13694 l -5.08186,4.80694 c -0.109511,0.10374 -0.178801,0.26046 -0.186552,0.4222 -0.0078,0.16171 0.04626,0.32625 0.145211,0.44286 l 5.08186,5.99035 c 0.09683,0.11411 0.235122,0.18137 0.374654,0.18137 0.139532,0 0.278337,-0.0673 0.375171,-0.18137 l 5.081344,-5.99035 c 0.09888,-0.11669 0.152564,-0.28112 0.144694,-0.44286 -0.0079,-0.16174 -0.07695,-0.31854 -0.186552,-0.4222 l -5.08186,-4.80694 c -0.09336,-0.0883 -0.214431,-0.13771 -0.335897,-0.13694 z m -0.0057,0.99374 c 0.108709,-7.9e-4 0.217207,0.0435 0.300757,0.12247 l 2.273763,2.15077 0.971517,0.91882 c 0.302062,0.28575 -0.194511,0.36502 -0.372587,0.39015 -0.607584,0.0854 -0.975843,-0.90773 -1.58905,-0.92863 -0.838747,-0.0284 -1.619862,1.1553 -2.254643,1.12035 -0.574621,-0.0316 -0.522923,-1.16509 -1.026294,-1.11673 -0.386876,0.0372 -0.108123,0.8631 -0.611332,0.99322 -0.202147,0.0422 -1.737683,-0.112 -1.204061,-0.50022 0.02379,-0.023 0.04873,-0.047 0.07441,-0.0713 0.257317,-0.24522 0.601124,-0.5537 0.867647,-0.80563 l 2.27428,-2.15077 c 0.08223,-0.0778 0.188594,-0.12247 0.295589,-0.12247 z"
         style="fill:none;fill-opacity:1;fill-rule:evenodd;stroke:#000000;stroke-width:0.1;stroke-linecap:round;stroke-linejoin:round;stroke-miterlimit:4;stroke-dasharray:none;stroke-opacity:0.00784314" />
      <path
         style="fill:none;fill-opacity:1;fill-rule:evenodd;stroke:#000000;stroke-width:0.2;stroke-linecap:round;stroke-linejoin:round;stroke-miterlimit:4;stroke-dasharray:none;stroke-opacity:0.00784314"
         d="m 29.821904,283.00828 c -0.119553,0 -0.238327,0.05 -0.330213,0.13694 l -5.08186,4.80694 c -0.109511,0.10374 -0.178801,0.26046 -0.186552,0.4222 -0.0078,0.16171 0.04626,0.32625 0.145211,0.44286 l 5.08186,5.99035 c 0.09683,0.11411 0.235122,0.18137 0.374654,0.18137 0.139532,0 0.278337,-0.0673 0.375171,-0.18137 l 5.081344,-5.99035 c 0.09888,-0.11669 0.152564,-0.28112 0.144694,-0.44286 -0.0079,-0.16174 -0.07695,-0.31854 -0.186552,-0.4222 l -5.08186,-4.80694 c -0.09336,-0.0883 -0.214431,-0.13771 -0.335897,-0.13694 z m -0.0057,0.99374 c 0.108709,-7.9e-4 0.217207,0.0435 0.300757,0.12247 l 2.273763,2.15077 0.971517,0.91882 c 0.302062,0.28575 -0.194511,0.36502 -0.372587,0.39015 -0.607584,0.0854 -0.975843,-0.90773 -1.58905,-0.92863 -0.838747,-0.0284 -1.619862,1.1553 -2.254643,1.12035 -0.574621,-0.0316 -0.522923,-1.16509 -1.026294,-1.11673 -0.386876,0.0372 -0.108123,0.8631 -0.611332,0.99322 -0.202147,0.0422 -1.737683,-0.112 -1.204061,-0.50022 0.02379,-0.023 0.04873,-0.047 0.07441,-0.0713 0.257317,-0.24522 0.601124,-0.5537 0.867647,-0.80563 l 2.27428,-2.15077 c 0.08223,-0.0778 0.188594,-0.12247 0.295589,-0.12247 z"
         id="path1310"
         inkscape:connector-curvature="0" />
      <path
         inkscape:connector-curvature="0"
         id="path1314"
         d="m 29.821904,283.00828 c -0.119553,0 -0.238327,0.05 -0.330213,0.13694 l -5.08186,4.80694 c -0.109511,0.10374 -0.178801,0.26046 -0.186552,0.4222 -0.0078,0.16171 0.04626,0.32625 0.145211,0.44286 l 5.08186,5.99035 c 0.09683,0.11411 0.235122,0.18137 0.374654,0.18137 0.139532,0 0.278337,-0.0673 0.375171,-0.18137 l 5.081344,-5.99035 c 0.09888,-0.11669 0.152564,-0.28112 0.144694,-0.44286 -0.0079,-0.16174 -0.07695,-0.31854 -0.186552,-0.4222 l -5.08186,-4.80694 c -0.09336,-0.0883 -0.214431,-0.13771 -0.335897,-0.13694 z m -0.0057,0.99374 c 0.108709,-7.9e-4 0.217207,0.0435 0.300757,0.12247 l 2.273763,2.15077 0.971517,0.91882 c 0.302062,0.28575 -0.194511,0.36502 -0.372587,0.39015 -0.607584,0.0854 -0.975843,-0.90773 -1.58905,-0.92863 -0.838747,-0.0284 -1.619862,1.1553 -2.254643,1.12035 -0.574621,-0.0316 -0.522923,-1.16509 -1.026294,-1.11673 -0.386876,0.0372 -0.108123,0.8631 -0.611332,0.99322 -0.202147,0.0422 -1.737683,-0.112 -1.204061,-0.50022 0.02379,-0.023 0.04873,-0.047 0.07441,-0.0713 0.257317,-0.24522 0.601124,-0.5537 0.867647,-0.80563 l 2.27428,-2.15077 c 0.08223,-0.0778 0.188594,-0.12247 0.295589,-0.12247 z"
         style="fill:none;fill-opacity:1;fill-rule:evenodd;stroke:#000000;stroke-width:0.30000001;stroke-linecap:round;stroke-linejoin:round;stroke-miterlimit:4;stroke-dasharray:none;stroke-opacity:0.00784314" />
      <path
         style="fill:none;fill-opacity:1;fill-rule:evenodd;stroke:#000000;stroke-width:0.40000001;stroke-linecap:round;stroke-linejoin:round;stroke-miterlimit:4;stroke-dasharray:none;stroke-opacity:0.00784314"
         d="m 29.821904,283.00828 c -0.119553,0 -0.238327,0.05 -0.330213,0.13694 l -5.08186,4.80694 c -0.109511,0.10374 -0.178801,0.26046 -0.186552,0.4222 -0.0078,0.16171 0.04626,0.32625 0.145211,0.44286 l 5.08186,5.99035 c 0.09683,0.11411 0.235122,0.18137 0.374654,0.18137 0.139532,0 0.278337,-0.0673 0.375171,-0.18137 l 5.081344,-5.99035 c 0.09888,-0.11669 0.152564,-0.28112 0.144694,-0.44286 -0.0079,-0.16174 -0.07695,-0.31854 -0.186552,-0.4222 l -5.08186,-4.80694 c -0.09336,-0.0883 -0.214431,-0.13771 -0.335897,-0.13694 z m -0.0057,0.99374 c 0.108709,-7.9e-4 0.217207,0.0435 0.300757,0.12247 l 2.273763,2.15077 0.971517,0.91882 c 0.302062,0.28575 -0.194511,0.36502 -0.372587,0.39015 -0.607584,0.0854 -0.975843,-0.90773 -1.58905,-0.92863 -0.838747,-0.0284 -1.619862,1.1553 -2.254643,1.12035 -0.574621,-0.0316 -0.522923,-1.16509 -1.026294,-1.11673 -0.386876,0.0372 -0.108123,0.8631 -0.611332,0.99322 -0.202147,0.0422 -1.737683,-0.112 -1.204061,-0.50022 0.02379,-0.023 0.04873,-0.047 0.07441,-0.0713 0.257317,-0.24522 0.601124,-0.5537 0.867647,-0.80563 l 2.27428,-2.15077 c 0.08223,-0.0778 0.188594,-0.12247 0.295589,-0.12247 z"
         id="path1318"
         inkscape:connector-curvature="0" />
      <path
         inkscape:connector-curvature="0"
         id="path1322"
         d="m 29.821904,283.00828 c -0.119553,0 -0.238327,0.05 -0.330213,0.13694 l -5.08186,4.80694 c -0.109511,0.10374 -0.178801,0.26046 -0.186552,0.4222 -0.0078,0.16171 0.04626,0.32625 0.145211,0.44286 l 5.08186,5.99035 c 0.09683,0.11411 0.235122,0.18137 0.374654,0.18137 0.139532,0 0.278337,-0.0673 0.375171,-0.18137 l 5.081344,-5.99035 c 0.09888,-0.11669 0.152564,-0.28112 0.144694,-0.44286 -0.0079,-0.16174 -0.07695,-0.31854 -0.186552,-0.4222 l -5.08186,-4.80694 c -0.09336,-0.0883 -0.214431,-0.13771 -0.335897,-0.13694 z m -0.0057,0.99374 c 0.108709,-7.9e-4 0.217207,0.0435 0.300757,0.12247 l 2.273763,2.15077 0.971517,0.91882 c 0.302062,0.28575 -0.194511,0.36502 -0.372587,0.39015 -0.607584,0.0854 -0.975843,-0.90773 -1.58905,-0.92863 -0.838747,-0.0284 -1.619862,1.1553 -2.254643,1.12035 -0.574621,-0.0316 -0.522923,-1.16509 -1.026294,-1.11673 -0.386876,0.0372 -0.108123,0.8631 -0.611332,0.99322 -0.202147,0.0422 -1.737683,-0.112 -1.204061,-0.50022 0.02379,-0.023 0.04873,-0.047 0.07441,-0.0713 0.257317,-0.24522 0.601124,-0.5537 0.867647,-0.80563 l 2.27428,-2.15077 c 0.08223,-0.0778 0.188594,-0.12247 0.295589,-0.12247 z"
         style="fill:none;fill-opacity:1;fill-rule:evenodd;stroke:#000000;stroke-width:0.5;stroke-linecap:round;stroke-linejoin:round;stroke-miterlimit:4;stroke-dasharray:none;stroke-opacity:0.00784314" />
      <path
         style="fill:none;fill-opacity:1;fill-rule:evenodd;stroke:#000000;stroke-width:0.60000002;stroke-linecap:round;stroke-linejoin:round;stroke-miterlimit:4;stroke-dasharray:none;stroke-opacity:0.00784314"
         d="m 29.821904,283.00828 c -0.119553,0 -0.238327,0.05 -0.330213,0.13694 l -5.08186,4.80694 c -0.109511,0.10374 -0.178801,0.26046 -0.186552,0.4222 -0.0078,0.16171 0.04626,0.32625 0.145211,0.44286 l 5.08186,5.99035 c 0.09683,0.11411 0.235122,0.18137 0.374654,0.18137 0.139532,0 0.278337,-0.0673 0.375171,-0.18137 l 5.081344,-5.99035 c 0.09888,-0.11669 0.152564,-0.28112 0.144694,-0.44286 -0.0079,-0.16174 -0.07695,-0.31854 -0.186552,-0.4222 l -5.08186,-4.80694 c -0.09336,-0.0883 -0.214431,-0.13771 -0.335897,-0.13694 z m -0.0057,0.99374 c 0.108709,-7.9e-4 0.217207,0.0435 0.300757,0.12247 l 2.273763,2.15077 0.971517,0.91882 c 0.302062,0.28575 -0.194511,0.36502 -0.372587,0.39015 -0.607584,0.0854 -0.975843,-0.90773 -1.58905,-0.92863 -0.838747,-0.0284 -1.619862,1.1553 -2.254643,1.12035 -0.574621,-0.0316 -0.522923,-1.16509 -1.026294,-1.11673 -0.386876,0.0372 -0.108123,0.8631 -0.611332,0.99322 -0.202147,0.0422 -1.737683,-0.112 -1.204061,-0.50022 0.02379,-0.023 0.04873,-0.047 0.07441,-0.0713 0.257317,-0.24522 0.601124,-0.5537 0.867647,-0.80563 l 2.27428,-2.15077 c 0.08223,-0.0778 0.188594,-0.12247 0.295589,-0.12247 z"
         id="path1326"
         inkscape:connector-curvature="0" />
      <path
         inkscape:connector-curvature="0"
         id="path1330"
         d="m 29.821904,283.00828 c -0.119553,0 -0.238327,0.05 -0.330213,0.13694 l -5.08186,4.80694 c -0.109511,0.10374 -0.178801,0.26046 -0.186552,0.4222 -0.0078,0.16171 0.04626,0.32625 0.145211,0.44286 l 5.08186,5.99035 c 0.09683,0.11411 0.235122,0.18137 0.374654,0.18137 0.139532,0 0.278337,-0.0673 0.375171,-0.18137 l 5.081344,-5.99035 c 0.09888,-0.11669 0.152564,-0.28112 0.144694,-0.44286 -0.0079,-0.16174 -0.07695,-0.31854 -0.186552,-0.4222 l -5.08186,-4.80694 c -0.09336,-0.0883 -0.214431,-0.13771 -0.335897,-0.13694 z m -0.0057,0.99374 c 0.108709,-7.9e-4 0.217207,0.0435 0.300757,0.12247 l 2.273763,2.15077 0.971517,0.91882 c 0.302062,0.28575 -0.194511,0.36502 -0.372587,0.39015 -0.607584,0.0854 -0.975843,-0.90773 -1.58905,-0.92863 -0.838747,-0.0284 -1.619862,1.1553 -2.254643,1.12035 -0.574621,-0.0316 -0.522923,-1.16509 -1.026294,-1.11673 -0.386876,0.0372 -0.108123,0.8631 -0.611332,0.99322 -0.202147,0.0422 -1.737683,-0.112 -1.204061,-0.50022 0.02379,-0.023 0.04873,-0.047 0.07441,-0.0713 0.257317,-0.24522 0.601124,-0.5537 0.867647,-0.80563 l 2.27428,-2.15077 c 0.08223,-0.0778 0.188594,-0.12247 0.295589,-0.12247 z"
         style="fill:none;fill-opacity:1;fill-rule:evenodd;stroke:#000000;stroke-width:0.69999999;stroke-linecap:round;stroke-linejoin:round;stroke-miterlimit:4;stroke-dasharray:none;stroke-opacity:0.00784314" />
      <path
         style="fill:none;fill-opacity:1;fill-rule:evenodd;stroke:#000000;stroke-width:0.80000001;stroke-linecap:round;stroke-linejoin:round;stroke-miterlimit:4;stroke-dasharray:none;stroke-opacity:0.00784314"
         d="m 29.821904,283.00828 c -0.119553,0 -0.238327,0.05 -0.330213,0.13694 l -5.08186,4.80694 c -0.109511,0.10374 -0.178801,0.26046 -0.186552,0.4222 -0.0078,0.16171 0.04626,0.32625 0.145211,0.44286 l 5.08186,5.99035 c 0.09683,0.11411 0.235122,0.18137 0.374654,0.18137 0.139532,0 0.278337,-0.0673 0.375171,-0.18137 l 5.081344,-5.99035 c 0.09888,-0.11669 0.152564,-0.28112 0.144694,-0.44286 -0.0079,-0.16174 -0.07695,-0.31854 -0.186552,-0.4222 l -5.08186,-4.80694 c -0.09336,-0.0883 -0.214431,-0.13771 -0.335897,-0.13694 z m -0.0057,0.99374 c 0.108709,-7.9e-4 0.217207,0.0435 0.300757,0.12247 l 2.273763,2.15077 0.971517,0.91882 c 0.302062,0.28575 -0.194511,0.36502 -0.372587,0.39015 -0.607584,0.0854 -0.975843,-0.90773 -1.58905,-0.92863 -0.838747,-0.0284 -1.619862,1.1553 -2.254643,1.12035 -0.574621,-0.0316 -0.522923,-1.16509 -1.026294,-1.11673 -0.386876,0.0372 -0.108123,0.8631 -0.611332,0.99322 -0.202147,0.0422 -1.737683,-0.112 -1.204061,-0.50022 0.02379,-0.023 0.04873,-0.047 0.07441,-0.0713 0.257317,-0.24522 0.601124,-0.5537 0.867647,-0.80563 l 2.27428,-2.15077 c 0.08223,-0.0778 0.188594,-0.12247 0.295589,-0.12247 z"
         id="path1334"
         inkscape:connector-curvature="0" />
      <path
         inkscape:connector-curvature="0"
         id="path1338"
         d="m 29.821904,283.00828 c -0.119553,0 -0.238327,0.05 -0.330213,0.13694 l -5.08186,4.80694 c -0.109511,0.10374 -0.178801,0.26046 -0.186552,0.4222 -0.0078,0.16171 0.04626,0.32625 0.145211,0.44286 l 5.08186,5.99035 c 0.09683,0.11411 0.235122,0.18137 0.374654,0.18137 0.139532,0 0.278337,-0.0673 0.375171,-0.18137 l 5.081344,-5.99035 c 0.09888,-0.11669 0.152564,-0.28112 0.144694,-0.44286 -0.0079,-0.16174 -0.07695,-0.31854 -0.186552,-0.4222 l -5.08186,-4.80694 c -0.09336,-0.0883 -0.214431,-0.13771 -0.335897,-0.13694 z m -0.0057,0.99374 c 0.108709,-7.9e-4 0.217207,0.0435 0.300757,0.12247 l 2.273763,2.15077 0.971517,0.91882 c 0.302062,0.28575 -0.194511,0.36502 -0.372587,0.39015 -0.607584,0.0854 -0.975843,-0.90773 -1.58905,-0.92863 -0.838747,-0.0284 -1.619862,1.1553 -2.254643,1.12035 -0.574621,-0.0316 -0.522923,-1.16509 -1.026294,-1.11673 -0.386876,0.0372 -0.108123,0.8631 -0.611332,0.99322 -0.202147,0.0422 -1.737683,-0.112 -1.204061,-0.50022 0.02379,-0.023 0.04873,-0.047 0.07441,-0.0713 0.257317,-0.24522 0.601124,-0.5537 0.867647,-0.80563 l 2.27428,-2.15077 c 0.08223,-0.0778 0.188594,-0.12247 0.295589,-0.12247 z"
         style="fill:none;fill-opacity:1;fill-rule:evenodd;stroke:#000000;stroke-width:0.89999998;stroke-linecap:round;stroke-linejoin:round;stroke-miterlimit:4;stroke-dasharray:none;stroke-opacity:0.00784314" />
      <path
         style="fill:none;fill-opacity:1;fill-rule:evenodd;stroke:#000000;stroke-width:1;stroke-linecap:round;stroke-linejoin:round;stroke-miterlimit:4;stroke-dasharray:none;stroke-opacity:0.00784314"
         d="m 29.821904,283.00828 c -0.119553,0 -0.238327,0.05 -0.330213,0.13694 l -5.08186,4.80694 c -0.109511,0.10374 -0.178801,0.26046 -0.186552,0.4222 -0.0078,0.16171 0.04626,0.32625 0.145211,0.44286 l 5.08186,5.99035 c 0.09683,0.11411 0.235122,0.18137 0.374654,0.18137 0.139532,0 0.278337,-0.0673 0.375171,-0.18137 l 5.081344,-5.99035 c 0.09888,-0.11669 0.152564,-0.28112 0.144694,-0.44286 -0.0079,-0.16174 -0.07695,-0.31854 -0.186552,-0.4222 l -5.08186,-4.80694 c -0.09336,-0.0883 -0.214431,-0.13771 -0.335897,-0.13694 z m -0.0057,0.99374 c 0.108709,-7.9e-4 0.217207,0.0435 0.300757,0.12247 l 2.273763,2.15077 0.971517,0.91882 c 0.302062,0.28575 -0.194511,0.36502 -0.372587,0.39015 -0.607584,0.0854 -0.975843,-0.90773 -1.58905,-0.92863 -0.838747,-0.0284 -1.619862,1.1553 -2.254643,1.12035 -0.574621,-0.0316 -0.522923,-1.16509 -1.026294,-1.11673 -0.386876,0.0372 -0.108123,0.8631 -0.611332,0.99322 -0.202147,0.0422 -1.737683,-0.112 -1.204061,-0.50022 0.02379,-0.023 0.04873,-0.047 0.07441,-0.0713 0.257317,-0.24522 0.601124,-0.5537 0.867647,-0.80563 l 2.27428,-2.15077 c 0.08223,-0.0778 0.188594,-0.12247 0.295589,-0.12247 z"
         id="path1342"
         inkscape:connector-curvature="0" />
      <path
         inkscape:connector-curvature="0"
         id="path1346"
         d="m 29.821904,283.00828 c -0.119553,0 -0.238327,0.05 -0.330213,0.13694 l -5.08186,4.80694 c -0.109511,0.10374 -0.178801,0.26046 -0.186552,0.4222 -0.0078,0.16171 0.04626,0.32625 0.145211,0.44286 l 5.08186,5.99035 c 0.09683,0.11411 0.235122,0.18137 0.374654,0.18137 0.139532,0 0.278337,-0.0673 0.375171,-0.18137 l 5.081344,-5.99035 c 0.09888,-0.11669 0.152564,-0.28112 0.144694,-0.44286 -0.0079,-0.16174 -0.07695,-0.31854 -0.186552,-0.4222 l -5.08186,-4.80694 c -0.09336,-0.0883 -0.214431,-0.13771 -0.335897,-0.13694 z m -0.0057,0.99374 c 0.108709,-7.9e-4 0.217207,0.0435 0.300757,0.12247 l 2.273763,2.15077 0.971517,0.91882 c 0.302062,0.28575 -0.194511,0.36502 -0.372587,0.39015 -0.607584,0.0854 -0.975843,-0.90773 -1.58905,-0.92863 -0.838747,-0.0284 -1.619862,1.1553 -2.254643,1.12035 -0.574621,-0.0316 -0.522923,-1.16509 -1.026294,-1.11673 -0.386876,0.0372 -0.108123,0.8631 -0.611332,0.99322 -0.202147,0.0422 -1.737683,-0.112 -1.204061,-0.50022 0.02379,-0.023 0.04873,-0.047 0.07441,-0.0713 0.257317,-0.24522 0.601124,-0.5537 0.867647,-0.80563 l 2.27428,-2.15077 c 0.08223,-0.0778 0.188594,-0.12247 0.295589,-0.12247 z"
         style="fill:none;fill-opacity:1;fill-rule:evenodd;stroke:#000000;stroke-width:1.10000002;stroke-linecap:round;stroke-linejoin:round;stroke-miterlimit:4;stroke-dasharray:none;stroke-opacity:0.00784314" />
      <path
         style="fill:none;fill-opacity:1;fill-rule:evenodd;stroke:#000000;stroke-width:1.20000005;stroke-linecap:round;stroke-linejoin:round;stroke-miterlimit:4;stroke-dasharray:none;stroke-opacity:0.00784314"
         d="m 29.821904,283.00828 c -0.119553,0 -0.238327,0.05 -0.330213,0.13694 l -5.08186,4.80694 c -0.109511,0.10374 -0.178801,0.26046 -0.186552,0.4222 -0.0078,0.16171 0.04626,0.32625 0.145211,0.44286 l 5.08186,5.99035 c 0.09683,0.11411 0.235122,0.18137 0.374654,0.18137 0.139532,0 0.278337,-0.0673 0.375171,-0.18137 l 5.081344,-5.99035 c 0.09888,-0.11669 0.152564,-0.28112 0.144694,-0.44286 -0.0079,-0.16174 -0.07695,-0.31854 -0.186552,-0.4222 l -5.08186,-4.80694 c -0.09336,-0.0883 -0.214431,-0.13771 -0.335897,-0.13694 z m -0.0057,0.99374 c 0.108709,-7.9e-4 0.217207,0.0435 0.300757,0.12247 l 2.273763,2.15077 0.971517,0.91882 c 0.302062,0.28575 -0.194511,0.36502 -0.372587,0.39015 -0.607584,0.0854 -0.975843,-0.90773 -1.58905,-0.92863 -0.838747,-0.0284 -1.619862,1.1553 -2.254643,1.12035 -0.574621,-0.0316 -0.522923,-1.16509 -1.026294,-1.11673 -0.386876,0.0372 -0.108123,0.8631 -0.611332,0.99322 -0.202147,0.0422 -1.737683,-0.112 -1.204061,-0.50022 0.02379,-0.023 0.04873,-0.047 0.07441,-0.0713 0.257317,-0.24522 0.601124,-0.5537 0.867647,-0.80563 l 2.27428,-2.15077 c 0.08223,-0.0778 0.188594,-0.12247 0.295589,-0.12247 z"
         id="path1350"
         inkscape:connector-curvature="0" />
      <path
         inkscape:connector-curvature="0"
         id="path1354"
         d="m 29.821904,283.00828 c -0.119553,0 -0.238327,0.05 -0.330213,0.13694 l -5.08186,4.80694 c -0.109511,0.10374 -0.178801,0.26046 -0.186552,0.4222 -0.0078,0.16171 0.04626,0.32625 0.145211,0.44286 l 5.08186,5.99035 c 0.09683,0.11411 0.235122,0.18137 0.374654,0.18137 0.139532,0 0.278337,-0.0673 0.375171,-0.18137 l 5.081344,-5.99035 c 0.09888,-0.11669 0.152564,-0.28112 0.144694,-0.44286 -0.0079,-0.16174 -0.07695,-0.31854 -0.186552,-0.4222 l -5.08186,-4.80694 c -0.09336,-0.0883 -0.214431,-0.13771 -0.335897,-0.13694 z m -0.0057,0.99374 c 0.108709,-7.9e-4 0.217207,0.0435 0.300757,0.12247 l 2.273763,2.15077 0.971517,0.91882 c 0.302062,0.28575 -0.194511,0.36502 -0.372587,0.39015 -0.607584,0.0854 -0.975843,-0.90773 -1.58905,-0.92863 -0.838747,-0.0284 -1.619862,1.1553 -2.254643,1.12035 -0.574621,-0.0316 -0.522923,-1.16509 -1.026294,-1.11673 -0.386876,0.0372 -0.108123,0.8631 -0.611332,0.99322 -0.202147,0.0422 -1.737683,-0.112 -1.204061,-0.50022 0.02379,-0.023 0.04873,-0.047 0.07441,-0.0713 0.257317,-0.24522 0.601124,-0.5537 0.867647,-0.80563 l 2.27428,-2.15077 c 0.08223,-0.0778 0.188594,-0.12247 0.295589,-0.12247 z"
         style="fill:none;fill-opacity:1;fill-rule:evenodd;stroke:#000000;stroke-width:1.39999998;stroke-linecap:round;stroke-linejoin:round;stroke-miterlimit:4;stroke-dasharray:none;stroke-opacity:0.00784314" />
      <path
         style="fill:none;fill-opacity:1;fill-rule:evenodd;stroke:#000000;stroke-width:1.60000002;stroke-linecap:round;stroke-linejoin:round;stroke-miterlimit:4;stroke-dasharray:none;stroke-opacity:0.00784314"
         d="m 29.821904,283.00828 c -0.119553,0 -0.238327,0.05 -0.330213,0.13694 l -5.08186,4.80694 c -0.109511,0.10374 -0.178801,0.26046 -0.186552,0.4222 -0.0078,0.16171 0.04626,0.32625 0.145211,0.44286 l 5.08186,5.99035 c 0.09683,0.11411 0.235122,0.18137 0.374654,0.18137 0.139532,0 0.278337,-0.0673 0.375171,-0.18137 l 5.081344,-5.99035 c 0.09888,-0.11669 0.152564,-0.28112 0.144694,-0.44286 -0.0079,-0.16174 -0.07695,-0.31854 -0.186552,-0.4222 l -5.08186,-4.80694 c -0.09336,-0.0883 -0.214431,-0.13771 -0.335897,-0.13694 z m -0.0057,0.99374 c 0.108709,-7.9e-4 0.217207,0.0435 0.300757,0.12247 l 2.273763,2.15077 0.971517,0.91882 c 0.302062,0.28575 -0.194511,0.36502 -0.372587,0.39015 -0.607584,0.0854 -0.975843,-0.90773 -1.58905,-0.92863 -0.838747,-0.0284 -1.619862,1.1553 -2.254643,1.12035 -0.574621,-0.0316 -0.522923,-1.16509 -1.026294,-1.11673 -0.386876,0.0372 -0.108123,0.8631 -0.611332,0.99322 -0.202147,0.0422 -1.737683,-0.112 -1.204061,-0.50022 0.02379,-0.023 0.04873,-0.047 0.07441,-0.0713 0.257317,-0.24522 0.601124,-0.5537 0.867647,-0.80563 l 2.27428,-2.15077 c 0.08223,-0.0778 0.188594,-0.12247 0.295589,-0.12247 z"
         id="path1358"
         inkscape:connector-curvature="0" />
      <path
         inkscape:connector-curvature="0"
         id="path1362"
         d="m 29.821904,283.00828 c -0.119553,0 -0.238327,0.05 -0.330213,0.13694 l -5.08186,4.80694 c -0.109511,0.10374 -0.178801,0.26046 -0.186552,0.4222 -0.0078,0.16171 0.04626,0.32625 0.145211,0.44286 l 5.08186,5.99035 c 0.09683,0.11411 0.235122,0.18137 0.374654,0.18137 0.139532,0 0.278337,-0.0673 0.375171,-0.18137 l 5.081344,-5.99035 c 0.09888,-0.11669 0.152564,-0.28112 0.144694,-0.44286 -0.0079,-0.16174 -0.07695,-0.31854 -0.186552,-0.4222 l -5.08186,-4.80694 c -0.09336,-0.0883 -0.214431,-0.13771 -0.335897,-0.13694 z m -0.0057,0.99374 c 0.108709,-7.9e-4 0.217207,0.0435 0.300757,0.12247 l 2.273763,2.15077 0.971517,0.91882 c 0.302062,0.28575 -0.194511,0.36502 -0.372587,0.39015 -0.607584,0.0854 -0.975843,-0.90773 -1.58905,-0.92863 -0.838747,-0.0284 -1.619862,1.1553 -2.254643,1.12035 -0.574621,-0.0316 -0.522923,-1.16509 -1.026294,-1.11673 -0.386876,0.0372 -0.108123,0.8631 -0.611332,0.99322 -0.202147,0.0422 -1.737683,-0.112 -1.204061,-0.50022 0.02379,-0.023 0.04873,-0.047 0.07441,-0.0713 0.257317,-0.24522 0.601124,-0.5537 0.867647,-0.80563 l 2.27428,-2.15077 c 0.08223,-0.0778 0.188594,-0.12247 0.295589,-0.12247 z"
         style="fill:none;fill-opacity:1;fill-rule:evenodd;stroke:#000000;stroke-width:1.79999995;stroke-linecap:round;stroke-linejoin:round;stroke-miterlimit:4;stroke-dasharray:none;stroke-opacity:0.00784314" />
      <path
         style="fill:none;fill-opacity:1;fill-rule:evenodd;stroke:#000000;stroke-width:2;stroke-linecap:round;stroke-linejoin:round;stroke-miterlimit:4;stroke-dasharray:none;stroke-opacity:0.00784314"
         d="m 29.821904,283.00828 c -0.119553,0 -0.238327,0.05 -0.330213,0.13694 l -5.08186,4.80694 c -0.109511,0.10374 -0.178801,0.26046 -0.186552,0.4222 -0.0078,0.16171 0.04626,0.32625 0.145211,0.44286 l 5.08186,5.99035 c 0.09683,0.11411 0.235122,0.18137 0.374654,0.18137 0.139532,0 0.278337,-0.0673 0.375171,-0.18137 l 5.081344,-5.99035 c 0.09888,-0.11669 0.152564,-0.28112 0.144694,-0.44286 -0.0079,-0.16174 -0.07695,-0.31854 -0.186552,-0.4222 l -5.08186,-4.80694 c -0.09336,-0.0883 -0.214431,-0.13771 -0.335897,-0.13694 z m -0.0057,0.99374 c 0.108709,-7.9e-4 0.217207,0.0435 0.300757,0.12247 l 2.273763,2.15077 0.971517,0.91882 c 0.302062,0.28575 -0.194511,0.36502 -0.372587,0.39015 -0.607584,0.0854 -0.975843,-0.90773 -1.58905,-0.92863 -0.838747,-0.0284 -1.619862,1.1553 -2.254643,1.12035 -0.574621,-0.0316 -0.522923,-1.16509 -1.026294,-1.11673 -0.386876,0.0372 -0.108123,0.8631 -0.611332,0.99322 -0.202147,0.0422 -1.737683,-0.112 -1.204061,-0.50022 0.02379,-0.023 0.04873,-0.047 0.07441,-0.0713 0.257317,-0.24522 0.601124,-0.5537 0.867647,-0.80563 l 2.27428,-2.15077 c 0.08223,-0.0778 0.188594,-0.12247 0.295589,-0.12247 z"
         id="path1366"
         inkscape:connector-curvature="0" />
      <path
         inkscape:connector-curvature="0"
         id="path1370"
         d="m 29.821904,283.00828 c -0.119553,0 -0.238327,0.05 -0.330213,0.13694 l -5.08186,4.80694 c -0.109511,0.10374 -0.178801,0.26046 -0.186552,0.4222 -0.0078,0.16171 0.04626,0.32625 0.145211,0.44286 l 5.08186,5.99035 c 0.09683,0.11411 0.235122,0.18137 0.374654,0.18137 0.139532,0 0.278337,-0.0673 0.375171,-0.18137 l 5.081344,-5.99035 c 0.09888,-0.11669 0.152564,-0.28112 0.144694,-0.44286 -0.0079,-0.16174 -0.07695,-0.31854 -0.186552,-0.4222 l -5.08186,-4.80694 c -0.09336,-0.0883 -0.214431,-0.13771 -0.335897,-0.13694 z m -0.0057,0.99374 c 0.108709,-7.9e-4 0.217207,0.0435 0.300757,0.12247 l 2.273763,2.15077 0.971517,0.91882 c 0.302062,0.28575 -0.194511,0.36502 -0.372587,0.39015 -0.607584,0.0854 -0.975843,-0.90773 -1.58905,-0.92863 -0.838747,-0.0284 -1.619862,1.1553 -2.254643,1.12035 -0.574621,-0.0316 -0.522923,-1.16509 -1.026294,-1.11673 -0.386876,0.0372 -0.108123,0.8631 -0.611332,0.99322 -0.202147,0.0422 -1.737683,-0.112 -1.204061,-0.50022 0.02379,-0.023 0.04873,-0.047 0.07441,-0.0713 0.257317,-0.24522 0.601124,-0.5537 0.867647,-0.80563 l 2.27428,-2.15077 c 0.08223,-0.0778 0.188594,-0.12247 0.295589,-0.12247 z"
         style="fill:none;fill-opacity:1;fill-rule:evenodd;stroke:#000000;stroke-width:2.20000005;stroke-linecap:round;stroke-linejoin:round;stroke-miterlimit:4;stroke-dasharray:none;stroke-opacity:0.00784314" />
      <path
         style="fill:none;fill-opacity:1;fill-rule:evenodd;stroke:#000000;stroke-width:2.4000001;stroke-linecap:round;stroke-linejoin:round;stroke-miterlimit:4;stroke-dasharray:none;stroke-opacity:0.00784314"
         d="m 29.821904,283.00828 c -0.119553,0 -0.238327,0.05 -0.330213,0.13694 l -5.08186,4.80694 c -0.109511,0.10374 -0.178801,0.26046 -0.186552,0.4222 -0.0078,0.16171 0.04626,0.32625 0.145211,0.44286 l 5.08186,5.99035 c 0.09683,0.11411 0.235122,0.18137 0.374654,0.18137 0.139532,0 0.278337,-0.0673 0.375171,-0.18137 l 5.081344,-5.99035 c 0.09888,-0.11669 0.152564,-0.28112 0.144694,-0.44286 -0.0079,-0.16174 -0.07695,-0.31854 -0.186552,-0.4222 l -5.08186,-4.80694 c -0.09336,-0.0883 -0.214431,-0.13771 -0.335897,-0.13694 z m -0.0057,0.99374 c 0.108709,-7.9e-4 0.217207,0.0435 0.300757,0.12247 l 2.273763,2.15077 0.971517,0.91882 c 0.302062,0.28575 -0.194511,0.36502 -0.372587,0.39015 -0.607584,0.0854 -0.975843,-0.90773 -1.58905,-0.92863 -0.838747,-0.0284 -1.619862,1.1553 -2.254643,1.12035 -0.574621,-0.0316 -0.522923,-1.16509 -1.026294,-1.11673 -0.386876,0.0372 -0.108123,0.8631 -0.611332,0.99322 -0.202147,0.0422 -1.737683,-0.112 -1.204061,-0.50022 0.02379,-0.023 0.04873,-0.047 0.07441,-0.0713 0.257317,-0.24522 0.601124,-0.5537 0.867647,-0.80563 l 2.27428,-2.15077 c 0.08223,-0.0778 0.188594,-0.12247 0.295589,-0.12247 z"
         id="path1374"
         inkscape:connector-curvature="0" />
      <path
         inkscape:connector-curvature="0"
         id="path1378"
         d="m 29.821904,283.00828 c -0.119553,0 -0.238327,0.05 -0.330213,0.13694 l -5.08186,4.80694 c -0.109511,0.10374 -0.178801,0.26046 -0.186552,0.4222 -0.0078,0.16171 0.04626,0.32625 0.145211,0.44286 l 5.08186,5.99035 c 0.09683,0.11411 0.235122,0.18137 0.374654,0.18137 0.139532,0 0.278337,-0.0673 0.375171,-0.18137 l 5.081344,-5.99035 c 0.09888,-0.11669 0.152564,-0.28112 0.144694,-0.44286 -0.0079,-0.16174 -0.07695,-0.31854 -0.186552,-0.4222 l -5.08186,-4.80694 c -0.09336,-0.0883 -0.214431,-0.13771 -0.335897,-0.13694 z m -0.0057,0.99374 c 0.108709,-7.9e-4 0.217207,0.0435 0.300757,0.12247 l 2.273763,2.15077 0.971517,0.91882 c 0.302062,0.28575 -0.194511,0.36502 -0.372587,0.39015 -0.607584,0.0854 -0.975843,-0.90773 -1.58905,-0.92863 -0.838747,-0.0284 -1.619862,1.1553 -2.254643,1.12035 -0.574621,-0.0316 -0.522923,-1.16509 -1.026294,-1.11673 -0.386876,0.0372 -0.108123,0.8631 -0.611332,0.99322 -0.202147,0.0422 -1.737683,-0.112 -1.204061,-0.50022 0.02379,-0.023 0.04873,-0.047 0.07441,-0.0713 0.257317,-0.24522 0.601124,-0.5537 0.867647,-0.80563 l 2.27428,-2.15077 c 0.08223,-0.0778 0.188594,-0.12247 0.295589,-0.12247 z"
         style="fill:none;fill-opacity:1;fill-rule:evenodd;stroke:#000000;stroke-width:2.5999999;stroke-linecap:round;stroke-linejoin:round;stroke-miterlimit:4;stroke-dasharray:none;stroke-opacity:0.00784314" />
      <path
         style="fill:none;fill-opacity:1;fill-rule:evenodd;stroke:#000000;stroke-width:2.79999995;stroke-linecap:round;stroke-linejoin:round;stroke-miterlimit:4;stroke-dasharray:none;stroke-opacity:0.00784314"
         d="m 29.821904,283.00828 c -0.119553,0 -0.238327,0.05 -0.330213,0.13694 l -5.08186,4.80694 c -0.109511,0.10374 -0.178801,0.26046 -0.186552,0.4222 -0.0078,0.16171 0.04626,0.32625 0.145211,0.44286 l 5.08186,5.99035 c 0.09683,0.11411 0.235122,0.18137 0.374654,0.18137 0.139532,0 0.278337,-0.0673 0.375171,-0.18137 l 5.081344,-5.99035 c 0.09888,-0.11669 0.152564,-0.28112 0.144694,-0.44286 -0.0079,-0.16174 -0.07695,-0.31854 -0.186552,-0.4222 l -5.08186,-4.80694 c -0.09336,-0.0883 -0.214431,-0.13771 -0.335897,-0.13694 z m -0.0057,0.99374 c 0.108709,-7.9e-4 0.217207,0.0435 0.300757,0.12247 l 2.273763,2.15077 0.971517,0.91882 c 0.302062,0.28575 -0.194511,0.36502 -0.372587,0.39015 -0.607584,0.0854 -0.975843,-0.90773 -1.58905,-0.92863 -0.838747,-0.0284 -1.619862,1.1553 -2.254643,1.12035 -0.574621,-0.0316 -0.522923,-1.16509 -1.026294,-1.11673 -0.386876,0.0372 -0.108123,0.8631 -0.611332,0.99322 -0.202147,0.0422 -1.737683,-0.112 -1.204061,-0.50022 0.02379,-0.023 0.04873,-0.047 0.07441,-0.0713 0.257317,-0.24522 0.601124,-0.5537 0.867647,-0.80563 l 2.27428,-2.15077 c 0.08223,-0.0778 0.188594,-0.12247 0.295589,-0.12247 z"
         id="path1382"
         inkscape:connector-curvature="0" />
      <path
         inkscape:connector-curvature="0"
         id="path1386"
         d="m 29.821904,283.00828 c -0.119553,0 -0.238327,0.05 -0.330213,0.13694 l -5.08186,4.80694 c -0.109511,0.10374 -0.178801,0.26046 -0.186552,0.4222 -0.0078,0.16171 0.04626,0.32625 0.145211,0.44286 l 5.08186,5.99035 c 0.09683,0.11411 0.235122,0.18137 0.374654,0.18137 0.139532,0 0.278337,-0.0673 0.375171,-0.18137 l 5.081344,-5.99035 c 0.09888,-0.11669 0.152564,-0.28112 0.144694,-0.44286 -0.0079,-0.16174 -0.07695,-0.31854 -0.186552,-0.4222 l -5.08186,-4.80694 c -0.09336,-0.0883 -0.214431,-0.13771 -0.335897,-0.13694 z m -0.0057,0.99374 c 0.108709,-7.9e-4 0.217207,0.0435 0.300757,0.12247 l 2.273763,2.15077 0.971517,0.91882 c 0.302062,0.28575 -0.194511,0.36502 -0.372587,0.39015 -0.607584,0.0854 -0.975843,-0.90773 -1.58905,-0.92863 -0.838747,-0.0284 -1.619862,1.1553 -2.254643,1.12035 -0.574621,-0.0316 -0.522923,-1.16509 -1.026294,-1.11673 -0.386876,0.0372 -0.108123,0.8631 -0.611332,0.99322 -0.202147,0.0422 -1.737683,-0.112 -1.204061,-0.50022 0.02379,-0.023 0.04873,-0.047 0.07441,-0.0713 0.257317,-0.24522 0.601124,-0.5537 0.867647,-0.80563 l 2.27428,-2.15077 c 0.08223,-0.0778 0.188594,-0.12247 0.295589,-0.12247 z"
         style="fill:none;fill-opacity:1;fill-rule:evenodd;stroke:#000000;stroke-width:3;stroke-linecap:round;stroke-linejoin:round;stroke-miterlimit:4;stroke-dasharray:none;stroke-opacity:0.00784314" />
      <path
         style="fill:none;fill-opacity:1;fill-rule:evenodd;stroke:#000000;stroke-width:3.29999995;stroke-linecap:round;stroke-linejoin:round;stroke-miterlimit:4;stroke-dasharray:none;stroke-opacity:0.00784314"
         d="m 29.821904,283.00828 c -0.119553,0 -0.238327,0.05 -0.330213,0.13694 l -5.08186,4.80694 c -0.109511,0.10374 -0.178801,0.26046 -0.186552,0.4222 -0.0078,0.16171 0.04626,0.32625 0.145211,0.44286 l 5.08186,5.99035 c 0.09683,0.11411 0.235122,0.18137 0.374654,0.18137 0.139532,0 0.278337,-0.0673 0.375171,-0.18137 l 5.081344,-5.99035 c 0.09888,-0.11669 0.152564,-0.28112 0.144694,-0.44286 -0.0079,-0.16174 -0.07695,-0.31854 -0.186552,-0.4222 l -5.08186,-4.80694 c -0.09336,-0.0883 -0.214431,-0.13771 -0.335897,-0.13694 z m -0.0057,0.99374 c 0.108709,-7.9e-4 0.217207,0.0435 0.300757,0.12247 l 2.273763,2.15077 0.971517,0.91882 c 0.302062,0.28575 -0.194511,0.36502 -0.372587,0.39015 -0.607584,0.0854 -0.975843,-0.90773 -1.58905,-0.92863 -0.838747,-0.0284 -1.619862,1.1553 -2.254643,1.12035 -0.574621,-0.0316 -0.522923,-1.16509 -1.026294,-1.11673 -0.386876,0.0372 -0.108123,0.8631 -0.611332,0.99322 -0.202147,0.0422 -1.737683,-0.112 -1.204061,-0.50022 0.02379,-0.023 0.04873,-0.047 0.07441,-0.0713 0.257317,-0.24522 0.601124,-0.5537 0.867647,-0.80563 l 2.27428,-2.15077 c 0.08223,-0.0778 0.188594,-0.12247 0.295589,-0.12247 z"
         id="path1390"
         inkscape:connector-curvature="0" />
      <path
         inkscape:connector-curvature="0"
         id="path1394"
         d="m 29.821904,283.00828 c -0.119553,0 -0.238327,0.05 -0.330213,0.13694 l -5.08186,4.80694 c -0.109511,0.10374 -0.178801,0.26046 -0.186552,0.4222 -0.0078,0.16171 0.04626,0.32625 0.145211,0.44286 l 5.08186,5.99035 c 0.09683,0.11411 0.235122,0.18137 0.374654,0.18137 0.139532,0 0.278337,-0.0673 0.375171,-0.18137 l 5.081344,-5.99035 c 0.09888,-0.11669 0.152564,-0.28112 0.144694,-0.44286 -0.0079,-0.16174 -0.07695,-0.31854 -0.186552,-0.4222 l -5.08186,-4.80694 c -0.09336,-0.0883 -0.214431,-0.13771 -0.335897,-0.13694 z m -0.0057,0.99374 c 0.108709,-7.9e-4 0.217207,0.0435 0.300757,0.12247 l 2.273763,2.15077 0.971517,0.91882 c 0.302062,0.28575 -0.194511,0.36502 -0.372587,0.39015 -0.607584,0.0854 -0.975843,-0.90773 -1.58905,-0.92863 -0.838747,-0.0284 -1.619862,1.1553 -2.254643,1.12035 -0.574621,-0.0316 -0.522923,-1.16509 -1.026294,-1.11673 -0.386876,0.0372 -0.108123,0.8631 -0.611332,0.99322 -0.202147,0.0422 -1.737683,-0.112 -1.204061,-0.50022 0.02379,-0.023 0.04873,-0.047 0.07441,-0.0713 0.257317,-0.24522 0.601124,-0.5537 0.867647,-0.80563 l 2.27428,-2.15077 c 0.08223,-0.0778 0.188594,-0.12247 0.295589,-0.12247 z"
         style="fill:none;fill-opacity:1;fill-rule:evenodd;stroke:#000000;stroke-width:3.5999999;stroke-linecap:round;stroke-linejoin:round;stroke-miterlimit:4;stroke-dasharray:none;stroke-opacity:0.00784314" />
      <path
         style="fill:none;fill-opacity:1;fill-rule:evenodd;stroke:#000000;stroke-width:3.9000001;stroke-linecap:round;stroke-linejoin:round;stroke-miterlimit:4;stroke-dasharray:none;stroke-opacity:0.00784314"
         d="m 29.821904,283.00828 c -0.119553,0 -0.238327,0.05 -0.330213,0.13694 l -5.08186,4.80694 c -0.109511,0.10374 -0.178801,0.26046 -0.186552,0.4222 -0.0078,0.16171 0.04626,0.32625 0.145211,0.44286 l 5.08186,5.99035 c 0.09683,0.11411 0.235122,0.18137 0.374654,0.18137 0.139532,0 0.278337,-0.0673 0.375171,-0.18137 l 5.081344,-5.99035 c 0.09888,-0.11669 0.152564,-0.28112 0.144694,-0.44286 -0.0079,-0.16174 -0.07695,-0.31854 -0.186552,-0.4222 l -5.08186,-4.80694 c -0.09336,-0.0883 -0.214431,-0.13771 -0.335897,-0.13694 z m -0.0057,0.99374 c 0.108709,-7.9e-4 0.217207,0.0435 0.300757,0.12247 l 2.273763,2.15077 0.971517,0.91882 c 0.302062,0.28575 -0.194511,0.36502 -0.372587,0.39015 -0.607584,0.0854 -0.975843,-0.90773 -1.58905,-0.92863 -0.838747,-0.0284 -1.619862,1.1553 -2.254643,1.12035 -0.574621,-0.0316 -0.522923,-1.16509 -1.026294,-1.11673 -0.386876,0.0372 -0.108123,0.8631 -0.611332,0.99322 -0.202147,0.0422 -1.737683,-0.112 -1.204061,-0.50022 0.02379,-0.023 0.04873,-0.047 0.07441,-0.0713 0.257317,-0.24522 0.601124,-0.5537 0.867647,-0.80563 l 2.27428,-2.15077 c 0.08223,-0.0778 0.188594,-0.12247 0.295589,-0.12247 z"
         id="path1398"
         inkscape:connector-curvature="0" />
    </g>
    <g
       id="g6"
       transform="matrix(0.26458333,0,0,0.26458333,-11.790657,19.844078)"
       style="fill-rule:evenodd">
      <path
         style="fill:#ffffff;fill-opacity:1"
         d="m 76.561534,994.63637 c -0.451853,0 -0.900761,0.18918 -1.248047,0.51758 l -19.207031,18.16795 c -0.413898,0.3921 -0.675783,0.9844 -0.705078,1.5957 -0.02929,0.6112 0.174842,1.2331 0.548828,1.6738 l 19.207031,22.6407 c 0.365988,0.4313 0.888652,0.6855 1.416016,0.6855 0.527364,0 1.05198,-0.2542 1.417969,-0.6855 L 97.1963,1016.5914 c 0.373707,-0.441 0.576621,-1.0625 0.546875,-1.6738 -0.02975,-0.6113 -0.290853,-1.2039 -0.705078,-1.5957 L 77.831066,995.15395 c -0.352843,-0.3336 -0.810445,-0.52048 -1.269532,-0.51758 z m -0.02148,3.75586 c 0.410866,-0.003 0.820938,0.16439 1.136719,0.46289 l 8.59375,8.12888 3.671875,3.4727 c 1.14165,1.08 -0.735161,1.3796 -1.408203,1.4746 -2.296382,0.3229 -3.688227,-3.4308 -6.00586,-3.5098 -3.170065,-0.1074 -6.122313,4.3665 -8.521484,4.2344 -2.171794,-0.1195 -1.976402,-4.4035 -3.878906,-4.2207 -1.46221,0.1405 -0.408653,3.2621 -2.310547,3.7539 -0.764019,0.1597 -6.567621,-0.4233 -4.550781,-1.8906 0.08993,-0.087 0.18417,-0.1776 0.28125,-0.2696 0.972536,-0.9268 2.271966,-2.0927 3.279296,-3.0449 l 8.595704,-8.12888 c 0.310804,-0.2939 0.712794,-0.46289 1.117187,-0.46289 z"
         id="path2"
         inkscape:connector-curvature="0" />
    </g>
  </g>
</svg>
