<?xml version="1.0" encoding="UTF-8" standalone="no"?>
<!-- Created with Inkscape (http://www.inkscape.org/) -->

<svg
   xmlns:dc="http://purl.org/dc/elements/1.1/"
   xmlns:cc="http://creativecommons.org/ns#"
   xmlns:rdf="http://www.w3.org/1999/02/22-rdf-syntax-ns#"
   xmlns:svg="http://www.w3.org/2000/svg"
   xmlns="http://www.w3.org/2000/svg"
   xmlns:xlink="http://www.w3.org/1999/xlink"
   xmlns:sodipodi="http://sodipodi.sourceforge.net/DTD/sodipodi-0.dtd"
   xmlns:inkscape="http://www.inkscape.org/namespaces/inkscape"
   width="64"
   height="64"
   viewBox="0 0 16.933333 16.933334"
   version="1.1"
   id="svg8"
   sodipodi:docname="mozilla_thunderbird.svg"
   inkscape:version="0.92.4 (5da689c313, 2019-01-14)">
  <defs
     id="defs2">
    <linearGradient
       inkscape:collect="always"
       id="linearGradient826">
      <stop
         style="stop-color:#9358a9;stop-opacity:1"
         offset="0"
         id="stop822" />
      <stop
         style="stop-color:#91d1e0;stop-opacity:1"
         offset="1"
         id="stop824" />
    </linearGradient>
    <linearGradient
       inkscape:collect="always"
       id="linearGradient818">
      <stop
         style="stop-color:#d453ff;stop-opacity:1"
         offset="0"
         id="stop814" />
      <stop
         style="stop-color:#8cd7e6;stop-opacity:1"
         offset="1"
         id="stop816" />
    </linearGradient>
    <linearGradient
       inkscape:collect="always"
       xlink:href="#linearGradient818"
       id="linearGradient820"
       x1="8.385582"
       y1="296.68262"
       x2="8.385582"
       y2="280.71326"
       gradientUnits="userSpaceOnUse" />
    <linearGradient
       inkscape:collect="always"
       xlink:href="#linearGradient826"
       id="linearGradient828"
       x1="8.5188627"
       y1="297.07675"
       x2="8.5188627"
       y2="280.2793"
       gradientUnits="userSpaceOnUse" />
    <filter
       id="alpha"
       width="100%"
       height="100%"
       x="0%"
       y="0%">
      <feColorMatrix
         in="SourceGraphic"
         values="0 0 0 0 1 0 0 0 0 1 0 0 0 0 1 0 0 0 1 0"
         id="feColorMatrix929" />
    </filter>
    <mask
       id="mask0">
      <g
         filter="url(#alpha)"
         id="g934">
        <rect
           width="384"
           height="384"
           style="fill-opacity:.2;fill:rgb(0%,0%,0%)"
           id="rect932" />
      </g>
    </mask>
    <clipPath
       id="clip1">
      <rect
         width="384"
         height="384"
         id="rect937" />
    </clipPath>
    <g
       id="surface5"
       clip-path="url(#clip1)">
      <path
         d="m162.49219 24.035156c-13.507813 0.222656-27.109376 3.160156-37.09375 8.109375-9.898438 4.90625-18.738282 14.425781-27.078126 29.167969-2.140624 3.78125-4.636718 7.363281-5.554687 7.96875s-4.285156 1.453125-7.464844 1.882812c-11.070312-0.371093-23.210937-2.757812-34.96875-5.140624 0 0-7.496093-1.949219-8.332031 6.152343 0.035156 1.367188 0.257812 2.65625 0.46875 3.953125 1.8125-5.617187 7.863281-4.105468 7.863281-4.105468 11.757813 2.382812 23.898438 4.769531 34.96875 5.140624 3.179688-0.429687 6.546875-1.277343 7.464844-1.882812s3.414063-4.199219 5.554687-7.980469c8.339844-14.738281 17.179688-24.25 27.078126-29.15625 11.414062-5.65625 27.554687-8.683593 42.871093-8.039062 18.414063 0.777343 34.054688 7.144531 46.832031 19.066406 8.777344 8.195313 14.589844 10.25 22.941407 8.097656 2.28125-0.589843 3.175781-0.746093 4.058593-0.855469 1.191407-1.652343 1.953126-3.363281 1.953126-4.816406 0-1.84375-0.136719-1.84375-6.011719-0.328125-8.351563 2.152344-14.164063 0.097657-22.941407-8.097656-12.777343-11.921875-28.417968-18.289063-46.832031-19.066406-1.914062-0.082031-3.84375-0.101563-5.777343-0.070313zm77.929687 40.328125c-0.410156 0.402344-0.800781 0.816407-1.269531 1.191407l-2.726563 2.203124 0.855469 0.503907c0.253906-0.042969 0.460938-0.101563 0.726562-0.136719 3.835938-0.554688 4.546876-1.980469 2.414063-3.761719zm-8.214844 11.644531c-0.457031 0.335938-0.785156 0.683594-0.785156 1.019532 0 0.398437 0.542969 3.835937 1.203125 7.636718 0.582031 3.355469 0.792969 7.929688 0.835938 12.710938 0.238281-6.9375-0.007813-13.949219-0.835938-18.710938-0.226562-1.316406-0.234375-1.535156-0.417969-2.65625zm-170.49609 34.195313c-5.027344 3.300781-7.902344 8.210937-13.792969 12.808594-0.917969 1.726562-0.429688 3.367187 1.171875 4.921875 6.414062-5.457032 9.296875-11.167969 16.910156-13.921875-1.464844-1.246094-2.851562-2.539063-4.289062-3.808594zm256.28906 45.820313c-5.183594 0-8.507812 3.1875-14.089844 10.699218-6.519531 8.789063-15.25 15.429688-21.347656 18.539063-9.554688 4.871093-16.882812 4.003906-34.152344-4.042969-18.273437-8.519531-30.953125-11.582031-49.15625-13.195312-1.289062-0.113282-2.777344-0.066407-4.242187-0.082032-3.976563 2.703125-8.339844 5.644532-9.011719 6.070313 0.847656 0 8.28125-0.433594 13.253906 0.011719 18.203125 1.613281 30.882813 4.675781 49.15625 13.195312 17.269532 8.046875 24.597656 8.914062 34.152344 4.042969 6.097656-3.109375 14.828125-9.75 21.347656-18.539063 5.582032-7.511718 8.90625-10.699218 14.089844-10.699218 5.074219 0 8.71875 3.347656 12.5625 9.210937 5.445312 8.304687 8.414062 14.230469 10.527344 28.699219 0.597656 4.132812 0.8125 10.640625 0.824218 17.445312 0.195313-8.976562-0.046874-18.070312-0.824218-23.445312-2.113282-14.46875-5.082032-20.394532-10.527344-28.699219-3.84375-5.863281-7.488281-9.210937-12.5625-9.210937zm-216 3.371093c-0.253906 5.238281-1.375 10.058594-4.625 16.363281-3.75 7.273438-7.84375 13.054688-15.941406 21.960938-14.582032 16.054688-24.941406 33.121094-29.496094 48.597656-1.648438 5.597656-2.285156 11.917969-2.039062 18.570313 0.222656-4.449219 0.894531-8.679688 2.039062-12.570313 4.554688-15.476562 14.914062-32.542968 29.496094-48.597656 8.097656-8.90625 12.191406-14.6875 15.941406-21.960938 4.433594-8.605468 4.96875-14.449218 4.625-22.363281z"
         style="fill:rgb(100%,100%,100%)"
         id="path940" />
    </g>
    <mask
       id="mask1">
      <g
         filter="url(#alpha)"
         id="g945">
        <rect
           width="384"
           height="384"
           style="fill-opacity:.2;fill:rgb(0%,0%,0%)"
           id="rect943" />
      </g>
    </mask>
    <clipPath
       id="clip2">
      <rect
         width="384"
         height="384"
         id="rect948" />
    </clipPath>
    <g
       id="surface8"
       clip-path="url(#clip2)">
      <path
         d="m243.25781 56.179688c-0.171874-0.011719-0.917968 0.210937-1.171874 0.246093-0.796876 1.09375-1.75 2.175781-2.929688 3.128907l-2.730469 2.203124 2.753907 1.640626c0.574218 0.339843 0.863281 0.640624 1.242187 0.960937 2.210937-2.1875 3.632813-4.71875 3.632813-6.761719 0-0.921875-0.027344-1.375-0.796876-1.417968zm-5.988281 12.082031c-3.363281 0.589843-5.847656 1.722656-5.847656 2.765625 0 0.257812 0.441406 2.878906 0.785156 4.980468 1.066407-0.785156 3.167969-1.507812 5.800781-1.886718 4.515626-0.652344 4.96875-2.46875 1.171876-4.722656zm-194.80078 7.859375c-0.199219 0.617187-0.386719 1.253906-0.46875 2.050781 0.355469 13.265625 9.480469 22.996094 19.710938 32.027344 1.269531-0.832031 2.652343-1.601563 4.289062-2.1875-10.800781-9.210938-21.386719-18.847657-23.53125-31.890625zm190.99219 21.246094c-0.230469 6.667968-0.914063 13.25-1.992188 17.625-3.410156 13.835937-8.582031 23.582031-17.402344 32.835937-6.867187 6.238281-26.257812 19.042969-28.070312 20.183594 0.632812 0 4.851562-0.136719 9.035156-0.082031 6.734375-4.582032 14.722656-10.179688 19.03125-14.097657 8.820312-9.25 13.996094-18.996093 17.402344-32.835937 1.414062-5.71875 2.066406-15.097656 1.992187-23.625zm-184.37109 30.574218c-0.414063 0.355469-0.71875 0.714844-1.171875 1.066406-1.417969 2.675782 0.214843 5.175782 4.804687 7.394532 5.921875 2.855468 11.992188 3.625 24.390625 3.035156 12.695313-0.609375 14.386719 1.269531 18.492188 4.664062 4.328125 3.601563 6.027343 7 6.394531 14.894532 0.007812 0.140625-0.003906 0.261718 0 0.398437 0.101562-2.035156 0.109375-4.132812 0-6.410156-0.367188-7.894531-2.066406-11.28125-6.394531-14.882813-4.105469-3.394531-5.796875-5.285156-18.492188-4.675781-12.398437 0.589844-18.46875-0.167969-24.390625-3.023437-1.621094-0.785156-2.753906-1.605469-3.632812-2.460938zm292.82422 89.4375c-0.175781 8.300782-0.71875 16.507813-1.617187 21.457032-11.171875 61.597656-50.480469 103.0625-110.49609 116.56641-16.195312 3.644531-22.71875 4.300781-45.160156 4.535156-11.644531 0.125-22.519531 0.085938-24.15625-0.082031v-0.011719c-37.652344-3.851562-63.890625-14.621094-83.273437-34.191406-7.828126-7.910156-13.144532-15.179688-17.5625-24.023438-5.847657-11.691406-9.1875-24.296875-9.75-35.90625-0.496094 13.167969 2.875 28.160156 9.75 41.90625 4.417968 8.84375 9.734374 16.117188 17.566406 24.023438 19.378906 19.570312 45.613281 30.355468 83.273437 34.207031 1.632813 0.167969 12.507813 0.203125 24.152344 0.082031 22.445313-0.234375 28.964844-0.890625 45.164063-4.535156 60.011718-13.5 99.324218-54.96875 110.49609-116.56641 1.121094-6.183594 1.640625-17.246094 1.617188-27.457032z"
         style="fill:rgb(0%,0%,0%)"
         id="path951" />
    </g>
    <linearGradient
       id="linearGradient1117"
       x1="-248.932"
       x2="249.882"
       y1="515.328"
       y2="249.017"
       gradientUnits="userSpaceOnUse">
      <stop
         style="stop-color:#4aaee6"
         offset="0"
         id="stop954" />
      <stop
         style="stop-color:#357af0"
         offset="1"
         id="stop956" />
    </linearGradient>
    <linearGradient
       gradientUnits="userSpaceOnUse"
       gradientTransform="scale(0.69850138,1.4316364)"
       x1="0"
       y1="116.54461"
       x2="186.14996"
       y2="116.54461"
       id="linearGradient-1">
      <stop
         stop-color="#FFFFFF"
         offset="0%"
         id="stop4511" />
      <stop
         stop-color="#FFFFFF"
         stop-opacity="0.9576"
         offset="14.13%"
         id="stop4513" />
      <stop
         stop-color="#FFFFFF"
         stop-opacity="0.7"
         offset="100%"
         id="stop4515" />
    </linearGradient>
    <linearGradient
       gradientUnits="userSpaceOnUse"
       gradientTransform="scale(0.68561406,1.4585465)"
       x1="187.35059"
       y1="112.26521"
       x2="373.38791"
       y2="112.26521"
       id="linearGradient-2">
      <stop
         stop-color="#F1F1F2"
         offset="0%"
         id="stop4518" />
      <stop
         stop-color="#E4E5E6"
         offset="9.191442%"
         id="stop4520" />
      <stop
         stop-color="#D9DADB"
         offset="23.57%"
         id="stop4522" />
      <stop
         stop-color="#D2D4D5"
         offset="43.8%"
         id="stop4524" />
      <stop
         stop-color="#D0D2D3"
         offset="100%"
         id="stop4526" />
    </linearGradient>
  </defs>
  <sodipodi:namedview
     id="base"
     pagecolor="#ffffff"
     bordercolor="#666666"
     borderopacity="1.0"
     inkscape:pageopacity="0.0"
     inkscape:pageshadow="2"
     inkscape:zoom="7.9195959"
     inkscape:cx="-7.575015"
     inkscape:cy="22.73296"
     inkscape:document-units="mm"
     inkscape:current-layer="layer1"
     showgrid="false"
     units="px"
     inkscape:window-width="1920"
     inkscape:window-height="1022"
     inkscape:window-x="0"
     inkscape:window-y="30"
     inkscape:window-maximized="1" />
  <metadata
     id="metadata5">
    <rdf:RDF>
      <cc:Work
         rdf:about="">
        <dc:format>image/svg+xml</dc:format>
        <dc:type
           rdf:resource="http://purl.org/dc/dcmitype/StillImage" />
        <dc:title></dc:title>
      </cc:Work>
    </rdf:RDF>
  </metadata>
  <g
     inkscape:label="Capa 1"
     inkscape:groupmode="layer"
     id="layer1"
     transform="translate(0,-280.06665)">
    <circle
       style="opacity:1;fill:url(#linearGradient820);fill-opacity:1;stroke:none;stroke-width:0.185;stroke-linecap:round;stroke-linejoin:round;stroke-miterlimit:4;stroke-dasharray:none;stroke-opacity:1"
       id="path815"
       cx="8.4691038"
       cy="288.53088"
       r="8.2018337" />
    <path
       style="color:#000000;font-style:normal;font-variant:normal;font-weight:normal;font-stretch:normal;font-size:medium;line-height:normal;font-family:sans-serif;font-variant-ligatures:normal;font-variant-position:normal;font-variant-caps:normal;font-variant-numeric:normal;font-variant-alternates:normal;font-feature-settings:normal;text-indent:0;text-align:start;text-decoration:none;text-decoration-line:none;text-decoration-style:solid;text-decoration-color:#000000;letter-spacing:normal;word-spacing:normal;text-transform:none;writing-mode:lr-tb;direction:ltr;text-orientation:mixed;dominant-baseline:auto;baseline-shift:baseline;text-anchor:start;white-space:normal;shape-padding:0;clip-rule:nonzero;display:inline;overflow:visible;visibility:visible;opacity:1;isolation:auto;mix-blend-mode:normal;color-interpolation:sRGB;color-interpolation-filters:linearRGB;solid-color:#000000;solid-opacity:1;vector-effect:none;fill:url(#linearGradient828);fill-opacity:1;fill-rule:nonzero;stroke:none;stroke-width:0.185;stroke-linecap:round;stroke-linejoin:round;stroke-miterlimit:4;stroke-dasharray:none;stroke-dashoffset:0;stroke-opacity:1;color-rendering:auto;image-rendering:auto;shape-rendering:auto;text-rendering:auto;enable-background:accumulate"
       d="m 8.46875,280.23633 c -4.5797384,0 -8.29492188,3.71518 -8.29492188,8.29492 10e-9,4.57974 3.71518348,8.29492 8.29492188,8.29492 4.579738,0 8.294922,-3.71518 8.294922,-8.29492 0,-4.09915 -2.976364,-7.50567 -6.8850044,-8.17548 -0.4582559,-0.0785 -0.9293264,-0.11944 -1.4099176,-0.11944 z m 0,0.18555 c 4.479757,0 8.109375,3.62961 8.109375,8.10937 0,4.47976 -3.629618,8.10937 -8.109375,8.10937 -4.479757,0 -8.109375,-3.62961 -8.109375,-8.10937 0,-4.47976 3.629618,-8.10937 8.109375,-8.10937 z"
       id="circle821"
       inkscape:connector-curvature="0"
       sodipodi:nodetypes="sssssssssss" />
    <path
       style="font-style:normal;font-variant:normal;font-weight:normal;font-stretch:normal;font-size:4.51036501px;line-height:1.25;font-family:Padauk;-inkscape-font-specification:Padauk;letter-spacing:0px;word-spacing:0px;fill:#ffffff;fill-opacity:0.37903225;stroke:none;stroke-width:0.42617619"
       d="M 44.792969 3.7832031 C 43.748471 4.3056945 42.883705 5.0800618 42.207031 6.1171875 C 41.270075 7.5517072 41.048905 9.1912759 41.542969 11.035156 C 41.812978 12.042854 42.182499 12.910419 42.652344 13.634766 C 43.122192 14.359112 43.628471 14.912913 44.167969 15.296875 C 44.718192 15.678003 45.32517 15.950699 45.990234 16.117188 C 46.665984 16.280841 47.321165 16.341537 47.953125 16.298828 C 48.587889 16.264812 49.245551 16.158672 49.931641 15.974609 C 50.435489 15.83968 50.815738 15.714129 51.072266 15.599609 C 51.339516 15.482066 51.697379 15.272548 52.144531 14.96875 L 51.830078 13.794922 C 51.411329 14.033032 51.065824 14.198317 50.792969 14.294922 C 50.522846 14.401883 50.076848 14.540581 49.455078 14.707031 C 47.793454 15.15226 46.401334 15.01249 45.277344 14.291016 C 44.164084 13.566707 43.378597 12.354882 42.921875 10.650391 C 42.689207 9.7820442 42.636768 8.9785028 42.761719 8.2441406 C 42.88667 7.5097784 43.154476 6.9038159 43.566406 6.4257812 C 43.975483 5.9370883 44.427019 5.5408447 44.919922 5.2363281 C 45.381546 4.9429592 45.884833 4.7273248 46.421875 4.5703125 A 30.999057 30.999057 0 0 0 44.792969 3.7832031 z M 48.939453 6.0546875 L 48.496094 6.1738281 L 48.724609 7.0253906 C 48.337537 6.7385245 47.97724 6.5717777 47.642578 6.5234375 C 47.315762 6.4614532 46.919951 6.4927777 46.458984 6.6152344 C 45.719289 6.8136596 45.188731 7.2781747 44.867188 8.0078125 C 44.545625 8.7373747 44.52204 9.6105125 44.794922 10.628906 C 45.050569 11.58301 45.505402 12.318053 46.160156 12.832031 C 46.825633 13.343099 47.522981 13.500013 48.251953 13.304688 C 48.787958 13.161065 49.188974 12.939409 49.453125 12.638672 C 49.72801 12.335176 49.929799 11.931406 50.058594 11.425781 C 50.71012 12.227873 51.459747 12.515985 52.306641 12.289062 C 53.121374 12.070606 53.701993 11.489565 54.046875 10.546875 C 54.079193 10.458543 54.094311 10.366729 54.121094 10.277344 A 30.999057 30.999057 0 0 0 52.96875 9.203125 C 52.982002 9.5530164 52.94742 9.8544866 52.859375 10.105469 C 52.674103 10.614722 52.414358 10.914861 52.082031 11.003906 C 51.524585 11.153198 51.195205 11.033949 51.091797 10.648438 L 50.068359 6.8300781 A 30.999057 30.999057 0 0 0 48.939453 6.0546875 z M 47.486328 7.4511719 C 47.84746 7.4409849 48.171806 7.5714339 48.458984 7.8378906 C 48.839012 8.1840953 49.114759 8.6790656 49.287109 9.3222656 C 49.468073 9.9976294 49.483427 10.61282 49.333984 11.169922 C 49.195238 11.724114 48.874943 12.070073 48.371094 12.205078 C 47.331236 12.483629 46.591827 11.802311 46.152344 10.162109 C 45.979997 9.5189094 45.968034 8.9538268 46.113281 8.4667969 C 46.255656 7.9690709 46.587991 7.6485621 47.113281 7.5078125 C 47.241923 7.4733243 47.365951 7.4545675 47.486328 7.4511719 z M 29.941406 7.8457031 C 29.279153 7.8681393 28.577583 7.9775687 27.837891 8.1757812 C 26.176264 8.6210096 24.872541 9.5675368 23.927734 11.015625 C 22.990778 12.450145 22.769609 14.089713 23.263672 15.933594 C 23.533685 16.941291 23.903202 17.806941 24.373047 18.53125 C 24.842897 19.255634 25.349175 19.809397 25.888672 20.193359 C 26.438895 20.574487 27.045873 20.849137 27.710938 21.015625 C 28.386688 21.179279 29.04187 21.239974 29.673828 21.197266 C 30.308591 21.16325 30.966253 21.055157 31.652344 20.871094 C 32.156192 20.736165 32.538395 20.612567 32.794922 20.498047 C 33.062168 20.380504 33.420036 20.170986 33.867188 19.867188 L 33.552734 18.693359 C 33.133986 18.93147 32.786527 19.096755 32.513672 19.193359 C 32.243557 19.30032 31.797552 19.439018 31.175781 19.605469 C 29.514155 20.050697 28.122033 19.910927 26.998047 19.189453 C 25.884787 18.465144 25.0993 17.251366 24.642578 15.546875 C 24.409907 14.678529 24.355521 13.876903 24.480469 13.142578 C 24.605409 12.408178 24.875181 11.8003 25.287109 11.322266 C 25.696187 10.833573 26.14577 10.439244 26.638672 10.134766 C 27.139424 9.8165294 27.685781 9.5779061 28.275391 9.4199219 C 29.851256 8.9976731 31.166844 9.0408852 32.222656 9.5507812 C 33.275593 10.049943 34.026503 11.136228 34.474609 12.808594 C 34.727384 13.751964 34.762474 14.483957 34.580078 15.003906 C 34.394813 15.51316 34.13506 15.813298 33.802734 15.902344 C 33.245285 16.051635 32.91591 15.932387 32.8125 15.546875 L 31.519531 10.722656 L 30.21875 11.072266 L 30.447266 11.923828 C 30.060189 11.636962 29.697944 11.470215 29.363281 11.421875 C 29.036469 11.359891 28.642608 11.391215 28.181641 11.513672 C 27.441949 11.711719 26.909435 12.174697 26.587891 12.904297 C 26.26634 13.633897 26.242743 14.50895 26.515625 15.527344 C 26.771272 16.481448 27.226103 17.214538 27.880859 17.728516 C 28.546335 18.239583 29.243685 18.396498 29.972656 18.201172 C 30.508665 18.05755 30.909677 17.837846 31.173828 17.537109 C 31.448702 17.233613 31.650503 16.827853 31.779297 16.322266 C 32.430826 17.124357 33.178497 17.414423 34.025391 17.1875 C 34.840123 16.969043 35.420742 16.387964 35.765625 15.445312 C 36.110514 14.502661 36.141797 13.498791 35.857422 12.4375 C 35.340377 10.507862 34.365172 9.1857008 32.931641 8.4667969 C 32.04238 8.0156866 31.045161 7.8083094 29.941406 7.8457031 z M 29.208984 12.349609 C 29.570116 12.339422 29.892508 12.469871 30.179688 12.736328 C 30.559717 13.082533 30.837418 13.577503 31.009766 14.220703 C 31.190729 14.896067 31.204149 15.511295 31.054688 16.068359 C 30.915945 16.622589 30.597598 16.966558 30.09375 17.101562 C 29.053893 17.380114 28.312532 16.700711 27.873047 15.060547 C 27.7007 14.417347 27.686773 13.852227 27.832031 13.365234 C 27.974414 12.867471 28.308696 12.547 28.833984 12.40625 C 28.962626 12.371762 29.088607 12.353005 29.208984 12.349609 z M 11.662109 12.744141 C 10.999856 12.766577 10.300239 12.876006 9.5605469 13.074219 C 7.8989207 13.519447 6.5951973 14.465974 5.6503906 15.914062 C 4.7134352 17.348582 4.4922649 18.988151 4.9863281 20.832031 C 5.2563414 21.839729 5.6239067 22.705341 6.09375 23.429688 C 6.5636001 24.154072 7.0698781 24.707835 7.609375 25.091797 C 8.159599 25.472887 8.7665776 25.747574 9.4316406 25.914062 C 10.107392 26.077716 10.76062 26.136459 11.392578 26.09375 C 12.027341 26.059734 12.686956 25.953216 13.373047 25.769531 C 13.876895 25.634602 14.259099 25.509051 14.515625 25.394531 C 14.782872 25.276988 15.140739 25.06747 15.587891 24.763672 L 15.273438 23.589844 C 14.854689 23.827954 14.50723 23.99523 14.234375 24.091797 C 13.96426 24.198758 13.518255 24.335465 12.896484 24.501953 C 11.234858 24.947181 9.8427365 24.809365 8.71875 24.087891 C 7.6054898 23.363582 6.8219559 22.149804 6.3652344 20.445312 C 6.1325629 19.576966 6.0762245 18.77534 6.2011719 18.041016 C 6.3261117 17.306616 6.5958841 16.698738 7.0078125 16.220703 C 7.4168912 15.73201 7.8664732 15.335767 8.359375 15.03125 C 8.8601276 14.713014 9.406484 14.476344 9.9960938 14.318359 C 11.571959 13.896111 12.887548 13.939323 13.943359 14.449219 C 14.996297 14.948381 15.747206 16.034704 16.195312 17.707031 C 16.448091 18.650439 16.483174 19.382394 16.300781 19.902344 C 16.115516 20.411597 15.855763 20.711736 15.523438 20.800781 C 14.965989 20.950073 14.636613 20.830824 14.533203 20.445312 L 13.240234 15.621094 L 11.9375 15.970703 L 12.166016 16.822266 C 11.778939 16.535399 11.418647 16.368653 11.083984 16.320312 C 10.757172 16.258328 10.363311 16.289653 9.9023438 16.412109 C 9.1626517 16.610157 8.6301378 17.073134 8.3085938 17.802734 C 7.9870429 18.532334 7.9653956 19.405434 8.2382812 20.423828 C 8.4939285 21.377932 8.9468066 22.113013 9.6015625 22.626953 C 10.267039 23.138059 10.964388 23.294935 11.693359 23.099609 C 12.229368 22.955987 12.63038 22.734331 12.894531 22.433594 C 13.169405 22.130098 13.371206 21.726291 13.5 21.220703 C 14.151529 22.022794 14.8992 22.310907 15.746094 22.083984 C 16.560826 21.865528 17.141445 21.284449 17.486328 20.341797 C 17.831218 19.399145 17.8625 18.397229 17.578125 17.335938 C 17.06108 15.4063 16.085875 14.082185 14.652344 13.363281 C 13.763083 12.912171 12.765864 12.706747 11.662109 12.744141 z M 10.929688 17.248047 C 11.290819 17.23786 11.615164 17.366356 11.902344 17.632812 C 12.282373 17.979017 12.55812 18.47395 12.730469 19.117188 C 12.911433 19.792551 12.924852 20.407779 12.775391 20.964844 C 12.636648 21.519074 12.318302 21.864995 11.814453 22 C 10.774596 22.278551 10.033235 21.599148 9.59375 19.958984 C 9.4214035 19.315747 9.4074758 18.748711 9.5527344 18.261719 C 9.6951167 17.763955 10.029399 17.445437 10.554688 17.304688 C 10.68333 17.270199 10.80931 17.251443 10.929688 17.248047 z M 59.808594 18.316406 C 58.753503 18.838932 57.880959 19.617218 57.199219 20.662109 C 56.262266 22.096629 56.041093 23.736236 56.535156 25.580078 C 56.805166 26.587776 57.174691 27.455341 57.644531 28.179688 C 58.114383 28.904072 58.620655 29.457835 59.160156 29.841797 C 59.710376 30.222924 60.315404 30.497574 60.980469 30.664062 C 61.656222 30.827716 62.3114 30.886459 62.943359 30.84375 C 62.951002 30.84334 62.959146 30.842227 62.966797 30.841797 A 30.999057 30.999057 0 0 0 62.892578 29.496094 C 61.898805 29.536601 61.022452 29.321182 60.269531 28.837891 C 59.156271 28.11362 58.370784 26.899842 57.914062 25.195312 C 57.681395 24.326966 57.627002 23.525378 57.751953 22.791016 C 57.876904 22.056653 58.146663 21.450729 58.558594 20.972656 C 58.967675 20.483963 59.417253 20.08772 59.910156 19.783203 C 60.053293 19.692237 60.2089 19.622922 60.359375 19.544922 A 30.999057 30.999057 0 0 0 59.808594 18.316406 z M 61.083984 21.302734 C 60.537011 21.543257 60.123672 21.953043 59.859375 22.552734 C 59.537851 23.282334 59.514227 24.155397 59.787109 25.173828 C 60.042757 26.127894 60.497586 26.863013 61.152344 27.376953 C 61.651448 27.760254 62.168049 27.94541 62.703125 27.931641 A 30.999057 30.999057 0 0 0 62.560547 26.748047 C 61.934573 26.560368 61.460357 25.885719 61.144531 24.707031 C 60.972185 24.063831 60.958231 23.498749 61.103516 23.011719 C 61.173142 22.768293 61.289611 22.568314 61.451172 22.410156 A 30.999057 30.999057 0 0 0 61.083984 21.302734 z M 44.933594 22.390625 C 44.27134 22.41306 43.56977 22.522476 42.830078 22.720703 C 41.168454 23.165931 39.864728 24.112459 38.919922 25.560547 C 37.982966 26.995067 37.761798 28.634673 38.255859 30.478516 C 38.525869 31.486213 38.89539 32.351825 39.365234 33.076172 C 39.835083 33.800518 40.341362 34.356272 40.880859 34.740234 C 41.431083 35.121362 42.03806 35.394059 42.703125 35.560547 C 43.378874 35.7242 44.032107 35.784896 44.664062 35.742188 C 45.298891 35.708172 45.960394 35.603607 46.646484 35.419922 C 47.150333 35.284993 47.530582 35.159442 47.787109 35.044922 C 48.05436 34.927379 48.412223 34.715908 48.859375 34.412109 L 48.544922 33.238281 C 48.126173 33.476391 47.778715 33.64363 47.505859 33.740234 C 47.235737 33.847195 46.789739 33.98394 46.167969 34.150391 C 44.506341 34.595619 43.112267 34.457689 41.988281 33.736328 C 40.875021 33.012057 40.091488 31.798279 39.634766 30.09375 C 39.402098 29.225404 39.347705 28.423815 39.472656 27.689453 C 39.597607 26.955091 39.86737 26.349166 40.279297 25.871094 C 40.688378 25.382401 41.137956 24.986157 41.630859 24.681641 C 42.131613 24.363404 42.677968 24.122828 43.267578 23.964844 C 44.843441 23.542595 46.159029 23.58776 47.214844 24.097656 C 48.267779 24.596818 49.018689 25.683103 49.466797 27.355469 C 49.719572 28.298839 49.754666 29.028879 49.572266 29.548828 C 49.386993 30.058044 49.127244 30.35822 48.794922 30.447266 C 48.237472 30.596557 47.908095 30.477309 47.804688 30.091797 L 46.511719 25.267578 L 45.208984 25.617188 L 45.4375 26.470703 C 45.050416 26.183837 44.690131 26.015099 44.355469 25.966797 C 44.028653 25.904813 43.634798 25.936137 43.173828 26.058594 C 42.434137 26.256641 41.901629 26.721572 41.580078 27.451172 C 41.258554 28.180772 41.234931 29.053834 41.507812 30.072266 C 41.76346 31.026332 42.218293 31.759497 42.873047 32.273438 C 43.538523 32.784505 44.235871 32.943411 44.964844 32.748047 C 45.500853 32.604425 45.901864 32.382768 46.166016 32.082031 C 46.440901 31.778535 46.642689 31.372775 46.771484 30.867188 C 47.423011 31.669241 48.170684 31.959345 49.017578 31.732422 C 49.832312 31.513965 50.412927 30.932924 50.757812 29.990234 C 51.102694 29.047582 51.133981 28.045666 50.849609 26.984375 C 50.332562 25.054737 49.357365 23.730623 47.923828 23.011719 C 47.034574 22.560609 46.03735 22.353233 44.933594 22.390625 z M 44.199219 26.894531 C 44.56088 26.883441 44.884694 27.012242 45.171875 27.28125 C 45.551903 27.627455 45.829607 28.122425 46.001953 28.765625 C 46.182917 29.440989 46.196318 30.058132 46.046875 30.615234 C 45.908129 31.169464 45.587833 31.513433 45.083984 31.648438 C 44.044127 31.926989 43.304718 31.24567 42.865234 29.605469 C 42.692888 28.962269 42.678972 28.397186 42.824219 27.910156 C 42.966594 27.412392 43.298929 27.093875 43.824219 26.953125 C 43.952861 26.918637 44.078665 26.898228 44.199219 26.894531 z M 26.654297 27.289062 C 25.992043 27.311498 25.292426 27.420914 24.552734 27.619141 C 22.891107 28.064407 21.587385 29.010858 20.642578 30.458984 C 19.705622 31.893466 19.484452 33.533073 19.978516 35.376953 C 20.248529 36.384651 20.616094 37.250263 21.085938 37.974609 C 21.555788 38.698956 22.062066 39.252757 22.601562 39.636719 C 23.151787 40.017846 23.758764 40.292458 24.423828 40.458984 C 25.099579 40.622638 25.752807 40.681381 26.384766 40.638672 C 27.019594 40.608436 27.681096 40.500091 28.367188 40.316406 C 28.871036 40.181477 29.251287 40.055926 29.507812 39.941406 C 29.775059 39.823863 30.132926 39.612392 30.580078 39.308594 L 30.265625 38.136719 C 29.846876 38.374829 29.499417 38.542067 29.226562 38.638672 C 28.956447 38.745633 28.510442 38.880425 27.888672 39.046875 C 26.227046 39.492103 24.834924 39.356126 23.710938 38.634766 C 22.597677 37.910495 21.814144 36.694726 21.357422 34.990234 C 21.12475 34.121888 21.068412 33.322253 21.193359 32.587891 C 21.318299 31.853528 21.586118 31.245651 21.998047 30.767578 C 22.407126 30.278885 22.85866 29.882604 23.351562 29.578125 C 23.852315 29.259889 24.398672 29.021266 24.988281 28.863281 C 26.564147 28.440995 27.879734 28.484245 28.935547 28.994141 C 29.988485 29.493265 30.73744 30.581541 31.185547 32.253906 C 31.438325 33.197276 31.475365 33.927278 31.292969 34.447266 C 31.107704 34.956481 30.847951 35.256657 30.515625 35.345703 C 29.958176 35.494994 29.628801 35.375746 29.525391 34.990234 L 28.232422 30.166016 L 26.929688 30.515625 L 27.158203 31.367188 C 26.77112 31.080321 26.408882 30.913537 26.074219 30.865234 C 25.747407 30.80325 25.355499 30.834953 24.894531 30.957031 C 24.15484 31.155078 23.622332 31.618056 23.300781 32.347656 C 22.979238 33.077256 22.957587 33.952272 23.230469 34.970703 C 23.486116 35.924769 23.938994 36.657935 24.59375 37.171875 C 25.259227 37.682943 25.958529 37.84181 26.6875 37.646484 C 27.223509 37.502862 27.622568 37.279253 27.886719 36.978516 C 28.161592 36.67502 28.363394 36.271212 28.492188 35.765625 C 29.143716 36.567679 29.891389 36.855829 30.738281 36.628906 C 31.553015 36.41045 32.133632 35.831362 32.478516 34.888672 C 32.823405 33.94602 32.852731 32.944104 32.568359 31.882812 C 32.051315 29.953175 31.078068 28.627107 29.644531 27.908203 C 28.755275 27.457093 27.758053 27.251671 26.654297 27.289062 z M 25.919922 31.792969 C 26.281584 31.781878 26.607353 31.908727 26.894531 32.177734 C 27.274561 32.523939 27.550308 33.018909 27.722656 33.662109 C 27.90362 34.337473 27.918993 34.95657 27.769531 35.513672 C 27.630789 36.067864 27.308534 36.409917 26.804688 36.544922 C 25.764831 36.823473 25.025423 36.144108 24.585938 34.503906 C 24.413591 33.860706 24.399663 33.295624 24.544922 32.808594 C 24.687304 32.31083 25.019633 31.990359 25.544922 31.849609 C 25.673564 31.815121 25.799368 31.796666 25.919922 31.792969 z M 8.375 32.185547 C 7.7127461 32.207982 7.0131298 32.319351 6.2734375 32.517578 C 4.6118109 32.962806 3.308088 33.909334 2.3632812 35.357422 C 1.9220099 36.033027 1.6437423 36.754973 1.5195312 37.521484 A 30.999057 30.999057 0 0 0 3.1796875 43.363281 C 3.5425155 43.837963 3.918661 44.249299 4.3203125 44.535156 C 4.8705361 44.916284 5.4794678 45.190934 6.1445312 45.357422 C 6.8202821 45.521075 7.4735102 45.579818 8.1054688 45.537109 C 8.7402967 45.506873 9.4017998 45.398529 10.087891 45.214844 C 10.591739 45.079915 10.971989 44.954363 11.228516 44.839844 C 11.495762 44.7223 11.851676 44.510678 12.298828 44.207031 L 11.984375 43.033203 C 11.565626 43.271313 11.220121 43.440505 10.947266 43.537109 C 10.67715 43.64407 10.231145 43.778862 9.609375 43.945312 C 7.9477484 44.390541 6.5556275 44.254564 5.4316406 43.533203 C 4.3183808 42.808932 3.5328933 41.593201 3.0761719 39.888672 C 2.8435004 39.020325 2.7891151 38.220653 2.9140625 37.486328 C 3.0390031 36.751928 3.3068213 36.144088 3.71875 35.666016 C 4.1278288 35.177323 4.5793638 34.781041 5.0722656 34.476562 C 5.5730186 34.158326 6.1193747 33.919703 6.7089844 33.761719 C 8.2848497 33.33947 9.6004371 33.38272 10.65625 33.892578 C 11.709187 34.39174 12.460096 35.479978 12.908203 37.152344 C 13.160982 38.095714 13.196068 38.825754 13.013672 39.345703 C 12.828407 39.854957 12.568653 40.153142 12.236328 40.242188 C 11.678879 40.391479 11.349504 40.272231 11.246094 39.886719 L 9.953125 35.0625 L 8.6503906 35.412109 L 8.8789062 36.265625 C 8.4918225 35.978759 8.1295851 35.811974 7.7949219 35.763672 C 7.4681099 35.701688 7.0762014 35.73339 6.6152344 35.855469 C 5.8755423 36.053516 5.344988 36.516494 5.0234375 37.246094 C 4.7018942 37.975694 4.6782862 38.848756 4.9511719 39.867188 C 5.2068191 40.821254 5.6596972 41.556335 6.3144531 42.070312 C 6.9799293 42.58138 7.6792317 42.740248 8.4082031 42.544922 C 8.9442119 42.4013 9.3432703 42.17769 9.6074219 41.876953 C 9.8822918 41.573457 10.084097 41.169688 10.212891 40.664062 C 10.86442 41.466154 11.614044 41.754267 12.460938 41.527344 C 13.275671 41.308887 13.854336 40.727808 14.199219 39.785156 C 14.544108 38.842504 14.575387 37.842541 14.291016 36.78125 C 13.773971 34.851612 12.798771 33.525545 11.365234 32.806641 C 10.475978 32.35553 9.4787565 32.148155 8.375 32.185547 z M 7.640625 36.691406 C 8.0022871 36.680316 8.3280556 36.807164 8.6152344 37.076172 C 8.9952636 37.422377 9.2710114 37.917347 9.4433594 38.560547 C 9.6243232 39.235911 9.6396958 39.853054 9.4902344 40.410156 C 9.3514917 40.964348 9.0292387 41.308355 8.5253906 41.443359 C 7.4855337 41.721911 6.746126 41.040592 6.3066406 39.400391 C 6.1342942 38.757191 6.1203664 38.192108 6.265625 37.705078 C 6.4080074 37.207314 6.7422899 36.888796 7.2675781 36.748047 C 7.3962202 36.713559 7.520071 36.695103 7.640625 36.691406 z M 54.792969 37.658203 C 54.130716 37.680639 53.431099 37.790069 52.691406 37.988281 C 51.029782 38.43351 49.726049 39.379999 48.78125 40.828125 C 47.844294 42.262645 47.623128 43.902251 48.117188 45.746094 C 48.387197 46.753791 48.754761 47.619366 49.224609 48.34375 C 49.694454 49.068096 50.200729 49.621897 50.740234 50.005859 C 51.29045 50.386949 51.897435 50.661637 52.5625 50.828125 C 53.238249 50.991779 53.891478 51.052474 54.523438 51.009766 C 55.158266 50.97575 55.819769 50.869232 56.505859 50.685547 C 56.612954 50.656867 56.652083 50.633253 56.748047 50.605469 A 30.999057 30.999057 0 0 0 58.113281 48.646484 C 57.841035 48.789523 57.561666 48.938266 57.365234 49.007812 C 57.095112 49.114773 56.649114 49.249565 56.027344 49.416016 C 54.36572 49.861244 52.973592 49.725267 51.849609 49.003906 C 50.736346 48.279598 49.952816 47.063904 49.496094 45.359375 C 49.263426 44.491066 49.20708 43.68944 49.332031 42.955078 C 49.456982 42.220716 49.726745 41.614791 50.138672 41.136719 C 50.547749 40.648026 50.997331 40.251782 51.490234 39.947266 C 51.990988 39.629029 52.537343 39.390406 53.126953 39.232422 C 54.702816 38.810173 56.018404 38.853385 57.074219 39.363281 C 58.127161 39.862443 58.878071 40.950719 59.326172 42.623047 C 59.578947 43.566417 59.614041 44.296419 59.431641 44.816406 C 59.246368 45.325622 58.986619 45.625798 58.654297 45.714844 C 58.096847 45.864135 57.76747 45.744887 57.664062 45.359375 L 56.371094 40.535156 L 55.068359 40.884766 L 55.296875 41.736328 C 54.909795 41.449462 54.549506 41.282677 54.214844 41.234375 C 53.888028 41.172391 53.494169 41.203715 53.033203 41.326172 C 52.293512 41.524219 51.761004 41.987197 51.439453 42.716797 C 51.117891 43.446397 51.096259 44.321412 51.369141 45.339844 C 51.624788 46.293948 52.077664 47.027075 52.732422 47.541016 C 53.397898 48.052083 54.097199 48.210951 54.826172 48.015625 C 55.362181 47.872003 55.761243 47.650384 56.025391 47.349609 C 56.300276 47.046113 56.502064 46.640353 56.630859 46.134766 C 57.282378 46.936819 58.030059 47.22497 58.876953 46.998047 C 58.995115 46.966364 59.098758 46.91216 59.207031 46.865234 A 30.999057 30.999057 0 0 0 60.871094 43.210938 C 60.843332 42.896348 60.796298 42.577824 60.708984 42.251953 C 60.191945 40.322353 59.216744 38.996248 57.783203 38.277344 C 56.893942 37.826234 55.896723 37.620809 54.792969 37.658203 z M 54.058594 42.162109 C 54.420257 42.151019 54.746031 42.277867 55.033203 42.546875 C 55.413242 42.89308 55.688982 43.390003 55.861328 44.033203 C 56.042292 44.708567 56.057683 45.32571 55.908203 45.882812 C 55.769457 46.437042 55.447204 46.781011 54.943359 46.916016 C 53.903502 47.194567 53.164093 46.513248 52.724609 44.873047 C 52.552263 44.229847 52.538347 43.664802 52.683594 43.177734 C 52.825969 42.680008 53.158304 42.3595 53.683594 42.21875 C 53.812236 42.184262 53.938039 42.165806 54.058594 42.162109 z M 36.513672 42.554688 C 35.851419 42.577127 35.151801 42.688492 34.412109 42.886719 C 32.750482 43.331985 31.446753 44.278437 30.501953 45.726562 C 29.564997 47.161044 29.341875 48.800689 29.835938 50.644531 C 30.105943 51.652229 30.475463 52.517803 30.945312 53.242188 C 31.415156 53.966534 31.921434 54.520297 32.460938 54.904297 C 33.011155 55.285387 33.61814 55.560037 34.283203 55.726562 C 34.958954 55.890216 35.612182 55.948959 36.244141 55.90625 C 36.878969 55.876014 37.540471 55.767669 38.226562 55.583984 C 38.730411 55.449055 39.110663 55.323504 39.367188 55.208984 C 39.634438 55.091441 39.992301 54.87997 40.439453 54.576172 L 40.125 53.402344 C 39.706251 53.640454 39.358793 53.809645 39.085938 53.90625 C 38.815815 54.013211 38.369815 54.148003 37.748047 54.314453 C 36.08642 54.759681 34.694293 54.623704 33.570312 53.902344 C 32.457046 53.178035 31.673518 51.962304 31.216797 50.257812 C 30.984133 49.389504 30.927795 48.587878 31.052734 47.853516 C 31.177682 47.119153 31.445493 46.513229 31.857422 46.035156 C 32.266501 45.546463 32.718035 45.150182 33.210938 44.845703 C 33.71169 44.527467 34.258048 44.288844 34.847656 44.130859 C 36.423522 43.708573 37.739109 43.751823 38.794922 44.261719 C 39.847864 44.760881 40.598774 45.849157 41.046875 47.521484 C 41.29965 48.464854 41.334744 49.194856 41.152344 49.714844 C 40.967071 50.224059 40.707323 50.522282 40.375 50.611328 C 39.81755 50.760619 39.488173 50.641371 39.384766 50.255859 L 38.091797 45.433594 L 36.789062 45.78125 L 37.017578 46.634766 C 36.6305 46.347899 36.268258 46.181115 35.933594 46.132812 C 35.606782 46.070828 35.214873 46.102531 34.753906 46.224609 C 34.014214 46.422657 33.483659 46.885634 33.162109 47.615234 C 32.840559 48.344797 32.816962 49.217897 33.089844 50.236328 C 33.345495 51.190432 33.798369 51.925513 34.453125 52.439453 C 35.118601 52.950521 35.817904 53.109388 36.546875 52.914062 C 37.082884 52.77044 37.481943 52.546831 37.746094 52.246094 C 38.020971 51.942598 38.222771 51.538791 38.351562 51.033203 C 39.003085 51.835219 39.752716 52.123407 40.599609 51.896484 C 41.414343 51.678028 41.993001 51.096949 42.337891 50.154297 C 42.682773 49.211645 42.714059 48.21172 42.429688 47.150391 C 41.912648 45.220791 40.937443 43.894685 39.503906 43.175781 C 38.614647 42.724647 37.617427 42.517288 36.513672 42.554688 z M 35.779297 47.060547 C 36.14096 47.049456 36.466732 47.176305 36.753906 47.445312 C 37.133942 47.791517 37.409683 48.286488 37.582031 48.929688 C 37.762995 49.605051 37.778368 50.222195 37.628906 50.779297 C 37.490164 51.333489 37.167911 51.677495 36.664062 51.8125 C 35.624206 52.091051 34.884798 51.409733 34.445312 49.769531 C 34.272966 49.126331 34.259046 48.561249 34.404297 48.074219 C 34.546687 47.576493 34.880962 47.257937 35.40625 47.117188 C 35.534892 47.082699 35.658742 47.064244 35.779297 47.060547 z M 18.234375 47.453125 C 17.57179 47.475636 16.870551 47.586986 16.130859 47.785156 C 14.469232 48.230385 13.167457 49.174959 12.222656 50.623047 C 11.34879 51.960975 11.103856 53.479787 11.474609 55.173828 A 30.999057 30.999057 0 0 0 13.644531 56.919922 C 13.362537 56.400397 13.115528 55.827957 12.935547 55.15625 C 12.702883 54.287941 12.648498 53.484362 12.773438 52.75 C 12.898385 52.015638 13.168149 51.411666 13.580078 50.933594 C 13.989156 50.444901 14.440692 50.048619 14.933594 49.744141 C 15.434346 49.425904 15.97875 49.187281 16.568359 49.029297 C 18.144225 48.607048 19.459812 48.650411 20.515625 49.160156 C 21.568568 49.659318 22.319478 50.745641 22.767578 52.417969 C 23.020353 53.361339 23.055436 54.091379 22.873047 54.611328 C 22.687778 55.120582 22.429982 55.42072 22.097656 55.509766 C 21.540208 55.659057 21.208879 55.539809 21.105469 55.154297 L 19.8125 50.330078 L 18.509766 50.679688 L 18.738281 51.533203 C 18.351205 51.246337 17.98896 51.077599 17.654297 51.029297 C 17.327485 50.967313 16.935576 50.999015 16.474609 51.121094 C 15.734918 51.319141 15.204363 51.784072 14.882812 52.513672 C 14.561262 53.243234 14.537665 54.116334 14.810547 55.134766 C 15.066202 56.08887 15.519072 56.82395 16.173828 57.337891 C 16.839304 57.848958 17.538606 58.007826 18.267578 57.8125 C 18.803587 57.668878 19.202646 57.445268 19.466797 57.144531 C 19.741674 56.841035 19.943472 56.437228 20.072266 55.931641 C 20.723788 56.733656 21.473419 57.021845 22.320312 56.794922 C 23.135046 56.576465 23.713705 55.995386 24.058594 55.052734 C 24.403483 54.110082 24.43477 53.108204 24.150391 52.046875 L 24.148438 52.046875 C 23.631399 50.117275 22.658146 48.793123 21.224609 48.074219 C 20.335348 47.623085 19.338683 47.415607 18.234375 47.453125 z M 17.5 51.957031 C 17.861664 51.945941 18.187435 52.074742 18.474609 52.34375 C 18.854645 52.689955 19.130386 53.184925 19.302734 53.828125 C 19.483698 54.503489 19.499071 55.120632 19.349609 55.677734 C 19.210867 56.231927 18.888614 56.575933 18.384766 56.710938 C 17.344909 56.989489 16.607454 56.30817 16.167969 54.667969 C 15.995622 54.024769 15.979749 53.459686 16.125 52.972656 C 16.26739 52.47493 16.601665 52.156375 17.126953 52.015625 C 17.255595 51.981137 17.379445 51.960728 17.5 51.957031 z M 21.84375 58.300781 C 21.425002 58.538891 21.081449 58.70613 20.808594 58.802734 C 20.538478 58.909695 20.09052 59.04644 19.46875 59.212891 C 18.84564 59.379851 18.260496 59.463669 17.712891 59.466797 A 30.999057 30.999057 0 0 0 19.851562 60.501953 C 19.884013 60.493564 19.9147 60.489188 19.947266 60.480469 C 20.451114 60.34554 20.831364 60.219988 21.087891 60.105469 C 21.355137 59.987925 21.711052 59.778257 22.158203 59.474609 L 21.84375 58.300781 z "
       transform="matrix(0.26458333,0,0,0.26458333,0,280.06665)"
       id="path1149" />
    <g
       id="g1274"
       transform="translate(-16.867188,0.28348)">
      <path
         id="path1205"
         d="m 25.336292,283.5416 -4.705804,3.66007 h 9.411607 z m 4.705803,3.66007 -4.705803,2.09146 3.660069,2.61435 -8.365873,-4.42871 v 5.47444 h 9.411607 z"
         inkscape:connector-curvature="0"
         style="fill:none;stroke:#000000;stroke-width:0.1;stroke-linecap:round;stroke-linejoin:round;stroke-miterlimit:4;stroke-dasharray:none;stroke-opacity:0.00784314" />
      <path
         style="fill:none;stroke:#000000;stroke-width:0.2;stroke-linecap:round;stroke-linejoin:round;stroke-miterlimit:4;stroke-dasharray:none;stroke-opacity:0.00784314"
         inkscape:connector-curvature="0"
         d="m 25.336292,283.5416 -4.705804,3.66007 h 9.411607 z m 4.705803,3.66007 -4.705803,2.09146 3.660069,2.61435 -8.365873,-4.42871 v 5.47444 h 9.411607 z"
         id="path1207" />
      <path
         id="path1209"
         d="m 25.336292,283.5416 -4.705804,3.66007 h 9.411607 z m 4.705803,3.66007 -4.705803,2.09146 3.660069,2.61435 -8.365873,-4.42871 v 5.47444 h 9.411607 z"
         inkscape:connector-curvature="0"
         style="fill:none;stroke:#000000;stroke-width:0.30000001;stroke-linecap:round;stroke-linejoin:round;stroke-miterlimit:4;stroke-dasharray:none;stroke-opacity:0.00784314" />
      <path
         style="fill:none;stroke:#000000;stroke-width:0.40000001;stroke-linecap:round;stroke-linejoin:round;stroke-miterlimit:4;stroke-dasharray:none;stroke-opacity:0.00784314"
         inkscape:connector-curvature="0"
         d="m 25.336292,283.5416 -4.705804,3.66007 h 9.411607 z m 4.705803,3.66007 -4.705803,2.09146 3.660069,2.61435 -8.365873,-4.42871 v 5.47444 h 9.411607 z"
         id="path1211" />
      <path
         id="path1213"
         d="m 25.336292,283.5416 -4.705804,3.66007 h 9.411607 z m 4.705803,3.66007 -4.705803,2.09146 3.660069,2.61435 -8.365873,-4.42871 v 5.47444 h 9.411607 z"
         inkscape:connector-curvature="0"
         style="fill:none;stroke:#000000;stroke-width:0.5;stroke-linecap:round;stroke-linejoin:round;stroke-miterlimit:4;stroke-dasharray:none;stroke-opacity:0.00784314" />
      <path
         style="fill:none;stroke:#000000;stroke-width:0.60000002;stroke-linecap:round;stroke-linejoin:round;stroke-miterlimit:4;stroke-dasharray:none;stroke-opacity:0.00784314"
         inkscape:connector-curvature="0"
         d="m 25.336292,283.5416 -4.705804,3.66007 h 9.411607 z m 4.705803,3.66007 -4.705803,2.09146 3.660069,2.61435 -8.365873,-4.42871 v 5.47444 h 9.411607 z"
         id="path1215" />
      <path
         id="path1217"
         d="m 25.336292,283.5416 -4.705804,3.66007 h 9.411607 z m 4.705803,3.66007 -4.705803,2.09146 3.660069,2.61435 -8.365873,-4.42871 v 5.47444 h 9.411607 z"
         inkscape:connector-curvature="0"
         style="fill:none;stroke:#000000;stroke-width:0.69999999;stroke-linecap:round;stroke-linejoin:round;stroke-miterlimit:4;stroke-dasharray:none;stroke-opacity:0.00784314" />
      <path
         style="fill:none;stroke:#000000;stroke-width:0.80000001;stroke-linecap:round;stroke-linejoin:round;stroke-miterlimit:4;stroke-dasharray:none;stroke-opacity:0.00784314"
         inkscape:connector-curvature="0"
         d="m 25.336292,283.5416 -4.705804,3.66007 h 9.411607 z m 4.705803,3.66007 -4.705803,2.09146 3.660069,2.61435 -8.365873,-4.42871 v 5.47444 h 9.411607 z"
         id="path1219" />
      <path
         id="path1221"
         d="m 25.336292,283.5416 -4.705804,3.66007 h 9.411607 z m 4.705803,3.66007 -4.705803,2.09146 3.660069,2.61435 -8.365873,-4.42871 v 5.47444 h 9.411607 z"
         inkscape:connector-curvature="0"
         style="fill:none;stroke:#000000;stroke-width:0.89999998;stroke-linecap:round;stroke-linejoin:round;stroke-miterlimit:4;stroke-dasharray:none;stroke-opacity:0.00784314" />
      <path
         style="fill:none;stroke:#000000;stroke-width:1;stroke-linecap:round;stroke-linejoin:round;stroke-miterlimit:4;stroke-dasharray:none;stroke-opacity:0.00784314"
         inkscape:connector-curvature="0"
         d="m 25.336292,283.5416 -4.705804,3.66007 h 9.411607 z m 4.705803,3.66007 -4.705803,2.09146 3.660069,2.61435 -8.365873,-4.42871 v 5.47444 h 9.411607 z"
         id="path1223" />
      <path
         id="path1225"
         d="m 25.336292,283.5416 -4.705804,3.66007 h 9.411607 z m 4.705803,3.66007 -4.705803,2.09146 3.660069,2.61435 -8.365873,-4.42871 v 5.47444 h 9.411607 z"
         inkscape:connector-curvature="0"
         style="fill:none;stroke:#000000;stroke-width:1.10000002;stroke-linecap:round;stroke-linejoin:round;stroke-miterlimit:4;stroke-dasharray:none;stroke-opacity:0.00784314" />
      <path
         style="fill:none;stroke:#000000;stroke-width:1.20000005;stroke-linecap:round;stroke-linejoin:round;stroke-miterlimit:4;stroke-dasharray:none;stroke-opacity:0.00784314"
         inkscape:connector-curvature="0"
         d="m 25.336292,283.5416 -4.705804,3.66007 h 9.411607 z m 4.705803,3.66007 -4.705803,2.09146 3.660069,2.61435 -8.365873,-4.42871 v 5.47444 h 9.411607 z"
         id="path1227" />
      <path
         id="path1229"
         d="m 25.336292,283.5416 -4.705804,3.66007 h 9.411607 z m 4.705803,3.66007 -4.705803,2.09146 3.660069,2.61435 -8.365873,-4.42871 v 5.47444 h 9.411607 z"
         inkscape:connector-curvature="0"
         style="fill:none;stroke:#000000;stroke-width:1.39999998;stroke-linecap:round;stroke-linejoin:round;stroke-miterlimit:4;stroke-dasharray:none;stroke-opacity:0.00784314" />
      <path
         style="fill:none;stroke:#000000;stroke-width:1.60000002;stroke-linecap:round;stroke-linejoin:round;stroke-miterlimit:4;stroke-dasharray:none;stroke-opacity:0.00784314"
         inkscape:connector-curvature="0"
         d="m 25.336292,283.5416 -4.705804,3.66007 h 9.411607 z m 4.705803,3.66007 -4.705803,2.09146 3.660069,2.61435 -8.365873,-4.42871 v 5.47444 h 9.411607 z"
         id="path1231" />
      <path
         id="path1233"
         d="m 25.336292,283.5416 -4.705804,3.66007 h 9.411607 z m 4.705803,3.66007 -4.705803,2.09146 3.660069,2.61435 -8.365873,-4.42871 v 5.47444 h 9.411607 z"
         inkscape:connector-curvature="0"
         style="fill:none;stroke:#000000;stroke-width:1.79999995;stroke-linecap:round;stroke-linejoin:round;stroke-miterlimit:4;stroke-dasharray:none;stroke-opacity:0.00784314" />
      <path
         style="fill:none;stroke:#000000;stroke-width:2;stroke-linecap:round;stroke-linejoin:round;stroke-miterlimit:4;stroke-dasharray:none;stroke-opacity:0.00784314"
         inkscape:connector-curvature="0"
         d="m 25.336292,283.5416 -4.705804,3.66007 h 9.411607 z m 4.705803,3.66007 -4.705803,2.09146 3.660069,2.61435 -8.365873,-4.42871 v 5.47444 h 9.411607 z"
         id="path1235" />
      <path
         id="path1237"
         d="m 25.336292,283.5416 -4.705804,3.66007 h 9.411607 z m 4.705803,3.66007 -4.705803,2.09146 3.660069,2.61435 -8.365873,-4.42871 v 5.47444 h 9.411607 z"
         inkscape:connector-curvature="0"
         style="fill:none;stroke:#000000;stroke-width:2.20000005;stroke-linecap:round;stroke-linejoin:round;stroke-miterlimit:4;stroke-dasharray:none;stroke-opacity:0.00784314" />
      <path
         style="fill:none;stroke:#000000;stroke-width:2.4000001;stroke-linecap:round;stroke-linejoin:round;stroke-miterlimit:4;stroke-dasharray:none;stroke-opacity:0.00784314"
         inkscape:connector-curvature="0"
         d="m 25.336292,283.5416 -4.705804,3.66007 h 9.411607 z m 4.705803,3.66007 -4.705803,2.09146 3.660069,2.61435 -8.365873,-4.42871 v 5.47444 h 9.411607 z"
         id="path1239" />
      <path
         id="path1241"
         d="m 25.336292,283.5416 -4.705804,3.66007 h 9.411607 z m 4.705803,3.66007 -4.705803,2.09146 3.660069,2.61435 -8.365873,-4.42871 v 5.47444 h 9.411607 z"
         inkscape:connector-curvature="0"
         style="fill:none;stroke:#000000;stroke-width:2.70000005;stroke-linecap:round;stroke-linejoin:round;stroke-miterlimit:4;stroke-dasharray:none;stroke-opacity:0.00784314" />
      <path
         style="fill:none;stroke:#000000;stroke-width:3;stroke-linecap:round;stroke-linejoin:round;stroke-miterlimit:4;stroke-dasharray:none;stroke-opacity:0.00784314"
         inkscape:connector-curvature="0"
         d="m 25.336292,283.5416 -4.705804,3.66007 h 9.411607 z m 4.705803,3.66007 -4.705803,2.09146 3.660069,2.61435 -8.365873,-4.42871 v 5.47444 h 9.411607 z"
         id="path1243" />
      <path
         id="path1245"
         d="m 25.336292,283.5416 -4.705804,3.66007 h 9.411607 z m 4.705803,3.66007 -4.705803,2.09146 3.660069,2.61435 -8.365873,-4.42871 v 5.47444 h 9.411607 z"
         inkscape:connector-curvature="0"
         style="fill:none;stroke:#000000;stroke-width:3.29999995;stroke-linecap:round;stroke-linejoin:round;stroke-miterlimit:4;stroke-dasharray:none;stroke-opacity:0.00784314" />
      <path
         style="fill:none;stroke:#000000;stroke-width:3.5999999;stroke-linecap:round;stroke-linejoin:round;stroke-miterlimit:4;stroke-dasharray:none;stroke-opacity:0.00784314"
         inkscape:connector-curvature="0"
         d="m 25.336292,283.5416 -4.705804,3.66007 h 9.411607 z m 4.705803,3.66007 -4.705803,2.09146 3.660069,2.61435 -8.365873,-4.42871 v 5.47444 h 9.411607 z"
         id="path1247" />
      <path
         id="path1249"
         d="m 25.336292,283.5416 -4.705804,3.66007 h 9.411607 z m 4.705803,3.66007 -4.705803,2.09146 3.660069,2.61435 -8.365873,-4.42871 v 5.47444 h 9.411607 z"
         inkscape:connector-curvature="0"
         style="fill:none;stroke:#000000;stroke-width:4;stroke-linecap:round;stroke-linejoin:round;stroke-miterlimit:4;stroke-dasharray:none;stroke-opacity:0.00784314" />
    </g>
    <path
       id="path1176-1"
       d="m 8.469104,283.82508 -4.7058036,3.66007 h 9.4116066 z m 4.705803,3.66007 -4.705803,2.09146 3.660069,2.61435 -8.3658726,-4.42871 v 5.47444 h 9.4116066 z"
       inkscape:connector-curvature="0"
       style="fill:#ffffff;stroke-width:0.34857804" />
  </g>
</svg>
